SplineFontDB: 3.2
FontName: KarmaticArcade
FullName: KarmaticArcade
FamilyName: Karmatic Arcade
Weight: Regular
ItalicAngle: 0
UnderlinePosition: -292
UnderlineWidth: 150
Ascent: 1638
Descent: 410
InvalidEm: 0
LayerCount: 2
Layer: 0 0 "Back" 1
Layer: 1 0 "Fore" 0
XUID: [1021 704 -1455527745 5315895]
OS2Version: 0
OS2_WeightWidthSlopeOnly: 0
OS2_UseTypoMetrics: 0
CreationTime: 1625849369
ModificationTime: 1625850322
PfmFamily: 17
TTFWeight: 400
TTFWidth: 5
LineGap: 184
VLineGap: 184
Panose: 2 0 0 0 0 0 0 0 0 0
OS2TypoAscent: 0
OS2TypoAOffset: 1
OS2TypoDescent: 0
OS2TypoDOffset: 1
OS2TypoLinegap: 184
OS2WinAscent: 0
OS2WinAOffset: 1
OS2WinDescent: 0
OS2WinDOffset: 1
HheadAscent: 0
HheadAOffset: 1
HheadDescent: 0
HheadDOffset: 1
OS2Vendor: 'PfEd'
DEI: 91125
Encoding: Original
UnicodeInterp: none
NameList: AGL For New Fonts
DisplaySize: -48
AntiAlias: 1
FitToEm: 0
WinInfo: 0 27 9
BeginChars: 661 577

StartChar: .notdef
Encoding: 0 0 0
Width: 1536
Flags: HW
LayerCount: 2
Fore
SplineSet
206 0 m 5
 198 1328 l 1
 1306 1312 l 1
 1310 0 l 1
 206 0 l 5
288 32 m 1
 1248 32 l 1
 1248 1248 l 1
 288 1248 l 1
 288 32 l 1
EndSplineSet
Validated: 6291457
EndChar

StartChar: .notdef
Encoding: 1 -1 1
Width: 1536
Flags: W
LayerCount: 2
Fore
SplineSet
256 0 m 1
 256 1280 l 1
 1280 1280 l 1
 1280 0 l 1
 256 0 l 1
288 32 m 1
 1248 32 l 1
 1248 1248 l 1
 288 1248 l 1
 288 32 l 1
EndSplineSet
Validated: 2097153
EndChar

StartChar: exclam
Encoding: 6 33 6
Width: 798
Flags: W
LayerCount: 2
Fore
SplineSet
798 399 m 1
 798 600 l 1
 999 600 l 1
 999 399 l 1
 798 399 l 1
798 600 m 1
 798 800 l 1
 999 800 l 1
 999 600 l 1
 798 600 l 1
798 800 m 1
 798 1001 l 1
 999 1001 l 1
 999 800 l 1
 798 800 l 1
798 1001 m 1
 798 1202 l 1
 999 1202 l 1
 999 1001 l 1
 798 1001 l 1
798 1202 m 1
 798 1398 l 1
 999 1398 l 1
 999 1202 l 1
 798 1202 l 1
602 1398 m 1
 602 1599 l 1
 798 1599 l 1
 798 1398 l 1
 602 1398 l 1
798 -198 m 1
 798 -396 l 1
 602 -396 l 1
 602 -198 l 1
 798 -198 l 1
602 -198 m 1
 602 -2 l 1
 798 -2 l 1
 798 -198 l 1
 602 -198 l 1
602 -2 m 1
 602 199 l 1
 798 199 l 1
 798 -2 l 1
 602 -2 l 1
602 199 m 1
 602 399 l 1
 798 399 l 1
 798 199 l 1
 602 199 l 1
602 399 m 1
 602 600 l 1
 798 600 l 1
 798 399 l 1
 602 399 l 1
602 600 m 1
 602 800 l 1
 798 800 l 1
 798 600 l 1
 602 600 l 1
602 800 m 1
 602 1001 l 1
 798 1001 l 1
 798 800 l 1
 602 800 l 1
602 1001 m 1
 602 1202 l 1
 798 1202 l 1
 798 1001 l 1
 602 1001 l 1
602 1202 m 1
 602 1398 l 1
 798 1398 l 1
 798 1202 l 1
 602 1202 l 1
401 1398 m 1
 401 1599 l 1
 602 1599 l 1
 602 1398 l 1
 401 1398 l 1
602 -198 m 1
 602 -396 l 1
 401 -396 l 1
 401 -198 l 1
 602 -198 l 1
401 -198 m 1
 401 -2 l 1
 602 -2 l 1
 602 -198 l 1
 401 -198 l 1
401 -2 m 1
 401 199 l 1
 602 199 l 1
 602 -2 l 1
 401 -2 l 1
401 199 m 1
 401 399 l 1
 602 399 l 1
 602 199 l 1
 401 199 l 1
401 399 m 1
 401 600 l 1
 602 600 l 1
 602 399 l 1
 401 399 l 1
401 600 m 1
 401 800 l 1
 602 800 l 1
 602 600 l 1
 401 600 l 1
201 1398 m 1
 201 1599 l 1
 401 1599 l 1
 401 1398 l 1
 201 1398 l 1
401 -198 m 1
 401 -396 l 1
 201 -396 l 1
 201 -198 l 1
 401 -198 l 1
201 -198 m 1
 201 -2 l 1
 401 -2 l 1
 401 -198 l 1
 201 -198 l 1
201 199 m 1
 201 399 l 1
 401 399 l 1
 401 199 l 1
 201 199 l 1
0 1398 m 1
 0 1599 l 1
 201 1599 l 1
 201 1398 l 1
 0 1398 l 1
0 -198 m 1
 0 -2 l 1
 201 -2 l 1
 201 -198 l 1
 0 -198 l 1
0 -2 m 1
 0 199 l 1
 201 199 l 1
 201 -2 l 1
 0 -2 l 1
0 199 m 1
 0 399 l 1
 201 399 l 1
 201 199 l 1
 0 199 l 1
0 399 m 1
 0 600 l 1
 201 600 l 1
 201 399 l 1
 0 399 l 1
0 600 m 1
 0 800 l 1
 201 800 l 1
 201 600 l 1
 0 600 l 1
0 800 m 1
 0 1001 l 1
 201 1001 l 1
 201 800 l 1
 0 800 l 1
0 1001 m 1
 0 1202 l 1
 201 1202 l 1
 201 1001 l 1
 0 1001 l 1
0 1202 m 1
 0 1398 l 1
 201 1398 l 1
 201 1202 l 1
 0 1202 l 1
EndSplineSet
Validated: 5
EndChar

StartChar: quotedbl
Encoding: 7 34 7
Width: 1400
Flags: W
LayerCount: 2
Fore
SplineSet
1400 399 m 1
 1400 600 l 1
 1601 600 l 1
 1601 399 l 1
 1400 399 l 1
1400 600 m 1
 1400 800 l 1
 1601 800 l 1
 1601 600 l 1
 1400 600 l 1
1400 800 m 1
 1400 1001 l 1
 1601 1001 l 1
 1601 800 l 1
 1400 800 l 1
1400 1001 m 1
 1400 1202 l 1
 1601 1202 l 1
 1601 1001 l 1
 1400 1001 l 1
1400 1202 m 1
 1400 1398 l 1
 1601 1398 l 1
 1601 1202 l 1
 1400 1202 l 1
1200 1398 m 1
 1200 1599 l 1
 1400 1599 l 1
 1400 1398 l 1
 1200 1398 l 1
1200 399 m 1
 1200 600 l 1
 1400 600 l 1
 1400 399 l 1
 1200 399 l 1
1200 600 m 1
 1200 800 l 1
 1400 800 l 1
 1400 600 l 1
 1200 600 l 1
1200 800 m 1
 1200 1001 l 1
 1400 1001 l 1
 1400 800 l 1
 1200 800 l 1
1200 1001 m 1
 1200 1202 l 1
 1400 1202 l 1
 1400 1001 l 1
 1200 1001 l 1
1200 1202 m 1
 1200 1398 l 1
 1400 1398 l 1
 1400 1202 l 1
 1200 1202 l 1
999 1398 m 1
 999 1599 l 1
 1200 1599 l 1
 1200 1398 l 1
 999 1398 l 1
999 399 m 1
 999 600 l 1
 1200 600 l 1
 1200 399 l 1
 999 399 l 1
999 600 m 1
 999 800 l 1
 1200 800 l 1
 1200 600 l 1
 999 600 l 1
798 1398 m 1
 798 1599 l 1
 999 1599 l 1
 999 1398 l 1
 798 1398 l 1
798 399 m 1
 798 600 l 1
 999 600 l 1
 999 399 l 1
 798 399 l 1
798 600 m 1
 798 800 l 1
 999 800 l 1
 999 600 l 1
 798 600 l 1
602 1398 m 1
 602 1599 l 1
 798 1599 l 1
 798 1398 l 1
 602 1398 l 1
602 399 m 1
 602 600 l 1
 798 600 l 1
 798 399 l 1
 602 399 l 1
602 600 m 1
 602 800 l 1
 798 800 l 1
 798 600 l 1
 602 600 l 1
602 800 m 1
 602 1001 l 1
 798 1001 l 1
 798 800 l 1
 602 800 l 1
602 1001 m 1
 602 1202 l 1
 798 1202 l 1
 798 1001 l 1
 602 1001 l 1
602 1202 m 1
 602 1398 l 1
 798 1398 l 1
 798 1202 l 1
 602 1202 l 1
401 1398 m 1
 401 1599 l 1
 602 1599 l 1
 602 1398 l 1
 401 1398 l 1
401 399 m 1
 401 600 l 1
 602 600 l 1
 602 399 l 1
 401 399 l 1
401 600 m 1
 401 800 l 1
 602 800 l 1
 602 600 l 1
 401 600 l 1
201 1398 m 1
 201 1599 l 1
 401 1599 l 1
 401 1398 l 1
 201 1398 l 1
201 399 m 1
 201 600 l 1
 401 600 l 1
 401 399 l 1
 201 399 l 1
201 600 m 1
 201 800 l 1
 401 800 l 1
 401 600 l 1
 201 600 l 1
0 1398 m 1
 0 1599 l 1
 201 1599 l 1
 201 1398 l 1
 0 1398 l 1
0 600 m 1
 0 800 l 1
 201 800 l 1
 201 600 l 1
 0 600 l 1
0 800 m 1
 0 1001 l 1
 201 1001 l 1
 201 800 l 1
 0 800 l 1
0 1001 m 1
 0 1202 l 1
 201 1202 l 1
 201 1001 l 1
 0 1001 l 1
0 1202 m 1
 0 1398 l 1
 201 1398 l 1
 201 1202 l 1
 0 1202 l 1
EndSplineSet
Validated: 5
EndChar

StartChar: percent
Encoding: 10 37 8
Width: 1801
Flags: HW
LayerCount: 2
Fore
SplineSet
802 999 m 1
 802 1200 l 1
 1003 1200 l 1
 1003 999 l 1
 802 999 l 1
802 1200 m 1
 802 1400 l 1
 1003 1400 l 1
 1003 1200 l 1
 802 1200 l 1
601 803 m 1
 601 999 l 1
 802 999 l 1
 802 803 l 1
 601 803 l 1
601 999 m 1
 601 1200 l 1
 802 1200 l 1
 802 999 l 1
 601 999 l 1
601 1200 m 1
 601 1400 l 1
 802 1400 l 1
 802 1200 l 1
 601 1200 l 1
601 1400 m 1
 601 1601 l 1
 802 1601 l 1
 802 1400 l 1
 601 1400 l 1
601 803 m 1
 601 605 l 1
 405 605 l 1
 405 803 l 1
 601 803 l 1
405 803 m 1
 405 999 l 1
 601 999 l 1
 601 803 l 1
 405 803 l 1
405 1400 m 1
 405 1601 l 1
 601 1601 l 1
 601 1400 l 1
 405 1400 l 1
405 803 m 1
 405 605 l 1
 204 605 l 1
 204 803 l 1
 405 803 l 1
204 803 m 1
 204 999 l 1
 405 999 l 1
 405 803 l 1
 204 803 l 1
204 1400 m 1
 204 1601 l 1
 405 1601 l 1
 405 1400 l 1
 204 1400 l 1
4 803 m 1
 4 999 l 1
 204 999 l 1
 204 803 l 1
 4 803 l 1
4 999 m 1
 4 1200 l 1
 204 1200 l 1
 204 999 l 1
 4 999 l 1
4 1200 m 1
 4 1400 l 1
 204 1400 l 1
 204 1200 l 1
 4 1200 l 1
4 1400 m 1
 4 1601 l 1
 204 1601 l 1
 204 1400 l 1
 4 1400 l 1
1998 -399 m 1
 1998 -597 l 1
 1797 -597 l 1
 1797 -399 l 1
 1998 -399 l 1
1797 -399 m 1
 1797 -203 l 1
 1998 -203 l 1
 1998 -399 l 1
 1797 -399 l 1
1797 -203 m 1
 1797 -2 l 1
 1998 -2 l 1
 1998 -203 l 1
 1797 -203 l 1
1797 -2 m 1
 1797 198 l 1
 1998 198 l 1
 1998 -2 l 1
 1797 -2 l 1
1797 -399 m 1
 1797 -597 l 1
 1596 -597 l 1
 1596 -399 l 1
 1797 -399 l 1
1596 -399 m 1
 1596 -203 l 1
 1797 -203 l 1
 1797 -399 l 1
 1596 -399 l 1
1596 -203 m 1
 1596 -2 l 1
 1797 -2 l 1
 1797 -203 l 1
 1596 -203 l 1
1596 -2 m 1
 1596 198 l 1
 1797 198 l 1
 1797 -2 l 1
 1596 -2 l 1
1596 198 m 1
 1596 399 l 1
 1797 399 l 1
 1797 198 l 1
 1596 198 l 1
1596 -399 m 1
 1596 -597 l 1
 1400 -597 l 1
 1400 -399 l 1
 1596 -399 l 1
1400 -399 m 1
 1400 -203 l 1
 1596 -203 l 1
 1596 -399 l 1
 1400 -399 l 1
1400 198 m 1
 1400 399 l 1
 1596 399 l 1
 1596 198 l 1
 1400 198 l 1
1400 -399 m 1
 1400 -597 l 1
 1199 -597 l 1
 1199 -399 l 1
 1400 -399 l 1
1199 -399 m 1
 1199 -203 l 1
 1400 -203 l 1
 1400 -399 l 1
 1199 -399 l 1
1199 198 m 1
 1199 399 l 1
 1400 399 l 1
 1400 198 l 1
 1199 198 l 1
999 -399 m 1
 999 -203 l 1
 1199 -203 l 1
 1199 -399 l 1
 999 -399 l 1
999 -203 m 1
 999 -2 l 1
 1199 -2 l 1
 1199 -203 l 1
 999 -203 l 1
999 -2 m 1
 999 198 l 1
 1199 198 l 1
 1199 -2 l 1
 999 -2 l 1
999 198 m 1
 999 399 l 1
 1199 399 l 1
 1199 198 l 1
 999 198 l 1
997 -201 m 1
 997 -1 l 1
 1194 -1 l 1
 1194 -201 l 1
 997 -201 l 1
997 -1 m 1
 997 200 l 1
 1194 200 l 1
 1194 -1 l 1
 997 -1 l 1
997 200 m 1
 997 401 l 1
 1194 401 l 1
 1194 200 l 1
 997 200 l 1
997 401 m 1
 1194 401 l 1
 1400 399 l 1
 997 401 l 1
797 -201 m 1
 997 -201 l 1
 998 -1 l 1
 797 -1 l 1
 797 -201 l 1
797 -201 m 1
 797 -1 l 1
 997 -1 l 1
 997 -201 l 1
 797 -201 l 1
797 -1 m 1
 797 200 l 1
 997 200 l 1
 997 -1 l 1
 797 -1 l 1
797 200 m 1
 797 401 l 1
 997 401 l 1
 997 200 l 1
 797 200 l 1
997 401 m 1
 797 401 l 1
 997 401 l 1
596 -201 m 1
 797 -201 l 1
 596 -201 l 1
596 -201 m 1
 596 -1 l 1
 797 -1 l 1
 797 -201 l 1
 596 -201 l 1
396 -201 m 1
 396 -1 l 1
 596 -1 l 1
 596 -201 l 1
 396 -201 l 1
1198 199 m 1025
1198 199 m 1
 1198 400 l 1
 1395 400 l 1
 1395 199 l 1
 1198 199 l 1
1198 400 m 1
 1198 601 l 1
 1395 601 l 1
 1395 400 l 1
 1198 400 l 1
1198 601 m 1
 1395 601 l 1
 1601 600 l 1
 1198 601 l 1
1198 -1 m 1
 998 -1 l 1
 998 199 l 1
 1199 199 l 1
 1198 -1 l 1
998 -1 m 1
 998 199 l 1
 1198 199 l 1
 1198 -1 l 1
 998 -1 l 1
998 199 m 1
 998 400 l 1
 1198 400 l 1
 1198 199 l 1
 998 199 l 1
998 400 m 1
 998 601 l 1
 1198 601 l 1
 1198 400 l 1
 998 400 l 1
1198 601 m 1
 998 601 l 1
 1198 601 l 1
797 -1 m 1
 797 199 l 1
 998 199 l 1
 998 -1 l 1
 797 -1 l 1
597 -1 m 1
 597 199 l 1
 797 199 l 1
 797 -1 l 1
 597 -1 l 1
1399 199 m 1
 1399 399 l 1
 1596 399 l 1
 1596 199 l 1
 1399 199 l 1
1399 399 m 1
 1399 600 l 1
 1596 600 l 1
 1596 399 l 1
 1399 399 l 1
1399 600 m 1
 1399 801 l 1
 1596 801 l 1
 1596 600 l 1
 1399 600 l 1
1199 199 m 1
 1399 199 l 1
 1199 199 l 1
1199 199 m 1
 1199 399 l 1
 1399 399 l 1
 1399 199 l 1
 1199 199 l 1
1199 399 m 1
 1199 600 l 1
 1399 600 l 1
 1399 399 l 1
 1199 399 l 1
1199 600 m 1
 1199 801 l 1
 1399 801 l 1
 1399 600 l 1
 1199 600 l 1
1399 801 m 1
 1199 801 l 1
 1399 801 l 1
998 199 m 1
 998 399 l 1
 1199 399 l 1
 1199 199 l 1
 998 199 l 1
798 199 m 1
 798 399 l 1
 998 399 l 1
 998 199 l 1
 798 199 l 1
1600 399 m 1
 1600 599 l 1
 1797 599 l 1
 1797 399 l 1
 1600 399 l 1
1600 599 m 1
 1600 800 l 1
 1797 800 l 1
 1797 599 l 1
 1600 599 l 1
1600 800 m 1
 1600 1001 l 1
 1797 1001 l 1
 1797 800 l 1
 1600 800 l 1
1797 1001 m 1
 1600 1001 l 1
 1797 1001 l 1
1400 399 m 1
 1600 399 l 1
 1400 399 l 1
1400 399 m 1
 1400 599 l 1
 1600 599 l 1
 1600 399 l 1
 1400 399 l 1
1400 599 m 1
 1400 800 l 1
 1600 800 l 1
 1600 599 l 1
 1400 599 l 1
1400 800 m 1
 1400 1001 l 1
 1600 1001 l 1
 1600 800 l 1
 1400 800 l 1
1600 1001 m 1
 1400 1001 l 1
 1600 1001 l 1
1199 399 m 1
 1199 599 l 1
 1400 599 l 1
 1400 399 l 1
 1199 399 l 1
999 399 m 1
 999 599 l 1
 1199 599 l 1
 1199 399 l 1
 999 399 l 1
799 998 m 1
 799 1199 l 1
 798 1398 l 1
 799 998 l 1
598 998 m 1
 598 1199 l 1
 799 1199 l 1
 799 998 l 1
 598 998 l 1
598 802 m 1
 598 998 l 1
 799 998 l 1
 799 802 l 1
 598 802 l 1
397 601 m 1
 397 802 l 1
 598 802 l 1
 598 601 l 1
 397 601 l 1
397 802 m 1
 397 998 l 1
 598 998 l 1
 598 802 l 1
 397 802 l 1
799 998 m 1
 799 1199 l 1
 798 1398 l 1
 799 998 l 1
598 998 m 1
 598 1199 l 1
 799 1199 l 1
 799 998 l 1
 598 998 l 1
598 802 m 1
 598 998 l 1
 799 998 l 1
 799 802 l 1
 598 802 l 1
397 601 m 1
 397 802 l 1
 598 802 l 1
 598 601 l 1
 397 601 l 1
397 802 m 1
 397 998 l 1
 598 998 l 1
 598 802 l 1
 397 802 l 1
397 998 m 1
 397 802 l 1
 397 998 l 1
799 998 m 1
 799 1199 l 1
 798 1398 l 1
 799 998 l 1
598 998 m 1
 598 1199 l 1
 799 1199 l 1
 799 998 l 1
 598 998 l 1
598 802 m 1
 598 998 l 1
 799 998 l 1
 799 802 l 1
 598 802 l 1
397 601 m 1
 397 802 l 1
 598 802 l 1
 598 601 l 1
 397 601 l 1
397 802 m 1
 397 998 l 1
 598 998 l 1
 598 802 l 1
 397 802 l 1
397 998 m 1
 397 802 l 1
 397 998 l 1
1400 1398 m 1
 1400 1599 l 1
 1400 1398 l 1
1200 1398 m 1
 1200 1599 l 1
 1400 1599 l 1
 1400 1398 l 1
 1200 1398 l 1
999 1398 m 1
 999 1599 l 1
 1200 1599 l 1
 1200 1398 l 1
 999 1398 l 1
999 1202 m 1
 999 1398 l 1
 1200 1398 l 1
 1200 1202 l 1
 999 1202 l 1
798 1001 m 1
 798 1202 l 1
 999 1202 l 1
 999 1001 l 1
 798 1001 l 1
798 1202 m 1
 798 1398 l 1
 999 1398 l 1
 999 1202 l 1
 798 1202 l 1
1400 1398 m 1
 1400 1599 l 1
 1400 1398 l 1
1200 1398 m 1
 1200 1599 l 1
 1400 1599 l 1
 1400 1398 l 1
 1200 1398 l 1
999 1398 m 1
 999 1599 l 1
 1200 1599 l 1
 1200 1398 l 1
 999 1398 l 1
999 1202 m 1
 999 1398 l 1
 1200 1398 l 1
 1200 1202 l 1
 999 1202 l 1
798 1001 m 1
 798 1202 l 1
 999 1202 l 1
 999 1001 l 1
 798 1001 l 1
798 1202 m 1
 798 1398 l 1
 999 1398 l 1
 999 1202 l 1
 798 1202 l 1
1801 600 m 1
 1801 800 l 1
 1998 800 l 1
 1998 600 l 1
 1801 600 l 1
1801 800 m 1
 1801 1001 l 1
 1998 1001 l 1
 1998 800 l 1
 1801 800 l 1
1801 1001 m 1
 1801 1202 l 1
 1998 1202 l 1
 1998 1001 l 1
 1801 1001 l 1
1801 1202 m 1
 1801 1398 l 1
 1998 1398 l 1
 1998 1202 l 1
 1801 1202 l 1
1601 1398 m 1
 1601 1599 l 1
 1801 1599 l 1
 1801 1398 l 1
 1601 1398 l 1
1601 600 m 1
 1801 600 l 1
 1601 600 l 1
1601 600 m 1
 1601 800 l 1
 1801 800 l 1
 1801 600 l 1
 1601 600 l 1
1601 800 m 1
 1601 1001 l 1
 1801 1001 l 1
 1801 800 l 1
 1601 800 l 1
1601 1001 m 1
 1601 1202 l 1
 1801 1202 l 1
 1801 1001 l 1
 1601 1001 l 1
1601 1202 m 1
 1601 1398 l 1
 1801 1398 l 1
 1801 1202 l 1
 1601 1202 l 1
1400 1398 m 1
 1400 1599 l 1
 1601 1599 l 1
 1601 1398 l 1
 1400 1398 l 1
1400 600 m 1
 1400 800 l 1
 1601 800 l 1
 1601 600 l 1
 1400 600 l 1
1400 800 m 1
 1400 1001 l 1
 1601 1001 l 1
 1601 800 l 1
 1400 800 l 1
1200 1398 m 1
 1200 1599 l 1
 1400 1599 l 1
 1400 1398 l 1
 1200 1398 l 1
1200 600 m 1
 1200 800 l 1
 1400 800 l 1
 1400 600 l 1
 1200 600 l 1
999 1398 m 1
 999 1599 l 1
 1200 1599 l 1
 1200 1398 l 1
 999 1398 l 1
999 1202 m 1
 999 1398 l 1
 1200 1398 l 1
 1200 1202 l 1
 999 1202 l 1
999 -198 m 1
 999 -396 l 1
 798 -396 l 1
 798 -198 l 1
 999 -198 l 1
798 -198 m 1
 798 -2 l 1
 999 -2 l 1
 999 -198 l 1
 798 -198 l 1
798 -2 m 1
 798 199 l 1
 999 199 l 1
 999 -2 l 1
 798 -2 l 1
798 199 m 1
 798 399 l 1
 999 399 l 1
 999 199 l 1
 798 199 l 1
798 1001 m 1
 798 1202 l 1
 999 1202 l 1
 999 1001 l 1
 798 1001 l 1
798 1202 m 1
 798 1398 l 1
 999 1398 l 1
 999 1202 l 1
 798 1202 l 1
798 -198 m 1
 798 -396 l 1
 602 -396 l 1
 602 -198 l 1
 798 -198 l 1
602 -198 m 1
 602 -2 l 1
 798 -2 l 1
 798 -198 l 1
 602 -198 l 1
602 -2 m 1
 602 199 l 1
 798 199 l 1
 798 -2 l 1
 602 -2 l 1
602 -198 m 1
 602 -396 l 1
 401 -396 l 1
 401 -198 l 1
 602 -198 l 1
401 -198 m 1
 401 -2 l 1
 602 -2 l 1
 602 -198 l 1
 401 -198 l 1
401 600 m 1
 401 800 l 1
 602 800 l 1
 602 600 l 1
 401 600 l 1
401 -198 m 1
 401 -396 l 1
 201 -396 l 1
 201 -198 l 1
 401 -198 l 1
201 -198 m 1
 201 -2 l 1
 401 -2 l 1
 401 -198 l 1
 201 -198 l 1
201 399 m 1
 201 600 l 1
 401 600 l 1
 401 399 l 1
 201 399 l 1
201 600 m 1
 201 800 l 1
 401 800 l 1
 401 600 l 1
 201 600 l 1
0 -198 m 1
 0 -2 l 1
 201 -2 l 1
 201 -198 l 1
 0 -198 l 1
0 -2 m 1
 0 199 l 1
 201 199 l 1
 201 -2 l 1
 0 -2 l 1
0 199 m 1
 0 399 l 1
 201 399 l 1
 201 199 l 1
 0 199 l 1
0 399 m 1
 0 600 l 1
 201 600 l 1
 201 399 l 1
 0 399 l 1
201 800 m 1
 0 800 l 1
 201 800 l 1
EndSplineSet
Validated: 5
EndChar

StartChar: quotesingle
Encoding: 12 39 10
Width: 798
Flags: W
LayerCount: 2
Fore
SplineSet
798 399 m 1
 798 600 l 1
 999 600 l 1
 999 399 l 1
 798 399 l 1
798 600 m 1
 798 800 l 1
 999 800 l 1
 999 600 l 1
 798 600 l 1
798 800 m 1
 798 1001 l 1
 999 1001 l 1
 999 800 l 1
 798 800 l 1
798 1001 m 1
 798 1202 l 1
 999 1202 l 1
 999 1001 l 1
 798 1001 l 1
798 1202 m 1
 798 1398 l 1
 999 1398 l 1
 999 1202 l 1
 798 1202 l 1
602 1398 m 1
 602 1599 l 1
 798 1599 l 1
 798 1398 l 1
 602 1398 l 1
602 399 m 1
 602 600 l 1
 798 600 l 1
 798 399 l 1
 602 399 l 1
602 600 m 1
 602 800 l 1
 798 800 l 1
 798 600 l 1
 602 600 l 1
602 800 m 1
 602 1001 l 1
 798 1001 l 1
 798 800 l 1
 602 800 l 1
602 1001 m 1
 602 1202 l 1
 798 1202 l 1
 798 1001 l 1
 602 1001 l 1
602 1202 m 1
 602 1398 l 1
 798 1398 l 1
 798 1202 l 1
 602 1202 l 1
401 1398 m 1
 401 1599 l 1
 602 1599 l 1
 602 1398 l 1
 401 1398 l 1
401 399 m 1
 401 600 l 1
 602 600 l 1
 602 399 l 1
 401 399 l 1
401 600 m 1
 401 800 l 1
 602 800 l 1
 602 600 l 1
 401 600 l 1
201 1398 m 1
 201 1599 l 1
 401 1599 l 1
 401 1398 l 1
 201 1398 l 1
201 399 m 1
 201 600 l 1
 401 600 l 1
 401 399 l 1
 201 399 l 1
201 600 m 1
 201 800 l 1
 401 800 l 1
 401 600 l 1
 201 600 l 1
0 1398 m 1
 0 1599 l 1
 201 1599 l 1
 201 1398 l 1
 0 1398 l 1
0 600 m 1
 0 800 l 1
 201 800 l 1
 201 600 l 1
 0 600 l 1
0 800 m 1
 0 1001 l 1
 201 1001 l 1
 201 800 l 1
 0 800 l 1
0 1001 m 1
 0 1202 l 1
 201 1202 l 1
 201 1001 l 1
 0 1001 l 1
0 1202 m 1
 0 1398 l 1
 201 1398 l 1
 201 1202 l 1
 0 1202 l 1
EndSplineSet
Validated: 5
EndChar

StartChar: hyphen
Encoding: 18 45 16
Width: 999
Flags: W
LayerCount: 2
Fore
SplineSet
999 199 m 1
 999 399 l 1
 1200 399 l 1
 1200 199 l 1
 999 199 l 1
999 399 m 1
 999 600 l 1
 1200 600 l 1
 1200 399 l 1
 999 399 l 1
999 600 m 1
 999 800 l 1
 1200 800 l 1
 1200 600 l 1
 999 600 l 1
798 199 m 1
 798 399 l 1
 999 399 l 1
 999 199 l 1
 798 199 l 1
798 399 m 1
 798 600 l 1
 999 600 l 1
 999 399 l 1
 798 399 l 1
798 600 m 1
 798 800 l 1
 999 800 l 1
 999 600 l 1
 798 600 l 1
798 800 m 1
 798 1001 l 1
 999 1001 l 1
 999 800 l 1
 798 800 l 1
602 199 m 1
 602 399 l 1
 798 399 l 1
 798 199 l 1
 602 199 l 1
602 399 m 1
 602 600 l 1
 798 600 l 1
 798 399 l 1
 602 399 l 1
602 800 m 1
 602 1001 l 1
 798 1001 l 1
 798 800 l 1
 602 800 l 1
401 199 m 1
 401 399 l 1
 602 399 l 1
 602 199 l 1
 401 199 l 1
401 399 m 1
 401 600 l 1
 602 600 l 1
 602 399 l 1
 401 399 l 1
401 800 m 1
 401 1001 l 1
 602 1001 l 1
 602 800 l 1
 401 800 l 1
201 199 m 1
 201 399 l 1
 401 399 l 1
 401 199 l 1
 201 199 l 1
201 399 m 1
 201 600 l 1
 401 600 l 1
 401 399 l 1
 201 399 l 1
201 800 m 1
 201 1001 l 1
 401 1001 l 1
 401 800 l 1
 201 800 l 1
0 399 m 1
 0 600 l 1
 201 600 l 1
 201 399 l 1
 0 399 l 1
0 600 m 1
 0 800 l 1
 201 800 l 1
 201 600 l 1
 0 600 l 1
0 800 m 1
 0 1001 l 1
 201 1001 l 1
 201 800 l 1
 0 800 l 1
EndSplineSet
Validated: 2097157
EndChar

StartChar: hyphen
Encoding: 19 173 17
Width: 999
Flags: W
LayerCount: 2
Fore
SplineSet
999 199 m 1
 999 399 l 1
 1200 399 l 1
 1200 199 l 1
 999 199 l 1
999 399 m 1
 999 600 l 1
 1200 600 l 1
 1200 399 l 1
 999 399 l 1
999 600 m 1
 999 800 l 1
 1200 800 l 1
 1200 600 l 1
 999 600 l 1
798 199 m 1
 798 399 l 1
 999 399 l 1
 999 199 l 1
 798 199 l 1
798 399 m 1
 798 600 l 1
 999 600 l 1
 999 399 l 1
 798 399 l 1
798 600 m 1
 798 800 l 1
 999 800 l 1
 999 600 l 1
 798 600 l 1
798 800 m 1
 798 1001 l 1
 999 1001 l 1
 999 800 l 1
 798 800 l 1
602 199 m 1
 602 399 l 1
 798 399 l 1
 798 199 l 1
 602 199 l 1
602 399 m 1
 602 600 l 1
 798 600 l 1
 798 399 l 1
 602 399 l 1
602 800 m 1
 602 1001 l 1
 798 1001 l 1
 798 800 l 1
 602 800 l 1
401 199 m 1
 401 399 l 1
 602 399 l 1
 602 199 l 1
 401 199 l 1
401 399 m 1
 401 600 l 1
 602 600 l 1
 602 399 l 1
 401 399 l 1
401 800 m 1
 401 1001 l 1
 602 1001 l 1
 602 800 l 1
 401 800 l 1
201 199 m 1
 201 399 l 1
 401 399 l 1
 401 199 l 1
 201 199 l 1
201 399 m 1
 201 600 l 1
 401 600 l 1
 401 399 l 1
 201 399 l 1
201 800 m 1
 201 1001 l 1
 401 1001 l 1
 401 800 l 1
 201 800 l 1
0 399 m 1
 0 600 l 1
 201 600 l 1
 201 399 l 1
 0 399 l 1
0 600 m 1
 0 800 l 1
 201 800 l 1
 201 600 l 1
 0 600 l 1
0 800 m 1
 0 1001 l 1
 201 1001 l 1
 201 800 l 1
 0 800 l 1
EndSplineSet
Validated: 2097157
EndChar

StartChar: period
Encoding: 20 46 18
Width: 1200
Flags: W
LayerCount: 2
Fore
SplineSet
1200 -198 m 1
 1200 -396 l 1
 999 -396 l 1
 999 -198 l 1
 1200 -198 l 1
999 -198 m 1
 999 -2 l 1
 1200 -2 l 1
 1200 -198 l 1
 999 -198 l 1
999 -2 m 1
 999 199 l 1
 1200 199 l 1
 1200 -2 l 1
 999 -2 l 1
999 199 m 1
 999 399 l 1
 1200 399 l 1
 1200 199 l 1
 999 199 l 1
999 -198 m 1
 999 -396 l 1
 798 -396 l 1
 798 -198 l 1
 999 -198 l 1
798 -198 m 1
 798 -2 l 1
 999 -2 l 1
 999 -198 l 1
 798 -198 l 1
798 -2 m 1
 798 199 l 1
 999 199 l 1
 999 -2 l 1
 798 -2 l 1
798 199 m 1
 798 399 l 1
 999 399 l 1
 999 199 l 1
 798 199 l 1
798 399 m 1
 798 600 l 1
 999 600 l 1
 999 399 l 1
 798 399 l 1
798 -198 m 1
 798 -396 l 1
 602 -396 l 1
 602 -198 l 1
 798 -198 l 1
602 -198 m 1
 602 -2 l 1
 798 -2 l 1
 798 -198 l 1
 602 -198 l 1
602 399 m 1
 602 600 l 1
 798 600 l 1
 798 399 l 1
 602 399 l 1
602 -198 m 1
 602 -396 l 1
 401 -396 l 1
 401 -198 l 1
 602 -198 l 1
401 -198 m 1
 401 -2 l 1
 602 -2 l 1
 602 -198 l 1
 401 -198 l 1
401 399 m 1
 401 600 l 1
 602 600 l 1
 602 399 l 1
 401 399 l 1
201 -198 m 1
 201 -2 l 1
 401 -2 l 1
 401 -198 l 1
 201 -198 l 1
201 -2 m 1
 201 199 l 1
 401 199 l 1
 401 -2 l 1
 201 -2 l 1
201 199 m 1
 201 399 l 1
 401 399 l 1
 401 199 l 1
 201 199 l 1
201 399 m 1
 201 600 l 1
 401 600 l 1
 401 399 l 1
 201 399 l 1
EndSplineSet
Validated: 5
EndChar

StartChar: slash
Encoding: 21 47 19
Width: 1801
Flags: W
LayerCount: 2
Fore
SplineSet
997 -201 m 1
 997 -1 l 1
 1194 -1 l 1
 1194 -201 l 1
 997 -201 l 1
997 -1 m 1
 997 200 l 1
 1194 200 l 1
 1194 -1 l 1
 997 -1 l 1
997 200 m 1
 997 401 l 1
 1194 401 l 1
 1194 200 l 1
 997 200 l 1
997 401 m 1
 1194 401 l 1
 1400 399 l 1
 997 401 l 1
797 -201 m 1
 997 -201 l 1
 998 -1 l 1
 797 -1 l 1
 797 -201 l 1
797 -201 m 1
 797 -1 l 1
 997 -1 l 1
 997 -201 l 1
 797 -201 l 1
797 -1 m 1
 797 200 l 1
 997 200 l 1
 997 -1 l 1
 797 -1 l 1
797 200 m 1
 797 401 l 1
 997 401 l 1
 997 200 l 1
 797 200 l 1
997 401 m 1
 797 401 l 1
 997 401 l 1
596 -201 m 1
 797 -201 l 1
 596 -201 l 1
596 -201 m 1
 596 -1 l 1
 797 -1 l 1
 797 -201 l 1
 596 -201 l 1
596 -1 m 1
 797 -1 l 1
 797 200 l 1
 998 199 l 1
 998 400 l 1
 1199 399 l 1
 1199 600 l 1
 1400 599 l 1
 1399 801 l 1
 1596 801 l 1
 596 -1 l 1
396 -201 m 1
 396 -1 l 1
 596 -1 l 1
 596 -201 l 1
 396 -201 l 1
1198 -1 m 1
 1198 199 l 1
 1395 199 l 1
 1395 -1 l 1
 1198 -1 l 1
1198 199 m 1
 1198 400 l 1
 1395 400 l 1
 1395 199 l 1
 1198 199 l 1
1198 400 m 1
 1198 601 l 1
 1395 601 l 1
 1395 400 l 1
 1198 400 l 1
1198 601 m 1
 1395 601 l 1
 1601 600 l 1
 1198 601 l 1
1198 -1 m 1
 998 -1 l 1
 998 199 l 1
 1199 199 l 1
 1198 -1 l 1
998 -1 m 1
 998 199 l 1
 1198 199 l 1
 1198 -1 l 1
 998 -1 l 1
998 199 m 1
 998 400 l 1
 1198 400 l 1
 1198 199 l 1
 998 199 l 1
998 400 m 1
 998 601 l 1
 1198 601 l 1
 1198 400 l 1
 998 400 l 1
1198 601 m 1
 998 601 l 1
 1198 601 l 1
797 -1 m 1
 797 199 l 1
 998 199 l 1
 998 -1 l 1
 797 -1 l 1
597 -1 m 1
 597 199 l 1
 797 199 l 1
 797 -1 l 1
 597 -1 l 1
1399 199 m 1
 1399 399 l 1
 1596 399 l 1
 1596 199 l 1
 1399 199 l 1
1399 399 m 1
 1399 600 l 1
 1596 600 l 1
 1596 399 l 1
 1399 399 l 1
1399 600 m 1
 1399 801 l 1
 1596 801 l 1
 1596 600 l 1
 1399 600 l 1
1199 199 m 1
 1399 199 l 1
 1199 199 l 1
1199 199 m 1
 1199 399 l 1
 1399 399 l 1
 1399 199 l 1
 1199 199 l 1
1199 399 m 1
 1199 600 l 1
 1399 600 l 1
 1399 399 l 1
 1199 399 l 1
1199 600 m 1
 1199 801 l 1
 1399 801 l 1
 1399 600 l 1
 1199 600 l 1
1399 801 m 1
 1199 801 l 1
 1399 801 l 1
998 199 m 1
 998 399 l 1
 1199 399 l 1
 1199 199 l 1
 998 199 l 1
798 199 m 1
 798 399 l 1
 998 399 l 1
 998 199 l 1
 798 199 l 1
1600 399 m 1
 1600 599 l 1
 1797 599 l 1
 1797 399 l 1
 1600 399 l 1
1600 599 m 1
 1600 800 l 1
 1797 800 l 1
 1797 599 l 1
 1600 599 l 1
1600 800 m 1
 1600 1001 l 1
 1797 1001 l 1
 1797 800 l 1
 1600 800 l 1
1797 1001 m 1
 1600 1001 l 1
 1797 1001 l 1
1400 399 m 1
 1600 399 l 1
 1400 399 l 1
1400 399 m 1
 1400 599 l 1
 1600 599 l 1
 1600 399 l 1
 1400 399 l 1
1400 599 m 1
 1400 800 l 1
 1600 800 l 1
 1600 599 l 1
 1400 599 l 1
1400 800 m 1
 1400 1001 l 1
 1600 1001 l 1
 1600 800 l 1
 1400 800 l 1
1600 1001 m 1
 1400 1001 l 1
 1600 1001 l 1
1199 399 m 1
 1199 599 l 1
 1400 599 l 1
 1400 399 l 1
 1199 399 l 1
999 399 m 1
 999 599 l 1
 1199 599 l 1
 1199 399 l 1
 999 399 l 1
799 998 m 1
 799 1199 l 1
 798 1398 l 1
 799 998 l 1
598 998 m 1
 598 1199 l 1
 799 1199 l 1
 799 998 l 1
 598 998 l 1
598 802 m 1
 598 998 l 1
 799 998 l 1
 799 802 l 1
 598 802 l 1
397 601 m 1
 397 802 l 1
 598 802 l 1
 598 601 l 1
 397 601 l 1
397 802 m 1
 397 998 l 1
 598 998 l 1
 598 802 l 1
 397 802 l 1
397 998 m 1
 397 802 l 1
 201 800 l 1
 397 998 l 1
799 998 m 1
 799 1199 l 1
 798 1398 l 1
 799 998 l 1
598 998 m 1
 598 1199 l 1
 799 1199 l 1
 799 998 l 1
 598 998 l 1
598 802 m 1
 598 998 l 1
 799 998 l 1
 799 802 l 1
 598 802 l 1
397 601 m 1
 397 802 l 1
 598 802 l 1
 598 601 l 1
 397 601 l 1
397 802 m 1
 397 998 l 1
 598 998 l 1
 598 802 l 1
 397 802 l 1
397 998 m 1
 397 802 l 1
 397 998 l 1
799 998 m 1
 799 1199 l 1
 798 1398 l 1
 799 998 l 1
598 998 m 1
 598 1199 l 1
 799 1199 l 1
 799 998 l 1
 598 998 l 1
598 802 m 1
 598 998 l 1
 799 998 l 1
 799 802 l 1
 598 802 l 1
397 601 m 1
 397 802 l 1
 598 802 l 1
 598 601 l 1
 397 601 l 1
397 802 m 1
 397 998 l 1
 598 998 l 1
 598 802 l 1
 397 802 l 1
397 998 m 1
 397 802 l 1
 397 998 l 1
1400 1398 m 1
 1400 1599 l 1
 1400 1398 l 1
1200 1398 m 1
 1200 1599 l 1
 1400 1599 l 1
 1400 1398 l 1
 1200 1398 l 1
999 1398 m 1
 999 1599 l 1
 1200 1599 l 1
 1200 1398 l 1
 999 1398 l 1
999 1202 m 1
 999 1398 l 1
 1200 1398 l 1
 1200 1202 l 1
 999 1202 l 1
798 1001 m 1
 798 1202 l 1
 999 1202 l 1
 999 1001 l 1
 798 1001 l 1
798 1202 m 1
 798 1398 l 1
 999 1398 l 1
 999 1202 l 1
 798 1202 l 1
1400 1398 m 1
 1400 1599 l 1
 1400 1398 l 1
1200 1398 m 1
 1200 1599 l 1
 1400 1599 l 1
 1400 1398 l 1
 1200 1398 l 1
999 1398 m 1
 999 1599 l 1
 1200 1599 l 1
 1200 1398 l 1
 999 1398 l 1
999 1202 m 1
 999 1398 l 1
 1200 1398 l 1
 1200 1202 l 1
 999 1202 l 1
798 1001 m 1
 798 1202 l 1
 999 1202 l 1
 999 1001 l 1
 798 1001 l 1
798 1202 m 1
 798 1398 l 1
 999 1398 l 1
 999 1202 l 1
 798 1202 l 1
1801 600 m 1
 1801 800 l 1
 1998 800 l 1
 1998 600 l 1
 1801 600 l 1
1801 800 m 1
 1801 1001 l 1
 1998 1001 l 1
 1998 800 l 1
 1801 800 l 1
1801 1001 m 1
 1801 1202 l 1
 1998 1202 l 1
 1998 1001 l 1
 1801 1001 l 1
1801 1202 m 1
 1801 1398 l 1
 1998 1398 l 1
 1998 1202 l 1
 1801 1202 l 1
1601 1398 m 1
 1601 1599 l 1
 1801 1599 l 1
 1801 1398 l 1
 1601 1398 l 1
1601 600 m 1
 1801 600 l 1
 1601 600 l 1
1601 600 m 1
 1601 800 l 1
 1801 800 l 1
 1801 600 l 1
 1601 600 l 1
1601 800 m 1
 1601 1001 l 1
 1801 1001 l 1
 1801 800 l 1
 1601 800 l 1
1601 1001 m 1
 1601 1202 l 1
 1801 1202 l 1
 1801 1001 l 1
 1601 1001 l 1
1601 1202 m 1
 1601 1398 l 1
 1801 1398 l 1
 1801 1202 l 1
 1601 1202 l 1
1400 1398 m 1
 1400 1599 l 1
 1601 1599 l 1
 1601 1398 l 1
 1400 1398 l 1
1400 600 m 1
 1400 800 l 1
 1601 800 l 1
 1601 600 l 1
 1400 600 l 1
1400 800 m 1
 1400 1001 l 1
 1601 1001 l 1
 1601 800 l 1
 1400 800 l 1
1200 1398 m 1
 1200 1599 l 1
 1400 1599 l 1
 1400 1398 l 1
 1200 1398 l 1
1200 600 m 1
 1200 800 l 1
 1400 800 l 1
 1400 600 l 1
 1200 600 l 1
999 1398 m 1
 999 1599 l 1
 1200 1599 l 1
 1200 1398 l 1
 999 1398 l 1
999 1202 m 1
 999 1398 l 1
 1200 1398 l 1
 1200 1202 l 1
 999 1202 l 1
999 -198 m 1
 999 -396 l 1
 798 -396 l 1
 798 -198 l 1
 999 -198 l 1
798 -198 m 1
 798 -2 l 1
 999 -2 l 1
 999 -198 l 1
 798 -198 l 1
798 -2 m 1
 798 199 l 1
 999 199 l 1
 999 -2 l 1
 798 -2 l 1
798 199 m 1
 798 399 l 1
 999 399 l 1
 999 199 l 1
 798 199 l 1
798 1001 m 1
 798 1202 l 1
 999 1202 l 1
 999 1001 l 1
 798 1001 l 1
798 1202 m 1
 798 1398 l 1
 999 1398 l 1
 999 1202 l 1
 798 1202 l 1
798 -198 m 1
 798 -396 l 1
 602 -396 l 1
 602 -198 l 1
 798 -198 l 1
602 -198 m 1
 602 -2 l 1
 798 -2 l 1
 798 -198 l 1
 602 -198 l 1
602 -2 m 1
 602 199 l 1
 798 199 l 1
 798 -2 l 1
 602 -2 l 1
602 -198 m 1
 602 -396 l 1
 401 -396 l 1
 401 -198 l 1
 602 -198 l 1
401 -198 m 1
 401 -2 l 1
 602 -2 l 1
 602 -198 l 1
 401 -198 l 1
401 600 m 1
 401 800 l 1
 602 800 l 1
 602 600 l 1
 401 600 l 1
401 -198 m 1
 401 -396 l 1
 201 -396 l 1
 201 -198 l 1
 401 -198 l 1
201 -198 m 1
 201 -2 l 1
 401 -2 l 1
 401 -198 l 1
 201 -198 l 1
201 399 m 1
 201 600 l 1
 401 600 l 1
 401 399 l 1
 201 399 l 1
201 600 m 1
 201 800 l 1
 401 800 l 1
 401 600 l 1
 201 600 l 1
0 -198 m 1
 0 -2 l 1
 201 -2 l 1
 201 -198 l 1
 0 -198 l 1
0 -2 m 1
 0 199 l 1
 201 199 l 1
 201 -2 l 1
 0 -2 l 1
0 199 m 1
 0 399 l 1
 201 399 l 1
 201 199 l 1
 0 199 l 1
0 399 m 1
 0 600 l 1
 201 600 l 1
 201 399 l 1
 0 399 l 1
201 800 m 1
 0 800 l 1
 201 800 l 1
EndSplineSet
Validated: 5
EndChar

StartChar: zero
Encoding: 22 48 20
Width: 1801
Flags: W
LayerCount: 2
Fore
SplineSet
1801 -198 m 1
 1801 -2 l 1
 1998 -2 l 1
 1998 -198 l 1
 1801 -198 l 1
1801 -2 m 1
 1801 199 l 1
 1998 199 l 1
 1998 -2 l 1
 1801 -2 l 1
1801 199 m 1
 1801 399 l 1
 1998 399 l 1
 1998 199 l 1
 1801 199 l 1
1801 399 m 1
 1801 600 l 1
 1998 600 l 1
 1998 399 l 1
 1801 399 l 1
1801 600 m 1
 1801 800 l 1
 1998 800 l 1
 1998 600 l 1
 1801 600 l 1
1801 800 m 1
 1801 1001 l 1
 1998 1001 l 1
 1998 800 l 1
 1801 800 l 1
1801 1001 m 1
 1801 1202 l 1
 1998 1202 l 1
 1998 1001 l 1
 1801 1001 l 1
1801 -198 m 1
 1801 -396 l 1
 1601 -396 l 1
 1601 -198 l 1
 1801 -198 l 1
1601 -198 m 1
 1601 -2 l 1
 1801 -2 l 1
 1801 -198 l 1
 1601 -198 l 1
1601 -2 m 1
 1601 199 l 1
 1801 199 l 1
 1801 -2 l 1
 1601 -2 l 1
1601 199 m 1
 1601 399 l 1
 1801 399 l 1
 1801 199 l 1
 1601 199 l 1
1601 399 m 1
 1601 600 l 1
 1801 600 l 1
 1801 399 l 1
 1601 399 l 1
1601 600 m 1
 1601 800 l 1
 1801 800 l 1
 1801 600 l 1
 1601 600 l 1
1601 800 m 1
 1601 1001 l 1
 1801 1001 l 1
 1801 800 l 1
 1601 800 l 1
1601 1001 m 1
 1601 1202 l 1
 1801 1202 l 1
 1801 1001 l 1
 1601 1001 l 1
1601 1202 m 1
 1601 1398 l 1
 1801 1398 l 1
 1801 1202 l 1
 1601 1202 l 1
1400 1398 m 1
 1400 1599 l 1
 1601 1599 l 1
 1601 1398 l 1
 1400 1398 l 1
1601 -198 m 1
 1601 -396 l 1
 1400 -396 l 1
 1400 -198 l 1
 1601 -198 l 1
1400 -198 m 1
 1400 -2 l 1
 1601 -2 l 1
 1601 -198 l 1
 1400 -198 l 1
1400 -2 m 1
 1400 199 l 1
 1601 199 l 1
 1601 -2 l 1
 1400 -2 l 1
1400 1202 m 1
 1400 1398 l 1
 1601 1398 l 1
 1601 1202 l 1
 1400 1202 l 1
1200 1398 m 1
 1200 1599 l 1
 1400 1599 l 1
 1400 1398 l 1
 1200 1398 l 1
1400 -198 m 1
 1400 -396 l 1
 1200 -396 l 1
 1200 -198 l 1
 1400 -198 l 1
1200 -198 m 1
 1200 -2 l 1
 1400 -2 l 1
 1400 -198 l 1
 1200 -198 l 1
999 1398 m 1
 999 1599 l 1
 1200 1599 l 1
 1200 1398 l 1
 999 1398 l 1
1200 -198 m 1
 1200 -396 l 1
 999 -396 l 1
 999 -198 l 1
 1200 -198 l 1
999 -198 m 1
 999 -2 l 1
 1200 -2 l 1
 1200 -198 l 1
 999 -198 l 1
999 199 m 1
 999 399 l 1
 1200 399 l 1
 1200 199 l 1
 999 199 l 1
999 399 m 1
 999 600 l 1
 1200 600 l 1
 1200 399 l 1
 999 399 l 1
999 600 m 1
 999 800 l 1
 1200 800 l 1
 1200 600 l 1
 999 600 l 1
999 1001 m 1
 999 1202 l 1
 1200 1202 l 1
 1200 1001 l 1
 999 1001 l 1
798 1398 m 1
 798 1599 l 1
 999 1599 l 1
 999 1398 l 1
 798 1398 l 1
999 -198 m 1
 999 -396 l 1
 798 -396 l 1
 798 -198 l 1
 999 -198 l 1
798 -198 m 1
 798 -2 l 1
 999 -2 l 1
 999 -198 l 1
 798 -198 l 1
798 199 m 1
 798 399 l 1
 999 399 l 1
 999 199 l 1
 798 199 l 1
798 399 m 1
 798 600 l 1
 999 600 l 1
 999 399 l 1
 798 399 l 1
798 800 m 1
 798 1001 l 1
 999 1001 l 1
 999 800 l 1
 798 800 l 1
798 1001 m 1
 798 1202 l 1
 999 1202 l 1
 999 1001 l 1
 798 1001 l 1
602 1398 m 1
 602 1599 l 1
 798 1599 l 1
 798 1398 l 1
 602 1398 l 1
798 -198 m 1
 798 -396 l 1
 602 -396 l 1
 602 -198 l 1
 798 -198 l 1
602 -198 m 1
 602 -2 l 1
 798 -2 l 1
 798 -198 l 1
 602 -198 l 1
602 199 m 1
 602 399 l 1
 798 399 l 1
 798 199 l 1
 602 199 l 1
602 600 m 1
 602 800 l 1
 798 800 l 1
 798 600 l 1
 602 600 l 1
602 800 m 1
 602 1001 l 1
 798 1001 l 1
 798 800 l 1
 602 800 l 1
602 1001 m 1
 602 1202 l 1
 798 1202 l 1
 798 1001 l 1
 602 1001 l 1
401 1398 m 1
 401 1599 l 1
 602 1599 l 1
 602 1398 l 1
 401 1398 l 1
602 -198 m 1
 602 -396 l 1
 401 -396 l 1
 401 -198 l 1
 602 -198 l 1
401 -198 m 1
 401 -2 l 1
 602 -2 l 1
 602 -198 l 1
 401 -198 l 1
201 1398 m 1
 201 1599 l 1
 401 1599 l 1
 401 1398 l 1
 201 1398 l 1
201 -198 m 1
 201 -2 l 1
 401 -2 l 1
 401 -198 l 1
 201 -198 l 1
201 -2 m 1
 201 199 l 1
 401 199 l 1
 401 -2 l 1
 201 -2 l 1
201 1202 m 1
 201 1398 l 1
 401 1398 l 1
 401 1202 l 1
 201 1202 l 1
0 -2 m 1
 0 199 l 1
 201 199 l 1
 201 -2 l 1
 0 -2 l 1
0 199 m 1
 0 399 l 1
 201 399 l 1
 201 199 l 1
 0 199 l 1
0 399 m 1
 0 600 l 1
 201 600 l 1
 201 399 l 1
 0 399 l 1
0 600 m 1
 0 800 l 1
 201 800 l 1
 201 600 l 1
 0 600 l 1
0 800 m 1
 0 1001 l 1
 201 1001 l 1
 201 800 l 1
 0 800 l 1
0 1001 m 1
 0 1202 l 1
 201 1202 l 1
 201 1001 l 1
 0 1001 l 1
0 1202 m 1
 0 1398 l 1
 201 1398 l 1
 201 1202 l 1
 0 1202 l 1
EndSplineSet
Validated: 5
EndChar

StartChar: one
Encoding: 23 49 21
Width: 1601
Flags: W
LayerCount: 2
Fore
SplineSet
1801 -198 m 1
 1801 -396 l 1
 1601 -396 l 1
 1601 -198 l 1
 1801 -198 l 1
1601 -198 m 1
 1601 -2 l 1
 1801 -2 l 1
 1801 -198 l 1
 1601 -198 l 1
1601 -2 m 1
 1601 199 l 1
 1801 199 l 1
 1801 -2 l 1
 1601 -2 l 1
1601 -198 m 1
 1601 -396 l 1
 1400 -396 l 1
 1400 -198 l 1
 1601 -198 l 1
1400 -198 m 1
 1400 -2 l 1
 1601 -2 l 1
 1601 -198 l 1
 1400 -198 l 1
1400 -2 m 1
 1400 199 l 1
 1601 199 l 1
 1601 -2 l 1
 1400 -2 l 1
1400 199 m 1
 1400 399 l 1
 1601 399 l 1
 1601 199 l 1
 1400 199 l 1
1400 -198 m 1
 1400 -396 l 1
 1200 -396 l 1
 1200 -198 l 1
 1400 -198 l 1
1200 -198 m 1
 1200 -2 l 1
 1400 -2 l 1
 1400 -198 l 1
 1200 -198 l 1
1200 199 m 1
 1200 399 l 1
 1400 399 l 1
 1400 199 l 1
 1200 199 l 1
1200 399 m 1
 1200 600 l 1
 1400 600 l 1
 1400 399 l 1
 1200 399 l 1
1200 600 m 1
 1200 800 l 1
 1400 800 l 1
 1400 600 l 1
 1200 600 l 1
1200 800 m 1
 1200 1001 l 1
 1400 1001 l 1
 1400 800 l 1
 1200 800 l 1
1200 1001 m 1
 1200 1202 l 1
 1400 1202 l 1
 1400 1001 l 1
 1200 1001 l 1
1200 1202 m 1
 1200 1398 l 1
 1400 1398 l 1
 1400 1202 l 1
 1200 1202 l 1
999 1398 m 1
 999 1599 l 1
 1200 1599 l 1
 1200 1398 l 1
 999 1398 l 1
1200 -198 m 1
 1200 -396 l 1
 999 -396 l 1
 999 -198 l 1
 1200 -198 l 1
999 -198 m 1
 999 -2 l 1
 1200 -2 l 1
 1200 -198 l 1
 999 -198 l 1
999 199 m 1
 999 399 l 1
 1200 399 l 1
 1200 199 l 1
 999 199 l 1
999 399 m 1
 999 600 l 1
 1200 600 l 1
 1200 399 l 1
 999 399 l 1
999 600 m 1
 999 800 l 1
 1200 800 l 1
 1200 600 l 1
 999 600 l 1
999 800 m 1
 999 1001 l 1
 1200 1001 l 1
 1200 800 l 1
 999 800 l 1
999 1001 m 1
 999 1202 l 1
 1200 1202 l 1
 1200 1001 l 1
 999 1001 l 1
999 1202 m 1
 999 1398 l 1
 1200 1398 l 1
 1200 1202 l 1
 999 1202 l 1
798 1398 m 1
 798 1599 l 1
 999 1599 l 1
 999 1398 l 1
 798 1398 l 1
999 -198 m 1
 999 -396 l 1
 798 -396 l 1
 798 -198 l 1
 999 -198 l 1
798 -198 m 1
 798 -2 l 1
 999 -2 l 1
 999 -198 l 1
 798 -198 l 1
602 1398 m 1
 602 1599 l 1
 798 1599 l 1
 798 1398 l 1
 602 1398 l 1
798 -198 m 1
 798 -396 l 1
 602 -396 l 1
 602 -198 l 1
 798 -198 l 1
602 -198 m 1
 602 -2 l 1
 798 -2 l 1
 798 -198 l 1
 602 -198 l 1
401 1398 m 1
 401 1599 l 1
 602 1599 l 1
 602 1398 l 1
 401 1398 l 1
602 -198 m 1
 602 -396 l 1
 401 -396 l 1
 401 -198 l 1
 602 -198 l 1
401 -198 m 1
 401 -2 l 1
 602 -2 l 1
 602 -198 l 1
 401 -198 l 1
401 199 m 1
 401 399 l 1
 602 399 l 1
 602 199 l 1
 401 199 l 1
401 399 m 1
 401 600 l 1
 602 600 l 1
 602 399 l 1
 401 399 l 1
401 600 m 1
 401 800 l 1
 602 800 l 1
 602 600 l 1
 401 600 l 1
401 800 m 1
 401 1001 l 1
 602 1001 l 1
 602 800 l 1
 401 800 l 1
401 1202 m 1
 401 1398 l 1
 602 1398 l 1
 602 1202 l 1
 401 1202 l 1
401 -198 m 1
 401 -396 l 1
 201 -396 l 1
 201 -198 l 1
 401 -198 l 1
201 -198 m 1
 201 -2 l 1
 401 -2 l 1
 401 -198 l 1
 201 -198 l 1
201 199 m 1
 201 399 l 1
 401 399 l 1
 401 199 l 1
 201 199 l 1
201 800 m 1
 201 1001 l 1
 401 1001 l 1
 401 800 l 1
 201 800 l 1
201 1001 m 1
 201 1202 l 1
 401 1202 l 1
 401 1001 l 1
 201 1001 l 1
201 1202 m 1
 201 1398 l 1
 401 1398 l 1
 401 1202 l 1
 201 1202 l 1
0 -198 m 1
 0 -2 l 1
 201 -2 l 1
 201 -198 l 1
 0 -198 l 1
0 -2 m 1
 0 199 l 1
 201 199 l 1
 201 -2 l 1
 0 -2 l 1
0 199 m 1
 0 399 l 1
 201 399 l 1
 201 199 l 1
 0 199 l 1
EndSplineSet
Validated: 5
EndChar

StartChar: two
Encoding: 24 50 22
Width: 1801
Flags: W
LayerCount: 2
Fore
SplineSet
1998 -198 m 1
 1998 -396 l 1
 1801 -396 l 1
 1801 -198 l 1
 1998 -198 l 1
1801 -198 m 1
 1801 -2 l 1
 1998 -2 l 1
 1998 -198 l 1
 1801 -198 l 1
1801 -2 m 1
 1801 199 l 1
 1998 199 l 1
 1998 -2 l 1
 1801 -2 l 1
1801 399 m 1
 1801 600 l 1
 1998 600 l 1
 1998 399 l 1
 1801 399 l 1
1801 600 m 1
 1801 800 l 1
 1998 800 l 1
 1998 600 l 1
 1801 600 l 1
1801 800 m 1
 1801 1001 l 1
 1998 1001 l 1
 1998 800 l 1
 1801 800 l 1
1801 1001 m 1
 1801 1202 l 1
 1998 1202 l 1
 1998 1001 l 1
 1801 1001 l 1
1801 -198 m 1
 1801 -396 l 1
 1601 -396 l 1
 1601 -198 l 1
 1801 -198 l 1
1601 -198 m 1
 1601 -2 l 1
 1801 -2 l 1
 1801 -198 l 1
 1601 -198 l 1
1601 -2 m 1
 1601 199 l 1
 1801 199 l 1
 1801 -2 l 1
 1601 -2 l 1
1601 199 m 1
 1601 399 l 1
 1801 399 l 1
 1801 199 l 1
 1601 199 l 1
1601 399 m 1
 1601 600 l 1
 1801 600 l 1
 1801 399 l 1
 1601 399 l 1
1601 600 m 1
 1601 800 l 1
 1801 800 l 1
 1801 600 l 1
 1601 600 l 1
1601 800 m 1
 1601 1001 l 1
 1801 1001 l 1
 1801 800 l 1
 1601 800 l 1
1601 1001 m 1
 1601 1202 l 1
 1801 1202 l 1
 1801 1001 l 1
 1601 1001 l 1
1601 1202 m 1
 1601 1398 l 1
 1801 1398 l 1
 1801 1202 l 1
 1601 1202 l 1
1400 1398 m 1
 1400 1599 l 1
 1601 1599 l 1
 1601 1398 l 1
 1400 1398 l 1
1601 -198 m 1
 1601 -396 l 1
 1400 -396 l 1
 1400 -198 l 1
 1601 -198 l 1
1400 -198 m 1
 1400 -2 l 1
 1601 -2 l 1
 1601 -198 l 1
 1400 -198 l 1
1400 199 m 1
 1400 399 l 1
 1601 399 l 1
 1601 199 l 1
 1400 199 l 1
1400 399 m 1
 1400 600 l 1
 1601 600 l 1
 1601 399 l 1
 1400 399 l 1
1400 600 m 1
 1400 800 l 1
 1601 800 l 1
 1601 600 l 1
 1400 600 l 1
1400 1202 m 1
 1400 1398 l 1
 1601 1398 l 1
 1601 1202 l 1
 1400 1202 l 1
1200 1398 m 1
 1200 1599 l 1
 1400 1599 l 1
 1400 1398 l 1
 1200 1398 l 1
1400 -198 m 1
 1400 -396 l 1
 1200 -396 l 1
 1200 -198 l 1
 1400 -198 l 1
1200 -198 m 1
 1200 -2 l 1
 1400 -2 l 1
 1400 -198 l 1
 1200 -198 l 1
1200 199 m 1
 1200 399 l 1
 1400 399 l 1
 1400 199 l 1
 1200 199 l 1
1200 399 m 1
 1200 600 l 1
 1400 600 l 1
 1400 399 l 1
 1200 399 l 1
999 1398 m 1
 999 1599 l 1
 1200 1599 l 1
 1200 1398 l 1
 999 1398 l 1
1200 -198 m 1
 1200 -396 l 1
 999 -396 l 1
 999 -198 l 1
 1200 -198 l 1
999 -198 m 1
 999 -2 l 1
 1200 -2 l 1
 1200 -198 l 1
 999 -198 l 1
999 199 m 1
 999 399 l 1
 1200 399 l 1
 1200 199 l 1
 999 199 l 1
999 1001 m 1
 999 1202 l 1
 1200 1202 l 1
 1200 1001 l 1
 999 1001 l 1
798 1398 m 1
 798 1599 l 1
 999 1599 l 1
 999 1398 l 1
 798 1398 l 1
999 -198 m 1
 999 -396 l 1
 798 -396 l 1
 798 -198 l 1
 999 -198 l 1
798 -198 m 1
 798 -2 l 1
 999 -2 l 1
 999 -198 l 1
 798 -198 l 1
798 800 m 1
 798 1001 l 1
 999 1001 l 1
 999 800 l 1
 798 800 l 1
798 1001 m 1
 798 1202 l 1
 999 1202 l 1
 999 1001 l 1
 798 1001 l 1
602 1398 m 1
 602 1599 l 1
 798 1599 l 1
 798 1398 l 1
 602 1398 l 1
798 -198 m 1
 798 -396 l 1
 602 -396 l 1
 602 -198 l 1
 798 -198 l 1
602 -198 m 1
 602 -2 l 1
 798 -2 l 1
 798 -198 l 1
 602 -198 l 1
602 600 m 1
 602 800 l 1
 798 800 l 1
 798 600 l 1
 602 600 l 1
602 800 m 1
 602 1001 l 1
 798 1001 l 1
 798 800 l 1
 602 800 l 1
602 1001 m 1
 602 1202 l 1
 798 1202 l 1
 798 1001 l 1
 602 1001 l 1
401 1398 m 1
 401 1599 l 1
 602 1599 l 1
 602 1398 l 1
 401 1398 l 1
602 -198 m 1
 602 -396 l 1
 401 -396 l 1
 401 -198 l 1
 602 -198 l 1
401 -198 m 1
 401 -2 l 1
 602 -2 l 1
 602 -198 l 1
 401 -198 l 1
401 399 m 1
 401 600 l 1
 602 600 l 1
 602 399 l 1
 401 399 l 1
401 600 m 1
 401 800 l 1
 602 800 l 1
 602 600 l 1
 401 600 l 1
201 1398 m 1
 201 1599 l 1
 401 1599 l 1
 401 1398 l 1
 201 1398 l 1
401 -198 m 1
 401 -396 l 1
 201 -396 l 1
 201 -198 l 1
 401 -198 l 1
201 -198 m 1
 201 -2 l 1
 401 -2 l 1
 401 -198 l 1
 201 -198 l 1
201 199 m 1
 201 399 l 1
 401 399 l 1
 401 199 l 1
 201 199 l 1
201 399 m 1
 201 600 l 1
 401 600 l 1
 401 399 l 1
 201 399 l 1
201 600 m 1
 201 800 l 1
 401 800 l 1
 401 600 l 1
 201 600 l 1
201 1202 m 1
 201 1398 l 1
 401 1398 l 1
 401 1202 l 1
 201 1202 l 1
0 -198 m 1
 0 -2 l 1
 201 -2 l 1
 201 -198 l 1
 0 -198 l 1
0 -2 m 1
 0 199 l 1
 201 199 l 1
 201 -2 l 1
 0 -2 l 1
0 199 m 1
 0 399 l 1
 201 399 l 1
 201 199 l 1
 0 199 l 1
0 600 m 1
 0 800 l 1
 201 800 l 1
 201 600 l 1
 0 600 l 1
0 800 m 1
 0 1001 l 1
 201 1001 l 1
 201 800 l 1
 0 800 l 1
0 1001 m 1
 0 1202 l 1
 201 1202 l 1
 201 1001 l 1
 0 1001 l 1
0 1202 m 1
 0 1398 l 1
 201 1398 l 1
 201 1202 l 1
 0 1202 l 1
EndSplineSet
Validated: 5
EndChar

StartChar: three
Encoding: 25 51 23
Width: 1801
Flags: W
LayerCount: 2
Fore
SplineSet
1801 -198 m 1
 1801 -2 l 1
 1998 -2 l 1
 1998 -198 l 1
 1801 -198 l 1
1801 -2 m 1
 1801 199 l 1
 1998 199 l 1
 1998 -2 l 1
 1801 -2 l 1
1801 199 m 1
 1801 399 l 1
 1998 399 l 1
 1998 199 l 1
 1801 199 l 1
1801 399 m 1
 1801 600 l 1
 1998 600 l 1
 1998 399 l 1
 1801 399 l 1
1801 600 m 1
 1801 800 l 1
 1998 800 l 1
 1998 600 l 1
 1801 600 l 1
1801 800 m 1
 1801 1001 l 1
 1998 1001 l 1
 1998 800 l 1
 1801 800 l 1
1801 1001 m 1
 1801 1202 l 1
 1998 1202 l 1
 1998 1001 l 1
 1801 1001 l 1
1801 -198 m 1
 1801 -396 l 1
 1601 -396 l 1
 1601 -198 l 1
 1801 -198 l 1
1601 -198 m 1
 1601 -2 l 1
 1801 -2 l 1
 1801 -198 l 1
 1601 -198 l 1
1601 -2 m 1
 1601 199 l 1
 1801 199 l 1
 1801 -2 l 1
 1601 -2 l 1
1601 199 m 1
 1601 399 l 1
 1801 399 l 1
 1801 199 l 1
 1601 199 l 1
1601 399 m 1
 1601 600 l 1
 1801 600 l 1
 1801 399 l 1
 1601 399 l 1
1601 600 m 1
 1601 800 l 1
 1801 800 l 1
 1801 600 l 1
 1601 600 l 1
1601 800 m 1
 1601 1001 l 1
 1801 1001 l 1
 1801 800 l 1
 1601 800 l 1
1601 1001 m 1
 1601 1202 l 1
 1801 1202 l 1
 1801 1001 l 1
 1601 1001 l 1
1601 1202 m 1
 1601 1398 l 1
 1801 1398 l 1
 1801 1202 l 1
 1601 1202 l 1
1400 1398 m 1
 1400 1599 l 1
 1601 1599 l 1
 1601 1398 l 1
 1400 1398 l 1
1601 -198 m 1
 1601 -396 l 1
 1400 -396 l 1
 1400 -198 l 1
 1601 -198 l 1
1400 -198 m 1
 1400 -2 l 1
 1601 -2 l 1
 1601 -198 l 1
 1400 -198 l 1
1400 -2 m 1
 1400 199 l 1
 1601 199 l 1
 1601 -2 l 1
 1400 -2 l 1
1400 600 m 1
 1400 800 l 1
 1601 800 l 1
 1601 600 l 1
 1400 600 l 1
1400 1202 m 1
 1400 1398 l 1
 1601 1398 l 1
 1601 1202 l 1
 1400 1202 l 1
1200 1398 m 1
 1200 1599 l 1
 1400 1599 l 1
 1400 1398 l 1
 1200 1398 l 1
1400 -198 m 1
 1400 -396 l 1
 1200 -396 l 1
 1200 -198 l 1
 1400 -198 l 1
1200 -198 m 1
 1200 -2 l 1
 1400 -2 l 1
 1400 -198 l 1
 1200 -198 l 1
999 1398 m 1
 999 1599 l 1
 1200 1599 l 1
 1200 1398 l 1
 999 1398 l 1
1200 -198 m 1
 1200 -396 l 1
 999 -396 l 1
 999 -198 l 1
 1200 -198 l 1
999 -198 m 1
 999 -2 l 1
 1200 -2 l 1
 1200 -198 l 1
 999 -198 l 1
999 199 m 1
 999 399 l 1
 1200 399 l 1
 1200 199 l 1
 999 199 l 1
999 399 m 1
 999 600 l 1
 1200 600 l 1
 1200 399 l 1
 999 399 l 1
999 800 m 1
 999 1001 l 1
 1200 1001 l 1
 1200 800 l 1
 999 800 l 1
999 1001 m 1
 999 1202 l 1
 1200 1202 l 1
 1200 1001 l 1
 999 1001 l 1
798 1398 m 1
 798 1599 l 1
 999 1599 l 1
 999 1398 l 1
 798 1398 l 1
999 -198 m 1
 999 -396 l 1
 798 -396 l 1
 798 -198 l 1
 999 -198 l 1
798 -198 m 1
 798 -2 l 1
 999 -2 l 1
 999 -198 l 1
 798 -198 l 1
798 199 m 1
 798 399 l 1
 999 399 l 1
 999 199 l 1
 798 199 l 1
798 399 m 1
 798 600 l 1
 999 600 l 1
 999 399 l 1
 798 399 l 1
798 800 m 1
 798 1001 l 1
 999 1001 l 1
 999 800 l 1
 798 800 l 1
798 1001 m 1
 798 1202 l 1
 999 1202 l 1
 999 1001 l 1
 798 1001 l 1
602 1398 m 1
 602 1599 l 1
 798 1599 l 1
 798 1398 l 1
 602 1398 l 1
798 -198 m 1
 798 -396 l 1
 602 -396 l 1
 602 -198 l 1
 798 -198 l 1
602 -198 m 1
 602 -2 l 1
 798 -2 l 1
 798 -198 l 1
 602 -198 l 1
602 199 m 1
 602 399 l 1
 798 399 l 1
 798 199 l 1
 602 199 l 1
602 399 m 1
 602 600 l 1
 798 600 l 1
 798 399 l 1
 602 399 l 1
602 600 m 1
 602 800 l 1
 798 800 l 1
 798 600 l 1
 602 600 l 1
602 800 m 1
 602 1001 l 1
 798 1001 l 1
 798 800 l 1
 602 800 l 1
602 1001 m 1
 602 1202 l 1
 798 1202 l 1
 798 1001 l 1
 602 1001 l 1
401 1398 m 1
 401 1599 l 1
 602 1599 l 1
 602 1398 l 1
 401 1398 l 1
602 -198 m 1
 602 -396 l 1
 401 -396 l 1
 401 -198 l 1
 602 -198 l 1
401 -198 m 1
 401 -2 l 1
 602 -2 l 1
 602 -198 l 1
 401 -198 l 1
401 399 m 1
 401 600 l 1
 602 600 l 1
 602 399 l 1
 401 399 l 1
401 600 m 1
 401 800 l 1
 602 800 l 1
 602 600 l 1
 401 600 l 1
401 800 m 1
 401 1001 l 1
 602 1001 l 1
 602 800 l 1
 401 800 l 1
201 1398 m 1
 201 1599 l 1
 401 1599 l 1
 401 1398 l 1
 201 1398 l 1
201 -198 m 1
 201 -2 l 1
 401 -2 l 1
 401 -198 l 1
 201 -198 l 1
201 -2 m 1
 201 199 l 1
 401 199 l 1
 401 -2 l 1
 201 -2 l 1
201 399 m 1
 201 600 l 1
 401 600 l 1
 401 399 l 1
 201 399 l 1
201 600 m 1
 201 800 l 1
 401 800 l 1
 401 600 l 1
 201 600 l 1
201 800 m 1
 201 1001 l 1
 401 1001 l 1
 401 800 l 1
 201 800 l 1
201 1202 m 1
 201 1398 l 1
 401 1398 l 1
 401 1202 l 1
 201 1202 l 1
0 -2 m 1
 0 199 l 1
 201 199 l 1
 201 -2 l 1
 0 -2 l 1
0 199 m 1
 0 399 l 1
 201 399 l 1
 201 199 l 1
 0 199 l 1
0 399 m 1
 0 600 l 1
 201 600 l 1
 201 399 l 1
 0 399 l 1
0 800 m 1
 0 1001 l 1
 201 1001 l 1
 201 800 l 1
 0 800 l 1
0 1001 m 1
 0 1202 l 1
 201 1202 l 1
 201 1001 l 1
 0 1001 l 1
0 1202 m 1
 0 1398 l 1
 201 1398 l 1
 201 1202 l 1
 0 1202 l 1
EndSplineSet
Validated: 5
EndChar

StartChar: four
Encoding: 26 52 24
Width: 1801
Flags: W
LayerCount: 2
Fore
SplineSet
1801 -198 m 1
 1801 -2 l 1
 1998 -2 l 1
 1998 -198 l 1
 1801 -198 l 1
1801 -2 m 1
 1801 199 l 1
 1998 199 l 1
 1998 -2 l 1
 1801 -2 l 1
1801 199 m 1
 1801 399 l 1
 1998 399 l 1
 1998 199 l 1
 1801 199 l 1
1801 -198 m 1
 1801 -396 l 1
 1601 -396 l 1
 1601 -198 l 1
 1801 -198 l 1
1601 -198 m 1
 1601 -2 l 1
 1801 -2 l 1
 1801 -198 l 1
 1601 -198 l 1
1601 -2 m 1
 1601 199 l 1
 1801 199 l 1
 1801 -2 l 1
 1601 -2 l 1
1601 199 m 1
 1601 399 l 1
 1801 399 l 1
 1801 199 l 1
 1601 199 l 1
1601 399 m 1
 1601 600 l 1
 1801 600 l 1
 1801 399 l 1
 1601 399 l 1
1601 600 m 1
 1601 800 l 1
 1801 800 l 1
 1801 600 l 1
 1601 600 l 1
1601 800 m 1
 1601 1001 l 1
 1801 1001 l 1
 1801 800 l 1
 1601 800 l 1
1601 1001 m 1
 1601 1202 l 1
 1801 1202 l 1
 1801 1001 l 1
 1601 1001 l 1
1601 1202 m 1
 1601 1398 l 1
 1801 1398 l 1
 1801 1202 l 1
 1601 1202 l 1
1400 1398 m 1
 1400 1599 l 1
 1601 1599 l 1
 1601 1398 l 1
 1400 1398 l 1
1601 -198 m 1
 1601 -396 l 1
 1400 -396 l 1
 1400 -198 l 1
 1601 -198 l 1
1400 -198 m 1
 1400 -2 l 1
 1601 -2 l 1
 1601 -198 l 1
 1400 -198 l 1
1400 -2 m 1
 1400 199 l 1
 1601 199 l 1
 1601 -2 l 1
 1400 -2 l 1
1400 399 m 1
 1400 600 l 1
 1601 600 l 1
 1601 399 l 1
 1400 399 l 1
1400 600 m 1
 1400 800 l 1
 1601 800 l 1
 1601 600 l 1
 1400 600 l 1
1400 800 m 1
 1400 1001 l 1
 1601 1001 l 1
 1601 800 l 1
 1400 800 l 1
1400 1001 m 1
 1400 1202 l 1
 1601 1202 l 1
 1601 1001 l 1
 1400 1001 l 1
1400 1202 m 1
 1400 1398 l 1
 1601 1398 l 1
 1601 1202 l 1
 1400 1202 l 1
1200 1398 m 1
 1200 1599 l 1
 1400 1599 l 1
 1400 1398 l 1
 1200 1398 l 1
1400 -198 m 1
 1400 -396 l 1
 1200 -396 l 1
 1200 -198 l 1
 1400 -198 l 1
1200 -198 m 1
 1200 -2 l 1
 1400 -2 l 1
 1400 -198 l 1
 1200 -198 l 1
999 1398 m 1
 999 1599 l 1
 1200 1599 l 1
 1200 1398 l 1
 999 1398 l 1
1200 -198 m 1
 1200 -396 l 1
 999 -396 l 1
 999 -198 l 1
 1200 -198 l 1
999 -198 m 1
 999 -2 l 1
 1200 -2 l 1
 1200 -198 l 1
 999 -198 l 1
798 1398 m 1
 798 1599 l 1
 999 1599 l 1
 999 1398 l 1
 798 1398 l 1
798 -198 m 1
 798 -2 l 1
 999 -2 l 1
 999 -198 l 1
 798 -198 l 1
798 -2 m 1
 798 199 l 1
 999 199 l 1
 999 -2 l 1
 798 -2 l 1
798 399 m 1
 798 600 l 1
 999 600 l 1
 999 399 l 1
 798 399 l 1
798 600 m 1
 798 800 l 1
 999 800 l 1
 999 600 l 1
 798 600 l 1
798 1202 m 1
 798 1398 l 1
 999 1398 l 1
 999 1202 l 1
 798 1202 l 1
602 -198 m 1
 602 -2 l 1
 798 -2 l 1
 798 -198 l 1
 602 -198 l 1
602 -2 m 1
 602 199 l 1
 798 199 l 1
 798 -2 l 1
 602 -2 l 1
602 399 m 1
 602 600 l 1
 798 600 l 1
 798 399 l 1
 602 399 l 1
602 1001 m 1
 602 1202 l 1
 798 1202 l 1
 798 1001 l 1
 602 1001 l 1
602 1202 m 1
 602 1398 l 1
 798 1398 l 1
 798 1202 l 1
 602 1202 l 1
401 -198 m 1
 401 -2 l 1
 602 -2 l 1
 602 -198 l 1
 401 -198 l 1
401 -2 m 1
 401 199 l 1
 602 199 l 1
 602 -2 l 1
 401 -2 l 1
401 800 m 1
 401 1001 l 1
 602 1001 l 1
 602 800 l 1
 401 800 l 1
401 1001 m 1
 401 1202 l 1
 602 1202 l 1
 602 1001 l 1
 401 1001 l 1
201 -198 m 1
 201 -2 l 1
 401 -2 l 1
 401 -198 l 1
 201 -198 l 1
201 -2 m 1
 201 199 l 1
 401 199 l 1
 401 -2 l 1
 201 -2 l 1
201 600 m 1
 201 800 l 1
 401 800 l 1
 401 600 l 1
 201 600 l 1
201 800 m 1
 201 1001 l 1
 401 1001 l 1
 401 800 l 1
 201 800 l 1
0 -2 m 1
 0 199 l 1
 201 199 l 1
 201 -2 l 1
 0 -2 l 1
0 199 m 1
 0 399 l 1
 201 399 l 1
 201 199 l 1
 0 199 l 1
0 399 m 1
 0 600 l 1
 201 600 l 1
 201 399 l 1
 0 399 l 1
0 600 m 1
 0 800 l 1
 201 800 l 1
 201 600 l 1
 0 600 l 1
EndSplineSet
Validated: 5
EndChar

StartChar: five
Encoding: 27 53 25
Width: 1801
Flags: W
LayerCount: 2
Fore
SplineSet
1801 -198 m 1
 1801 -2 l 1
 1998 -2 l 1
 1998 -198 l 1
 1801 -198 l 1
1801 -2 m 1
 1801 199 l 1
 1998 199 l 1
 1998 -2 l 1
 1801 -2 l 1
1801 199 m 1
 1801 399 l 1
 1998 399 l 1
 1998 199 l 1
 1801 199 l 1
1801 399 m 1
 1801 600 l 1
 1998 600 l 1
 1998 399 l 1
 1801 399 l 1
1801 600 m 1
 1801 800 l 1
 1998 800 l 1
 1998 600 l 1
 1801 600 l 1
1801 800 m 1
 1801 1001 l 1
 1998 1001 l 1
 1998 800 l 1
 1801 800 l 1
1801 1001 m 1
 1801 1202 l 1
 1998 1202 l 1
 1998 1001 l 1
 1801 1001 l 1
1801 1202 m 1
 1801 1398 l 1
 1998 1398 l 1
 1998 1202 l 1
 1801 1202 l 1
1801 1398 m 1
 1801 1599 l 1
 1998 1599 l 1
 1998 1398 l 1
 1801 1398 l 1
1601 1398 m 1
 1601 1599 l 1
 1801 1599 l 1
 1801 1398 l 1
 1601 1398 l 1
1801 -198 m 1
 1801 -396 l 1
 1601 -396 l 1
 1601 -198 l 1
 1801 -198 l 1
1601 -198 m 1
 1601 -2 l 1
 1801 -2 l 1
 1801 -198 l 1
 1601 -198 l 1
1601 -2 m 1
 1601 199 l 1
 1801 199 l 1
 1801 -2 l 1
 1601 -2 l 1
1601 199 m 1
 1601 399 l 1
 1801 399 l 1
 1801 199 l 1
 1601 199 l 1
1601 399 m 1
 1601 600 l 1
 1801 600 l 1
 1801 399 l 1
 1601 399 l 1
1601 600 m 1
 1601 800 l 1
 1801 800 l 1
 1801 600 l 1
 1601 600 l 1
1601 800 m 1
 1601 1001 l 1
 1801 1001 l 1
 1801 800 l 1
 1601 800 l 1
1601 1001 m 1
 1601 1202 l 1
 1801 1202 l 1
 1801 1001 l 1
 1601 1001 l 1
1601 1202 m 1
 1601 1398 l 1
 1801 1398 l 1
 1801 1202 l 1
 1601 1202 l 1
1400 1398 m 1
 1400 1599 l 1
 1601 1599 l 1
 1601 1398 l 1
 1400 1398 l 1
1601 -198 m 1
 1601 -396 l 1
 1400 -396 l 1
 1400 -198 l 1
 1601 -198 l 1
1400 -198 m 1
 1400 -2 l 1
 1601 -2 l 1
 1601 -198 l 1
 1400 -198 l 1
1400 -2 m 1
 1400 199 l 1
 1601 199 l 1
 1601 -2 l 1
 1400 -2 l 1
1400 800 m 1
 1400 1001 l 1
 1601 1001 l 1
 1601 800 l 1
 1400 800 l 1
1400 1001 m 1
 1400 1202 l 1
 1601 1202 l 1
 1601 1001 l 1
 1400 1001 l 1
1200 1398 m 1
 1200 1599 l 1
 1400 1599 l 1
 1400 1398 l 1
 1200 1398 l 1
1400 -198 m 1
 1400 -396 l 1
 1200 -396 l 1
 1200 -198 l 1
 1400 -198 l 1
1200 -198 m 1
 1200 -2 l 1
 1400 -2 l 1
 1400 -198 l 1
 1200 -198 l 1
1200 1001 m 1
 1200 1202 l 1
 1400 1202 l 1
 1400 1001 l 1
 1200 1001 l 1
999 1398 m 1
 999 1599 l 1
 1200 1599 l 1
 1200 1398 l 1
 999 1398 l 1
1200 -198 m 1
 1200 -396 l 1
 999 -396 l 1
 999 -198 l 1
 1200 -198 l 1
999 -198 m 1
 999 -2 l 1
 1200 -2 l 1
 1200 -198 l 1
 999 -198 l 1
999 199 m 1
 999 399 l 1
 1200 399 l 1
 1200 199 l 1
 999 199 l 1
999 399 m 1
 999 600 l 1
 1200 600 l 1
 1200 399 l 1
 999 399 l 1
999 600 m 1
 999 800 l 1
 1200 800 l 1
 1200 600 l 1
 999 600 l 1
999 1001 m 1
 999 1202 l 1
 1200 1202 l 1
 1200 1001 l 1
 999 1001 l 1
798 1398 m 1
 798 1599 l 1
 999 1599 l 1
 999 1398 l 1
 798 1398 l 1
999 -198 m 1
 999 -396 l 1
 798 -396 l 1
 798 -198 l 1
 999 -198 l 1
798 -198 m 1
 798 -2 l 1
 999 -2 l 1
 999 -198 l 1
 798 -198 l 1
798 199 m 1
 798 399 l 1
 999 399 l 1
 999 199 l 1
 798 199 l 1
798 399 m 1
 798 600 l 1
 999 600 l 1
 999 399 l 1
 798 399 l 1
798 600 m 1
 798 800 l 1
 999 800 l 1
 999 600 l 1
 798 600 l 1
798 1001 m 1
 798 1202 l 1
 999 1202 l 1
 999 1001 l 1
 798 1001 l 1
602 1398 m 1
 602 1599 l 1
 798 1599 l 1
 798 1398 l 1
 602 1398 l 1
798 -198 m 1
 798 -396 l 1
 602 -396 l 1
 602 -198 l 1
 798 -198 l 1
602 -198 m 1
 602 -2 l 1
 798 -2 l 1
 798 -198 l 1
 602 -198 l 1
602 199 m 1
 602 399 l 1
 798 399 l 1
 798 199 l 1
 602 199 l 1
602 399 m 1
 602 600 l 1
 798 600 l 1
 798 399 l 1
 602 399 l 1
602 600 m 1
 602 800 l 1
 798 800 l 1
 798 600 l 1
 602 600 l 1
602 1001 m 1
 602 1202 l 1
 798 1202 l 1
 798 1001 l 1
 602 1001 l 1
401 1398 m 1
 401 1599 l 1
 602 1599 l 1
 602 1398 l 1
 401 1398 l 1
602 -198 m 1
 602 -396 l 1
 401 -396 l 1
 401 -198 l 1
 602 -198 l 1
401 -198 m 1
 401 -2 l 1
 602 -2 l 1
 602 -198 l 1
 401 -198 l 1
401 399 m 1
 401 600 l 1
 602 600 l 1
 602 399 l 1
 401 399 l 1
401 600 m 1
 401 800 l 1
 602 800 l 1
 602 600 l 1
 401 600 l 1
201 1398 m 1
 201 1599 l 1
 401 1599 l 1
 401 1398 l 1
 201 1398 l 1
201 -198 m 1
 201 -2 l 1
 401 -2 l 1
 401 -198 l 1
 201 -198 l 1
201 -2 m 1
 201 199 l 1
 401 199 l 1
 401 -2 l 1
 201 -2 l 1
201 399 m 1
 201 600 l 1
 401 600 l 1
 401 399 l 1
 201 399 l 1
201 600 m 1
 201 800 l 1
 401 800 l 1
 401 600 l 1
 201 600 l 1
0 1398 m 1
 0 1599 l 1
 201 1599 l 1
 201 1398 l 1
 0 1398 l 1
0 -2 m 1
 0 199 l 1
 201 199 l 1
 201 -2 l 1
 0 -2 l 1
0 199 m 1
 0 399 l 1
 201 399 l 1
 201 199 l 1
 0 199 l 1
0 399 m 1
 0 600 l 1
 201 600 l 1
 201 399 l 1
 0 399 l 1
0 600 m 1
 0 800 l 1
 201 800 l 1
 201 600 l 1
 0 600 l 1
0 800 m 1
 0 1001 l 1
 201 1001 l 1
 201 800 l 1
 0 800 l 1
0 1001 m 1
 0 1202 l 1
 201 1202 l 1
 201 1001 l 1
 0 1001 l 1
0 1202 m 1
 0 1398 l 1
 201 1398 l 1
 201 1202 l 1
 0 1202 l 1
EndSplineSet
Validated: 5
EndChar

StartChar: six
Encoding: 28 54 26
Width: 1801
Flags: W
LayerCount: 2
Fore
SplineSet
1801 -198 m 1
 1801 -2 l 1
 1998 -2 l 1
 1998 -198 l 1
 1801 -198 l 1
1801 -2 m 1
 1801 199 l 1
 1998 199 l 1
 1998 -2 l 1
 1801 -2 l 1
1801 199 m 1
 1801 399 l 1
 1998 399 l 1
 1998 199 l 1
 1801 199 l 1
1801 399 m 1
 1801 600 l 1
 1998 600 l 1
 1998 399 l 1
 1801 399 l 1
1801 -198 m 1
 1801 -396 l 1
 1601 -396 l 1
 1601 -198 l 1
 1801 -198 l 1
1601 -198 m 1
 1601 -2 l 1
 1801 -2 l 1
 1801 -198 l 1
 1601 -198 l 1
1601 -2 m 1
 1601 199 l 1
 1801 199 l 1
 1801 -2 l 1
 1601 -2 l 1
1601 199 m 1
 1601 399 l 1
 1801 399 l 1
 1801 199 l 1
 1601 199 l 1
1601 399 m 1
 1601 600 l 1
 1801 600 l 1
 1801 399 l 1
 1601 399 l 1
1601 600 m 1
 1601 800 l 1
 1801 800 l 1
 1801 600 l 1
 1601 600 l 1
1601 -198 m 1
 1601 -396 l 1
 1400 -396 l 1
 1400 -198 l 1
 1601 -198 l 1
1400 -198 m 1
 1400 -2 l 1
 1601 -2 l 1
 1601 -198 l 1
 1400 -198 l 1
1400 -2 m 1
 1400 199 l 1
 1601 199 l 1
 1601 -2 l 1
 1400 -2 l 1
1400 600 m 1
 1400 800 l 1
 1601 800 l 1
 1601 600 l 1
 1400 600 l 1
1400 800 m 1
 1400 1001 l 1
 1601 1001 l 1
 1601 800 l 1
 1400 800 l 1
1400 1001 m 1
 1400 1202 l 1
 1601 1202 l 1
 1601 1001 l 1
 1400 1001 l 1
1400 1202 m 1
 1400 1398 l 1
 1601 1398 l 1
 1601 1202 l 1
 1400 1202 l 1
1200 1398 m 1
 1200 1599 l 1
 1400 1599 l 1
 1400 1398 l 1
 1200 1398 l 1
1400 -198 m 1
 1400 -396 l 1
 1200 -396 l 1
 1200 -198 l 1
 1400 -198 l 1
1200 -198 m 1
 1200 -2 l 1
 1400 -2 l 1
 1400 -198 l 1
 1200 -198 l 1
1200 800 m 1
 1200 1001 l 1
 1400 1001 l 1
 1400 800 l 1
 1200 800 l 1
1200 1001 m 1
 1200 1202 l 1
 1400 1202 l 1
 1400 1001 l 1
 1200 1001 l 1
1200 1202 m 1
 1200 1398 l 1
 1400 1398 l 1
 1400 1202 l 1
 1200 1202 l 1
999 1398 m 1
 999 1599 l 1
 1200 1599 l 1
 1200 1398 l 1
 999 1398 l 1
1200 -198 m 1
 1200 -396 l 1
 999 -396 l 1
 999 -198 l 1
 1200 -198 l 1
999 -198 m 1
 999 -2 l 1
 1200 -2 l 1
 1200 -198 l 1
 999 -198 l 1
999 199 m 1
 999 399 l 1
 1200 399 l 1
 1200 199 l 1
 999 199 l 1
999 399 m 1
 999 600 l 1
 1200 600 l 1
 1200 399 l 1
 999 399 l 1
999 800 m 1
 999 1001 l 1
 1200 1001 l 1
 1200 800 l 1
 999 800 l 1
999 1001 m 1
 999 1202 l 1
 1200 1202 l 1
 1200 1001 l 1
 999 1001 l 1
798 1398 m 1
 798 1599 l 1
 999 1599 l 1
 999 1398 l 1
 798 1398 l 1
999 -198 m 1
 999 -396 l 1
 798 -396 l 1
 798 -198 l 1
 999 -198 l 1
798 -198 m 1
 798 -2 l 1
 999 -2 l 1
 999 -198 l 1
 798 -198 l 1
798 199 m 1
 798 399 l 1
 999 399 l 1
 999 199 l 1
 798 199 l 1
798 399 m 1
 798 600 l 1
 999 600 l 1
 999 399 l 1
 798 399 l 1
798 800 m 1
 798 1001 l 1
 999 1001 l 1
 999 800 l 1
 798 800 l 1
798 1001 m 1
 798 1202 l 1
 999 1202 l 1
 999 1001 l 1
 798 1001 l 1
602 1398 m 1
 602 1599 l 1
 798 1599 l 1
 798 1398 l 1
 602 1398 l 1
798 -198 m 1
 798 -396 l 1
 602 -396 l 1
 602 -198 l 1
 798 -198 l 1
602 -198 m 1
 602 -2 l 1
 798 -2 l 1
 798 -198 l 1
 602 -198 l 1
602 199 m 1
 602 399 l 1
 798 399 l 1
 798 199 l 1
 602 199 l 1
602 399 m 1
 602 600 l 1
 798 600 l 1
 798 399 l 1
 602 399 l 1
602 800 m 1
 602 1001 l 1
 798 1001 l 1
 798 800 l 1
 602 800 l 1
401 1398 m 1
 401 1599 l 1
 602 1599 l 1
 602 1398 l 1
 401 1398 l 1
602 -198 m 1
 602 -396 l 1
 401 -396 l 1
 401 -198 l 1
 602 -198 l 1
401 -198 m 1
 401 -2 l 1
 602 -2 l 1
 602 -198 l 1
 401 -198 l 1
401 1202 m 1
 401 1398 l 1
 602 1398 l 1
 602 1202 l 1
 401 1202 l 1
201 -198 m 1
 201 -2 l 1
 401 -2 l 1
 401 -198 l 1
 201 -198 l 1
201 -2 m 1
 201 199 l 1
 401 199 l 1
 401 -2 l 1
 201 -2 l 1
201 1001 m 1
 201 1202 l 1
 401 1202 l 1
 401 1001 l 1
 201 1001 l 1
201 1202 m 1
 201 1398 l 1
 401 1398 l 1
 401 1202 l 1
 201 1202 l 1
0 -2 m 1
 0 199 l 1
 201 199 l 1
 201 -2 l 1
 0 -2 l 1
0 199 m 1
 0 399 l 1
 201 399 l 1
 201 199 l 1
 0 199 l 1
0 399 m 1
 0 600 l 1
 201 600 l 1
 201 399 l 1
 0 399 l 1
0 600 m 1
 0 800 l 1
 201 800 l 1
 201 600 l 1
 0 600 l 1
0 800 m 1
 0 1001 l 1
 201 1001 l 1
 201 800 l 1
 0 800 l 1
0 1001 m 1
 0 1202 l 1
 201 1202 l 1
 201 1001 l 1
 0 1001 l 1
EndSplineSet
Validated: 5
EndChar

StartChar: seven
Encoding: 29 55 27
Width: 1801
Flags: W
LayerCount: 2
Fore
SplineSet
1801 800 m 1
 1801 1001 l 1
 1998 1001 l 1
 1998 800 l 1
 1801 800 l 1
1801 1001 m 1
 1801 1202 l 1
 1998 1202 l 1
 1998 1001 l 1
 1801 1001 l 1
1801 1202 m 1
 1801 1398 l 1
 1998 1398 l 1
 1998 1202 l 1
 1801 1202 l 1
1601 1398 m 1
 1601 1599 l 1
 1801 1599 l 1
 1801 1398 l 1
 1601 1398 l 1
1601 399 m 1
 1601 600 l 1
 1801 600 l 1
 1801 399 l 1
 1601 399 l 1
1601 600 m 1
 1601 800 l 1
 1801 800 l 1
 1801 600 l 1
 1601 600 l 1
1601 800 m 1
 1601 1001 l 1
 1801 1001 l 1
 1801 800 l 1
 1601 800 l 1
1601 1001 m 1
 1601 1202 l 1
 1801 1202 l 1
 1801 1001 l 1
 1601 1001 l 1
1601 1202 m 1
 1601 1398 l 1
 1801 1398 l 1
 1801 1202 l 1
 1601 1202 l 1
1400 1398 m 1
 1400 1599 l 1
 1601 1599 l 1
 1601 1398 l 1
 1400 1398 l 1
1400 -2 m 1
 1400 199 l 1
 1601 199 l 1
 1601 -2 l 1
 1400 -2 l 1
1400 199 m 1
 1400 399 l 1
 1601 399 l 1
 1601 199 l 1
 1400 199 l 1
1400 399 m 1
 1400 600 l 1
 1601 600 l 1
 1601 399 l 1
 1400 399 l 1
1400 600 m 1
 1400 800 l 1
 1601 800 l 1
 1601 600 l 1
 1400 600 l 1
1400 800 m 1
 1400 1001 l 1
 1601 1001 l 1
 1601 800 l 1
 1400 800 l 1
1400 1001 m 1
 1400 1202 l 1
 1601 1202 l 1
 1601 1001 l 1
 1400 1001 l 1
1200 1398 m 1
 1200 1599 l 1
 1400 1599 l 1
 1400 1398 l 1
 1200 1398 l 1
1400 -198 m 1
 1400 -396 l 1
 1200 -396 l 1
 1200 -198 l 1
 1400 -198 l 1
1200 -198 m 1
 1200 -2 l 1
 1400 -2 l 1
 1400 -198 l 1
 1200 -198 l 1
1200 -2 m 1
 1200 199 l 1
 1400 199 l 1
 1400 -2 l 1
 1200 -2 l 1
1200 199 m 1
 1200 399 l 1
 1400 399 l 1
 1400 199 l 1
 1200 199 l 1
1200 399 m 1
 1200 600 l 1
 1400 600 l 1
 1400 399 l 1
 1200 399 l 1
1200 600 m 1
 1200 800 l 1
 1400 800 l 1
 1400 600 l 1
 1200 600 l 1
999 1398 m 1
 999 1599 l 1
 1200 1599 l 1
 1200 1398 l 1
 999 1398 l 1
1200 -198 m 1
 1200 -396 l 1
 999 -396 l 1
 999 -198 l 1
 1200 -198 l 1
999 -198 m 1
 999 -2 l 1
 1200 -2 l 1
 1200 -198 l 1
 999 -198 l 1
999 -2 m 1
 999 199 l 1
 1200 199 l 1
 1200 -2 l 1
 999 -2 l 1
999 199 m 1
 999 399 l 1
 1200 399 l 1
 1200 199 l 1
 999 199 l 1
798 1398 m 1
 798 1599 l 1
 999 1599 l 1
 999 1398 l 1
 798 1398 l 1
999 -198 m 1
 999 -396 l 1
 798 -396 l 1
 798 -198 l 1
 999 -198 l 1
798 -198 m 1
 798 -2 l 1
 999 -2 l 1
 999 -198 l 1
 798 -198 l 1
798 800 m 1
 798 1001 l 1
 999 1001 l 1
 999 800 l 1
 798 800 l 1
798 1001 m 1
 798 1202 l 1
 999 1202 l 1
 999 1001 l 1
 798 1001 l 1
602 1398 m 1
 602 1599 l 1
 798 1599 l 1
 798 1398 l 1
 602 1398 l 1
798 -198 m 1
 798 -396 l 1
 602 -396 l 1
 602 -198 l 1
 798 -198 l 1
602 -198 m 1
 602 -2 l 1
 798 -2 l 1
 798 -198 l 1
 602 -198 l 1
602 399 m 1
 602 600 l 1
 798 600 l 1
 798 399 l 1
 602 399 l 1
602 600 m 1
 602 800 l 1
 798 800 l 1
 798 600 l 1
 602 600 l 1
602 800 m 1
 602 1001 l 1
 798 1001 l 1
 798 800 l 1
 602 800 l 1
602 1001 m 1
 602 1202 l 1
 798 1202 l 1
 798 1001 l 1
 602 1001 l 1
401 1398 m 1
 401 1599 l 1
 602 1599 l 1
 602 1398 l 1
 401 1398 l 1
401 -198 m 1
 401 -2 l 1
 602 -2 l 1
 602 -198 l 1
 401 -198 l 1
401 -2 m 1
 401 199 l 1
 602 199 l 1
 602 -2 l 1
 401 -2 l 1
401 199 m 1
 401 399 l 1
 602 399 l 1
 602 199 l 1
 401 199 l 1
401 399 m 1
 401 600 l 1
 602 600 l 1
 602 399 l 1
 401 399 l 1
401 800 m 1
 401 1001 l 1
 602 1001 l 1
 602 800 l 1
 401 800 l 1
401 1001 m 1
 401 1202 l 1
 602 1202 l 1
 602 1001 l 1
 401 1001 l 1
201 1398 m 1
 201 1599 l 1
 401 1599 l 1
 401 1398 l 1
 201 1398 l 1
201 800 m 1
 201 1001 l 1
 401 1001 l 1
 401 800 l 1
 201 800 l 1
201 1001 m 1
 201 1202 l 1
 401 1202 l 1
 401 1001 l 1
 201 1001 l 1
0 1398 m 1
 0 1599 l 1
 201 1599 l 1
 201 1398 l 1
 0 1398 l 1
0 1001 m 1
 0 1202 l 1
 201 1202 l 1
 201 1001 l 1
 0 1001 l 1
0 1202 m 1
 0 1398 l 1
 201 1398 l 1
 201 1202 l 1
 0 1202 l 1
EndSplineSet
Validated: 5
EndChar

StartChar: eight
Encoding: 30 56 28
Width: 1801
Flags: W
LayerCount: 2
Fore
SplineSet
1801 -198 m 1
 1801 -2 l 1
 1998 -2 l 1
 1998 -198 l 1
 1801 -198 l 1
1801 -2 m 1
 1801 199 l 1
 1998 199 l 1
 1998 -2 l 1
 1801 -2 l 1
1801 199 m 1
 1801 399 l 1
 1998 399 l 1
 1998 199 l 1
 1801 199 l 1
1801 399 m 1
 1801 600 l 1
 1998 600 l 1
 1998 399 l 1
 1801 399 l 1
1801 600 m 1
 1801 800 l 1
 1998 800 l 1
 1998 600 l 1
 1801 600 l 1
1801 800 m 1
 1801 1001 l 1
 1998 1001 l 1
 1998 800 l 1
 1801 800 l 1
1801 1001 m 1
 1801 1202 l 1
 1998 1202 l 1
 1998 1001 l 1
 1801 1001 l 1
1801 -198 m 1
 1801 -396 l 1
 1601 -396 l 1
 1601 -198 l 1
 1801 -198 l 1
1601 -198 m 1
 1601 -2 l 1
 1801 -2 l 1
 1801 -198 l 1
 1601 -198 l 1
1601 -2 m 1
 1601 199 l 1
 1801 199 l 1
 1801 -2 l 1
 1601 -2 l 1
1601 199 m 1
 1601 399 l 1
 1801 399 l 1
 1801 199 l 1
 1601 199 l 1
1601 399 m 1
 1601 600 l 1
 1801 600 l 1
 1801 399 l 1
 1601 399 l 1
1601 600 m 1
 1601 800 l 1
 1801 800 l 1
 1801 600 l 1
 1601 600 l 1
1601 800 m 1
 1601 1001 l 1
 1801 1001 l 1
 1801 800 l 1
 1601 800 l 1
1601 1001 m 1
 1601 1202 l 1
 1801 1202 l 1
 1801 1001 l 1
 1601 1001 l 1
1601 1202 m 1
 1601 1398 l 1
 1801 1398 l 1
 1801 1202 l 1
 1601 1202 l 1
1400 1398 m 1
 1400 1599 l 1
 1601 1599 l 1
 1601 1398 l 1
 1400 1398 l 1
1601 -198 m 1
 1601 -396 l 1
 1400 -396 l 1
 1400 -198 l 1
 1601 -198 l 1
1400 -198 m 1
 1400 -2 l 1
 1601 -2 l 1
 1601 -198 l 1
 1400 -198 l 1
1400 -2 m 1
 1400 199 l 1
 1601 199 l 1
 1601 -2 l 1
 1400 -2 l 1
1400 600 m 1
 1400 800 l 1
 1601 800 l 1
 1601 600 l 1
 1400 600 l 1
1400 1202 m 1
 1400 1398 l 1
 1601 1398 l 1
 1601 1202 l 1
 1400 1202 l 1
1200 1398 m 1
 1200 1599 l 1
 1400 1599 l 1
 1400 1398 l 1
 1200 1398 l 1
1400 -198 m 1
 1400 -396 l 1
 1200 -396 l 1
 1200 -198 l 1
 1400 -198 l 1
1200 -198 m 1
 1200 -2 l 1
 1400 -2 l 1
 1400 -198 l 1
 1200 -198 l 1
999 1398 m 1
 999 1599 l 1
 1200 1599 l 1
 1200 1398 l 1
 999 1398 l 1
1200 -198 m 1
 1200 -396 l 1
 999 -396 l 1
 999 -198 l 1
 1200 -198 l 1
999 -198 m 1
 999 -2 l 1
 1200 -2 l 1
 1200 -198 l 1
 999 -198 l 1
999 199 m 1
 999 399 l 1
 1200 399 l 1
 1200 199 l 1
 999 199 l 1
999 800 m 1
 999 1001 l 1
 1200 1001 l 1
 1200 800 l 1
 999 800 l 1
999 1001 m 1
 999 1202 l 1
 1200 1202 l 1
 1200 1001 l 1
 999 1001 l 1
798 1398 m 1
 798 1599 l 1
 999 1599 l 1
 999 1398 l 1
 798 1398 l 1
999 -198 m 1
 999 -396 l 1
 798 -396 l 1
 798 -198 l 1
 999 -198 l 1
798 -198 m 1
 798 -2 l 1
 999 -2 l 1
 999 -198 l 1
 798 -198 l 1
798 199 m 1
 798 399 l 1
 999 399 l 1
 999 199 l 1
 798 199 l 1
798 399 m 1
 798 600 l 1
 999 600 l 1
 999 399 l 1
 798 399 l 1
798 800 m 1
 798 1001 l 1
 999 1001 l 1
 999 800 l 1
 798 800 l 1
798 1001 m 1
 798 1202 l 1
 999 1202 l 1
 999 1001 l 1
 798 1001 l 1
602 1398 m 1
 602 1599 l 1
 798 1599 l 1
 798 1398 l 1
 602 1398 l 1
798 -198 m 1
 798 -396 l 1
 602 -396 l 1
 602 -198 l 1
 798 -198 l 1
602 -198 m 1
 602 -2 l 1
 798 -2 l 1
 798 -198 l 1
 602 -198 l 1
602 199 m 1
 602 399 l 1
 798 399 l 1
 798 199 l 1
 602 199 l 1
602 399 m 1
 602 600 l 1
 798 600 l 1
 798 399 l 1
 602 399 l 1
602 1001 m 1
 602 1202 l 1
 798 1202 l 1
 798 1001 l 1
 602 1001 l 1
401 1398 m 1
 401 1599 l 1
 602 1599 l 1
 602 1398 l 1
 401 1398 l 1
602 -198 m 1
 602 -396 l 1
 401 -396 l 1
 401 -198 l 1
 602 -198 l 1
401 -198 m 1
 401 -2 l 1
 602 -2 l 1
 602 -198 l 1
 401 -198 l 1
201 1398 m 1
 201 1599 l 1
 401 1599 l 1
 401 1398 l 1
 201 1398 l 1
201 -198 m 1
 201 -2 l 1
 401 -2 l 1
 401 -198 l 1
 201 -198 l 1
201 -2 m 1
 201 199 l 1
 401 199 l 1
 401 -2 l 1
 201 -2 l 1
201 600 m 1
 201 800 l 1
 401 800 l 1
 401 600 l 1
 201 600 l 1
201 1202 m 1
 201 1398 l 1
 401 1398 l 1
 401 1202 l 1
 201 1202 l 1
0 -2 m 1
 0 199 l 1
 201 199 l 1
 201 -2 l 1
 0 -2 l 1
0 199 m 1
 0 399 l 1
 201 399 l 1
 201 199 l 1
 0 199 l 1
0 399 m 1
 0 600 l 1
 201 600 l 1
 201 399 l 1
 0 399 l 1
0 600 m 1
 0 800 l 1
 201 800 l 1
 201 600 l 1
 0 600 l 1
0 800 m 1
 0 1001 l 1
 201 1001 l 1
 201 800 l 1
 0 800 l 1
0 1001 m 1
 0 1202 l 1
 201 1202 l 1
 201 1001 l 1
 0 1001 l 1
0 1202 m 1
 0 1398 l 1
 201 1398 l 1
 201 1202 l 1
 0 1202 l 1
EndSplineSet
Validated: 5
EndChar

StartChar: nine
Encoding: 31 57 29
Width: 1801
Flags: W
LayerCount: 2
Fore
SplineSet
1801 -2 m 1
 1801 199 l 1
 1998 199 l 1
 1998 -2 l 1
 1801 -2 l 1
1801 199 m 1
 1801 399 l 1
 1998 399 l 1
 1998 199 l 1
 1801 199 l 1
1801 399 m 1
 1801 600 l 1
 1998 600 l 1
 1998 399 l 1
 1801 399 l 1
1801 600 m 1
 1801 800 l 1
 1998 800 l 1
 1998 600 l 1
 1801 600 l 1
1801 800 m 1
 1801 1001 l 1
 1998 1001 l 1
 1998 800 l 1
 1801 800 l 1
1801 1001 m 1
 1801 1202 l 1
 1998 1202 l 1
 1998 1001 l 1
 1801 1001 l 1
1601 -198 m 1
 1601 -2 l 1
 1801 -2 l 1
 1801 -198 l 1
 1601 -198 l 1
1601 -2 m 1
 1601 199 l 1
 1801 199 l 1
 1801 -2 l 1
 1601 -2 l 1
1601 199 m 1
 1601 399 l 1
 1801 399 l 1
 1801 199 l 1
 1601 199 l 1
1601 399 m 1
 1601 600 l 1
 1801 600 l 1
 1801 399 l 1
 1601 399 l 1
1601 600 m 1
 1601 800 l 1
 1801 800 l 1
 1801 600 l 1
 1601 600 l 1
1601 800 m 1
 1601 1001 l 1
 1801 1001 l 1
 1801 800 l 1
 1601 800 l 1
1601 1001 m 1
 1601 1202 l 1
 1801 1202 l 1
 1801 1001 l 1
 1601 1001 l 1
1601 1202 m 1
 1601 1398 l 1
 1801 1398 l 1
 1801 1202 l 1
 1601 1202 l 1
1400 1398 m 1
 1400 1599 l 1
 1601 1599 l 1
 1601 1398 l 1
 1400 1398 l 1
1601 -198 m 1
 1601 -396 l 1
 1400 -396 l 1
 1400 -198 l 1
 1601 -198 l 1
1400 -198 m 1
 1400 -2 l 1
 1601 -2 l 1
 1601 -198 l 1
 1400 -198 l 1
1400 -2 m 1
 1400 199 l 1
 1601 199 l 1
 1601 -2 l 1
 1400 -2 l 1
1400 199 m 1
 1400 399 l 1
 1601 399 l 1
 1601 199 l 1
 1400 199 l 1
1400 1202 m 1
 1400 1398 l 1
 1601 1398 l 1
 1601 1202 l 1
 1400 1202 l 1
1200 1398 m 1
 1200 1599 l 1
 1400 1599 l 1
 1400 1398 l 1
 1200 1398 l 1
1400 -198 m 1
 1400 -396 l 1
 1200 -396 l 1
 1200 -198 l 1
 1400 -198 l 1
1200 -198 m 1
 1200 -2 l 1
 1400 -2 l 1
 1400 -198 l 1
 1200 -198 l 1
1200 -2 m 1
 1200 199 l 1
 1400 199 l 1
 1400 -2 l 1
 1200 -2 l 1
999 1398 m 1
 999 1599 l 1
 1200 1599 l 1
 1200 1398 l 1
 999 1398 l 1
1200 -198 m 1
 1200 -396 l 1
 999 -396 l 1
 999 -198 l 1
 1200 -198 l 1
999 -198 m 1
 999 -2 l 1
 1200 -2 l 1
 1200 -198 l 1
 999 -198 l 1
999 399 m 1
 999 600 l 1
 1200 600 l 1
 1200 399 l 1
 999 399 l 1
999 800 m 1
 999 1001 l 1
 1200 1001 l 1
 1200 800 l 1
 999 800 l 1
999 1001 m 1
 999 1202 l 1
 1200 1202 l 1
 1200 1001 l 1
 999 1001 l 1
798 1398 m 1
 798 1599 l 1
 999 1599 l 1
 999 1398 l 1
 798 1398 l 1
999 -198 m 1
 999 -396 l 1
 798 -396 l 1
 798 -198 l 1
 999 -198 l 1
798 -198 m 1
 798 -2 l 1
 999 -2 l 1
 999 -198 l 1
 798 -198 l 1
798 199 m 1
 798 399 l 1
 999 399 l 1
 999 199 l 1
 798 199 l 1
798 399 m 1
 798 600 l 1
 999 600 l 1
 999 399 l 1
 798 399 l 1
798 800 m 1
 798 1001 l 1
 999 1001 l 1
 999 800 l 1
 798 800 l 1
798 1001 m 1
 798 1202 l 1
 999 1202 l 1
 999 1001 l 1
 798 1001 l 1
602 1398 m 1
 602 1599 l 1
 798 1599 l 1
 798 1398 l 1
 602 1398 l 1
798 -198 m 1
 798 -396 l 1
 602 -396 l 1
 602 -198 l 1
 798 -198 l 1
602 -198 m 1
 602 -2 l 1
 798 -2 l 1
 798 -198 l 1
 602 -198 l 1
602 199 m 1
 602 399 l 1
 798 399 l 1
 798 199 l 1
 602 199 l 1
602 399 m 1
 602 600 l 1
 798 600 l 1
 798 399 l 1
 602 399 l 1
602 800 m 1
 602 1001 l 1
 798 1001 l 1
 798 800 l 1
 602 800 l 1
602 1001 m 1
 602 1202 l 1
 798 1202 l 1
 798 1001 l 1
 602 1001 l 1
401 1398 m 1
 401 1599 l 1
 602 1599 l 1
 602 1398 l 1
 401 1398 l 1
401 -198 m 1
 401 -2 l 1
 602 -2 l 1
 602 -198 l 1
 401 -198 l 1
401 -2 m 1
 401 199 l 1
 602 199 l 1
 602 -2 l 1
 401 -2 l 1
401 199 m 1
 401 399 l 1
 602 399 l 1
 602 199 l 1
 401 199 l 1
401 399 m 1
 401 600 l 1
 602 600 l 1
 602 399 l 1
 401 399 l 1
201 1398 m 1
 201 1599 l 1
 401 1599 l 1
 401 1398 l 1
 201 1398 l 1
201 399 m 1
 201 600 l 1
 401 600 l 1
 401 399 l 1
 201 399 l 1
201 600 m 1
 201 800 l 1
 401 800 l 1
 401 600 l 1
 201 600 l 1
201 1202 m 1
 201 1398 l 1
 401 1398 l 1
 401 1202 l 1
 201 1202 l 1
0 600 m 1
 0 800 l 1
 201 800 l 1
 201 600 l 1
 0 600 l 1
0 800 m 1
 0 1001 l 1
 201 1001 l 1
 201 800 l 1
 0 800 l 1
0 1001 m 1
 0 1202 l 1
 201 1202 l 1
 201 1001 l 1
 0 1001 l 1
0 1202 m 1
 0 1398 l 1
 201 1398 l 1
 201 1202 l 1
 0 1202 l 1
EndSplineSet
Validated: 5
EndChar

StartChar: question
Encoding: 38 63 36
Width: 1801
Flags: W
LayerCount: 2
Fore
SplineSet
1801 399 m 1
 1801 600 l 1
 1998 600 l 1
 1998 399 l 1
 1801 399 l 1
1801 600 m 1
 1801 800 l 1
 1998 800 l 1
 1998 600 l 1
 1801 600 l 1
1801 800 m 1
 1801 1001 l 1
 1998 1001 l 1
 1998 800 l 1
 1801 800 l 1
1801 1001 m 1
 1801 1202 l 1
 1998 1202 l 1
 1998 1001 l 1
 1801 1001 l 1
1601 199 m 1
 1601 399 l 1
 1801 399 l 1
 1801 199 l 1
 1601 199 l 1
1601 399 m 1
 1601 600 l 1
 1801 600 l 1
 1801 399 l 1
 1601 399 l 1
1601 600 m 1
 1601 800 l 1
 1801 800 l 1
 1801 600 l 1
 1601 600 l 1
1601 800 m 1
 1601 1001 l 1
 1801 1001 l 1
 1801 800 l 1
 1601 800 l 1
1601 1001 m 1
 1601 1202 l 1
 1801 1202 l 1
 1801 1001 l 1
 1601 1001 l 1
1601 1202 m 1
 1601 1398 l 1
 1801 1398 l 1
 1801 1202 l 1
 1601 1202 l 1
1400 1398 m 1
 1400 1599 l 1
 1601 1599 l 1
 1601 1398 l 1
 1400 1398 l 1
1400 199 m 1
 1400 399 l 1
 1601 399 l 1
 1601 199 l 1
 1400 199 l 1
1400 399 m 1
 1400 600 l 1
 1601 600 l 1
 1601 399 l 1
 1400 399 l 1
1400 600 m 1
 1400 800 l 1
 1601 800 l 1
 1601 600 l 1
 1400 600 l 1
1400 1202 m 1
 1400 1398 l 1
 1601 1398 l 1
 1601 1202 l 1
 1400 1202 l 1
1200 1398 m 1
 1200 1599 l 1
 1400 1599 l 1
 1400 1398 l 1
 1200 1398 l 1
1400 -198 m 1
 1400 -396 l 1
 1200 -396 l 1
 1200 -198 l 1
 1400 -198 l 1
1200 -198 m 1
 1200 -2 l 1
 1400 -2 l 1
 1400 -198 l 1
 1200 -198 l 1
1200 -2 m 1
 1200 199 l 1
 1400 199 l 1
 1400 -2 l 1
 1200 -2 l 1
1200 199 m 1
 1200 399 l 1
 1400 399 l 1
 1400 199 l 1
 1200 199 l 1
1200 399 m 1
 1200 600 l 1
 1400 600 l 1
 1400 399 l 1
 1200 399 l 1
999 1398 m 1
 999 1599 l 1
 1200 1599 l 1
 1200 1398 l 1
 999 1398 l 1
1200 -198 m 1
 1200 -396 l 1
 999 -396 l 1
 999 -198 l 1
 1200 -198 l 1
999 -198 m 1
 999 -2 l 1
 1200 -2 l 1
 1200 -198 l 1
 999 -198 l 1
999 -2 m 1
 999 199 l 1
 1200 199 l 1
 1200 -2 l 1
 999 -2 l 1
999 199 m 1
 999 399 l 1
 1200 399 l 1
 1200 199 l 1
 999 199 l 1
999 399 m 1
 999 600 l 1
 1200 600 l 1
 1200 399 l 1
 999 399 l 1
999 800 m 1
 999 1001 l 1
 1200 1001 l 1
 1200 800 l 1
 999 800 l 1
999 1001 m 1
 999 1202 l 1
 1200 1202 l 1
 1200 1001 l 1
 999 1001 l 1
798 1398 m 1
 798 1599 l 1
 999 1599 l 1
 999 1398 l 1
 798 1398 l 1
999 -198 m 1
 999 -396 l 1
 798 -396 l 1
 798 -198 l 1
 999 -198 l 1
798 -198 m 1
 798 -2 l 1
 999 -2 l 1
 999 -198 l 1
 798 -198 l 1
798 199 m 1
 798 399 l 1
 999 399 l 1
 999 199 l 1
 798 199 l 1
798 800 m 1
 798 1001 l 1
 999 1001 l 1
 999 800 l 1
 798 800 l 1
798 1001 m 1
 798 1202 l 1
 999 1202 l 1
 999 1001 l 1
 798 1001 l 1
602 1398 m 1
 602 1599 l 1
 798 1599 l 1
 798 1398 l 1
 602 1398 l 1
798 -198 m 1
 798 -396 l 1
 602 -396 l 1
 602 -198 l 1
 798 -198 l 1
602 -198 m 1
 602 -2 l 1
 798 -2 l 1
 798 -198 l 1
 602 -198 l 1
602 199 m 1
 602 399 l 1
 798 399 l 1
 798 199 l 1
 602 199 l 1
602 600 m 1
 602 800 l 1
 798 800 l 1
 798 600 l 1
 602 600 l 1
602 800 m 1
 602 1001 l 1
 798 1001 l 1
 798 800 l 1
 602 800 l 1
602 1001 m 1
 602 1202 l 1
 798 1202 l 1
 798 1001 l 1
 602 1001 l 1
401 1398 m 1
 401 1599 l 1
 602 1599 l 1
 602 1398 l 1
 401 1398 l 1
401 -198 m 1
 401 -2 l 1
 602 -2 l 1
 602 -198 l 1
 401 -198 l 1
401 -2 m 1
 401 199 l 1
 602 199 l 1
 602 -2 l 1
 401 -2 l 1
401 199 m 1
 401 399 l 1
 602 399 l 1
 602 199 l 1
 401 199 l 1
401 399 m 1
 401 600 l 1
 602 600 l 1
 602 399 l 1
 401 399 l 1
401 600 m 1
 401 800 l 1
 602 800 l 1
 602 600 l 1
 401 600 l 1
401 800 m 1
 401 1001 l 1
 602 1001 l 1
 602 800 l 1
 401 800 l 1
201 1398 m 1
 201 1599 l 1
 401 1599 l 1
 401 1398 l 1
 201 1398 l 1
201 600 m 1
 201 800 l 1
 401 800 l 1
 401 600 l 1
 201 600 l 1
201 800 m 1
 201 1001 l 1
 401 1001 l 1
 401 800 l 1
 201 800 l 1
201 1202 m 1
 201 1398 l 1
 401 1398 l 1
 401 1202 l 1
 201 1202 l 1
0 800 m 1
 0 1001 l 1
 201 1001 l 1
 201 800 l 1
 0 800 l 1
0 1001 m 1
 0 1202 l 1
 201 1202 l 1
 201 1001 l 1
 0 1001 l 1
0 1202 m 1
 0 1398 l 1
 201 1398 l 1
 201 1202 l 1
 0 1202 l 1
EndSplineSet
Validated: 5
EndChar

StartChar: at
Encoding: 39 64 37
Width: 1801
Flags: W
LayerCount: 2
Fore
SplineSet
1998 -198 m 1
 1998 -396 l 1
 1801 -396 l 1
 1801 -198 l 1
 1998 -198 l 1
1801 -198 m 1
 1801 -2 l 1
 1998 -2 l 1
 1998 -198 l 1
 1801 -198 l 1
1801 -2 m 1
 1801 199 l 1
 1998 199 l 1
 1998 -2 l 1
 1801 -2 l 1
1801 199 m 1
 1801 399 l 1
 1998 399 l 1
 1998 199 l 1
 1801 199 l 1
1801 399 m 1
 1801 600 l 1
 1998 600 l 1
 1998 399 l 1
 1801 399 l 1
1801 600 m 1
 1801 800 l 1
 1998 800 l 1
 1998 600 l 1
 1801 600 l 1
1801 800 m 1
 1801 1001 l 1
 1998 1001 l 1
 1998 800 l 1
 1801 800 l 1
1801 1001 m 1
 1801 1202 l 1
 1998 1202 l 1
 1998 1001 l 1
 1801 1001 l 1
1801 1202 m 1
 1801 1398 l 1
 1998 1398 l 1
 1998 1202 l 1
 1801 1202 l 1
1801 1398 m 1
 1801 1599 l 1
 1998 1599 l 1
 1998 1398 l 1
 1801 1398 l 1
1601 1398 m 1
 1601 1599 l 1
 1801 1599 l 1
 1801 1398 l 1
 1601 1398 l 1
1801 -198 m 1
 1801 -396 l 1
 1601 -396 l 1
 1601 -198 l 1
 1801 -198 l 1
1601 -198 m 1
 1601 -2 l 1
 1801 -2 l 1
 1801 -198 l 1
 1601 -198 l 1
1601 -2 m 1
 1601 199 l 1
 1801 199 l 1
 1801 -2 l 1
 1601 -2 l 1
1601 199 m 1
 1601 399 l 1
 1801 399 l 1
 1801 199 l 1
 1601 199 l 1
1601 399 m 1
 1601 600 l 1
 1801 600 l 1
 1801 399 l 1
 1601 399 l 1
1601 600 m 1
 1601 800 l 1
 1801 800 l 1
 1801 600 l 1
 1601 600 l 1
1601 800 m 1
 1601 1001 l 1
 1801 1001 l 1
 1801 800 l 1
 1601 800 l 1
1601 1001 m 1
 1601 1202 l 1
 1801 1202 l 1
 1801 1001 l 1
 1601 1001 l 1
1601 1202 m 1
 1601 1398 l 1
 1801 1398 l 1
 1801 1202 l 1
 1601 1202 l 1
1400 1398 m 1
 1400 1599 l 1
 1601 1599 l 1
 1601 1398 l 1
 1400 1398 l 1
1601 -198 m 1
 1601 -396 l 1
 1400 -396 l 1
 1400 -198 l 1
 1601 -198 l 1
1400 -198 m 1
 1400 -2 l 1
 1601 -2 l 1
 1601 -198 l 1
 1400 -198 l 1
1400 -2 m 1
 1400 199 l 1
 1601 199 l 1
 1601 -2 l 1
 1400 -2 l 1
1400 199 m 1
 1400 399 l 1
 1601 399 l 1
 1601 199 l 1
 1400 199 l 1
1400 399 m 1
 1400 600 l 1
 1601 600 l 1
 1601 399 l 1
 1400 399 l 1
1400 600 m 1
 1400 800 l 1
 1601 800 l 1
 1601 600 l 1
 1400 600 l 1
1400 800 m 1
 1400 1001 l 1
 1601 1001 l 1
 1601 800 l 1
 1400 800 l 1
1400 1001 m 1
 1400 1202 l 1
 1601 1202 l 1
 1601 1001 l 1
 1400 1001 l 1
1400 1202 m 1
 1400 1398 l 1
 1601 1398 l 1
 1601 1202 l 1
 1400 1202 l 1
1200 1398 m 1
 1200 1599 l 1
 1400 1599 l 1
 1400 1398 l 1
 1200 1398 l 1
1400 -198 m 1
 1400 -396 l 1
 1200 -396 l 1
 1200 -198 l 1
 1400 -198 l 1
1200 -198 m 1
 1200 -2 l 1
 1400 -2 l 1
 1400 -198 l 1
 1200 -198 l 1
1200 -2 m 1
 1200 199 l 1
 1400 199 l 1
 1400 -2 l 1
 1200 -2 l 1
1200 199 m 1
 1200 399 l 1
 1400 399 l 1
 1400 199 l 1
 1200 199 l 1
1200 399 m 1
 1200 600 l 1
 1400 600 l 1
 1400 399 l 1
 1200 399 l 1
1200 600 m 1
 1200 800 l 1
 1400 800 l 1
 1400 600 l 1
 1200 600 l 1
1200 800 m 1
 1200 1001 l 1
 1400 1001 l 1
 1400 800 l 1
 1200 800 l 1
1200 1001 m 1
 1200 1202 l 1
 1400 1202 l 1
 1400 1001 l 1
 1200 1001 l 1
1200 1202 m 1
 1200 1398 l 1
 1400 1398 l 1
 1400 1202 l 1
 1200 1202 l 1
999 1398 m 1
 999 1599 l 1
 1200 1599 l 1
 1200 1398 l 1
 999 1398 l 1
1200 -198 m 1
 1200 -396 l 1
 999 -396 l 1
 999 -198 l 1
 1200 -198 l 1
999 -198 m 1
 999 -2 l 1
 1200 -2 l 1
 1200 -198 l 1
 999 -198 l 1
999 -2 m 1
 999 199 l 1
 1200 199 l 1
 1200 -2 l 1
 999 -2 l 1
999 199 m 1
 999 399 l 1
 1200 399 l 1
 1200 199 l 1
 999 199 l 1
999 399 m 1
 999 600 l 1
 1200 600 l 1
 1200 399 l 1
 999 399 l 1
999 600 m 1
 999 800 l 1
 1200 800 l 1
 1200 600 l 1
 999 600 l 1
999 800 m 1
 999 1001 l 1
 1200 1001 l 1
 1200 800 l 1
 999 800 l 1
999 1001 m 1
 999 1202 l 1
 1200 1202 l 1
 1200 1001 l 1
 999 1001 l 1
999 1202 m 1
 999 1398 l 1
 1200 1398 l 1
 1200 1202 l 1
 999 1202 l 1
798 1398 m 1
 798 1599 l 1
 999 1599 l 1
 999 1398 l 1
 798 1398 l 1
999 -198 m 1
 999 -396 l 1
 798 -396 l 1
 798 -198 l 1
 999 -198 l 1
798 -198 m 1
 798 -2 l 1
 999 -2 l 1
 999 -198 l 1
 798 -198 l 1
798 -2 m 1
 798 199 l 1
 999 199 l 1
 999 -2 l 1
 798 -2 l 1
798 199 m 1
 798 399 l 1
 999 399 l 1
 999 199 l 1
 798 199 l 1
798 399 m 1
 798 600 l 1
 999 600 l 1
 999 399 l 1
 798 399 l 1
798 600 m 1
 798 800 l 1
 999 800 l 1
 999 600 l 1
 798 600 l 1
798 800 m 1
 798 1001 l 1
 999 1001 l 1
 999 800 l 1
 798 800 l 1
798 1001 m 1
 798 1202 l 1
 999 1202 l 1
 999 1001 l 1
 798 1001 l 1
798 1202 m 1
 798 1398 l 1
 999 1398 l 1
 999 1202 l 1
 798 1202 l 1
602 1398 m 1
 602 1599 l 1
 798 1599 l 1
 798 1398 l 1
 602 1398 l 1
798 -198 m 1
 798 -396 l 1
 602 -396 l 1
 602 -198 l 1
 798 -198 l 1
602 -198 m 1
 602 -2 l 1
 798 -2 l 1
 798 -198 l 1
 602 -198 l 1
602 -2 m 1
 602 199 l 1
 798 199 l 1
 798 -2 l 1
 602 -2 l 1
602 199 m 1
 602 399 l 1
 798 399 l 1
 798 199 l 1
 602 199 l 1
602 399 m 1
 602 600 l 1
 798 600 l 1
 798 399 l 1
 602 399 l 1
602 600 m 1
 602 800 l 1
 798 800 l 1
 798 600 l 1
 602 600 l 1
602 800 m 1
 602 1001 l 1
 798 1001 l 1
 798 800 l 1
 602 800 l 1
602 1001 m 1
 602 1202 l 1
 798 1202 l 1
 798 1001 l 1
 602 1001 l 1
602 1202 m 1
 602 1398 l 1
 798 1398 l 1
 798 1202 l 1
 602 1202 l 1
401 1398 m 1
 401 1599 l 1
 602 1599 l 1
 602 1398 l 1
 401 1398 l 1
602 -198 m 1
 602 -396 l 1
 401 -396 l 1
 401 -198 l 1
 602 -198 l 1
401 -198 m 1
 401 -2 l 1
 602 -2 l 1
 602 -198 l 1
 401 -198 l 1
401 -2 m 1
 401 199 l 1
 602 199 l 1
 602 -2 l 1
 401 -2 l 1
401 199 m 1
 401 399 l 1
 602 399 l 1
 602 199 l 1
 401 199 l 1
401 399 m 1
 401 600 l 1
 602 600 l 1
 602 399 l 1
 401 399 l 1
401 600 m 1
 401 800 l 1
 602 800 l 1
 602 600 l 1
 401 600 l 1
401 800 m 1
 401 1001 l 1
 602 1001 l 1
 602 800 l 1
 401 800 l 1
401 1001 m 1
 401 1202 l 1
 602 1202 l 1
 602 1001 l 1
 401 1001 l 1
401 1202 m 1
 401 1398 l 1
 602 1398 l 1
 602 1202 l 1
 401 1202 l 1
201 1398 m 1
 201 1599 l 1
 401 1599 l 1
 401 1398 l 1
 201 1398 l 1
401 -198 m 1
 401 -396 l 1
 201 -396 l 1
 201 -198 l 1
 401 -198 l 1
201 -198 m 1
 201 -2 l 1
 401 -2 l 1
 401 -198 l 1
 201 -198 l 1
201 -2 m 1
 201 199 l 1
 401 199 l 1
 401 -2 l 1
 201 -2 l 1
201 199 m 1
 201 399 l 1
 401 399 l 1
 401 199 l 1
 201 199 l 1
201 399 m 1
 201 600 l 1
 401 600 l 1
 401 399 l 1
 201 399 l 1
201 600 m 1
 201 800 l 1
 401 800 l 1
 401 600 l 1
 201 600 l 1
201 800 m 1
 201 1001 l 1
 401 1001 l 1
 401 800 l 1
 201 800 l 1
201 1001 m 1
 201 1202 l 1
 401 1202 l 1
 401 1001 l 1
 201 1001 l 1
201 1202 m 1
 201 1398 l 1
 401 1398 l 1
 401 1202 l 1
 201 1202 l 1
0 1398 m 1
 0 1599 l 1
 201 1599 l 1
 201 1398 l 1
 0 1398 l 1
201 -198 m 1
 201 -396 l 1
 0 -396 l 1
 0 -198 l 1
 201 -198 l 1
0 -198 m 1
 0 -2 l 1
 201 -2 l 1
 201 -198 l 1
 0 -198 l 1
0 -2 m 1
 0 199 l 1
 201 199 l 1
 201 -2 l 1
 0 -2 l 1
0 199 m 1
 0 399 l 1
 201 399 l 1
 201 199 l 1
 0 199 l 1
0 399 m 1
 0 600 l 1
 201 600 l 1
 201 399 l 1
 0 399 l 1
0 600 m 1
 0 800 l 1
 201 800 l 1
 201 600 l 1
 0 600 l 1
0 800 m 1
 0 1001 l 1
 201 1001 l 1
 201 800 l 1
 0 800 l 1
0 1001 m 1
 0 1202 l 1
 201 1202 l 1
 201 1001 l 1
 0 1001 l 1
0 1202 m 1
 0 1398 l 1
 201 1398 l 1
 201 1202 l 1
 0 1202 l 1
EndSplineSet
Validated: 5
EndChar

StartChar: A
Encoding: 40 65 38
Width: 1801
Flags: W
LayerCount: 2
Fore
SplineSet
1998 -198 m 1
 1998 -396 l 1
 1801 -396 l 1
 1801 -198 l 1
 1998 -198 l 1
1801 -198 m 1
 1801 -2 l 1
 1998 -2 l 1
 1998 -198 l 1
 1801 -198 l 1
1801 -2 m 1
 1801 199 l 1
 1998 199 l 1
 1998 -2 l 1
 1801 -2 l 1
1801 199 m 1
 1801 399 l 1
 1998 399 l 1
 1998 199 l 1
 1801 199 l 1
1801 399 m 1
 1801 600 l 1
 1998 600 l 1
 1998 399 l 1
 1801 399 l 1
1801 600 m 1
 1801 800 l 1
 1998 800 l 1
 1998 600 l 1
 1801 600 l 1
1801 800 m 1
 1801 1001 l 1
 1998 1001 l 1
 1998 800 l 1
 1801 800 l 1
1801 1001 m 1
 1801 1202 l 1
 1998 1202 l 1
 1998 1001 l 1
 1801 1001 l 1
1801 -198 m 1
 1801 -396 l 1
 1601 -396 l 1
 1601 -198 l 1
 1801 -198 l 1
1601 -198 m 1
 1601 -2 l 1
 1801 -2 l 1
 1801 -198 l 1
 1601 -198 l 1
1601 -2 m 1
 1601 199 l 1
 1801 199 l 1
 1801 -2 l 1
 1601 -2 l 1
1601 199 m 1
 1601 399 l 1
 1801 399 l 1
 1801 199 l 1
 1601 199 l 1
1601 399 m 1
 1601 600 l 1
 1801 600 l 1
 1801 399 l 1
 1601 399 l 1
1601 600 m 1
 1601 800 l 1
 1801 800 l 1
 1801 600 l 1
 1601 600 l 1
1601 800 m 1
 1601 1001 l 1
 1801 1001 l 1
 1801 800 l 1
 1601 800 l 1
1601 1001 m 1
 1601 1202 l 1
 1801 1202 l 1
 1801 1001 l 1
 1601 1001 l 1
1601 1202 m 1
 1601 1398 l 1
 1801 1398 l 1
 1801 1202 l 1
 1601 1202 l 1
1400 1398 m 1
 1400 1599 l 1
 1601 1599 l 1
 1601 1398 l 1
 1400 1398 l 1
1601 -198 m 1
 1601 -396 l 1
 1400 -396 l 1
 1400 -198 l 1
 1601 -198 l 1
1400 -198 m 1
 1400 -2 l 1
 1601 -2 l 1
 1601 -198 l 1
 1400 -198 l 1
1400 1202 m 1
 1400 1398 l 1
 1601 1398 l 1
 1601 1202 l 1
 1400 1202 l 1
1200 1398 m 1
 1200 1599 l 1
 1400 1599 l 1
 1400 1398 l 1
 1200 1398 l 1
1400 -198 m 1
 1400 -396 l 1
 1200 -396 l 1
 1200 -198 l 1
 1400 -198 l 1
1200 -198 m 1
 1200 -2 l 1
 1400 -2 l 1
 1400 -198 l 1
 1200 -198 l 1
999 1398 m 1
 999 1599 l 1
 1200 1599 l 1
 1200 1398 l 1
 999 1398 l 1
999 -198 m 1
 999 -2 l 1
 1200 -2 l 1
 1200 -198 l 1
 999 -198 l 1
999 -2 m 1
 999 199 l 1
 1200 199 l 1
 1200 -2 l 1
 999 -2 l 1
999 199 m 1
 999 399 l 1
 1200 399 l 1
 1200 199 l 1
 999 199 l 1
999 600 m 1
 999 800 l 1
 1200 800 l 1
 1200 600 l 1
 999 600 l 1
999 800 m 1
 999 1001 l 1
 1200 1001 l 1
 1200 800 l 1
 999 800 l 1
999 1001 m 1
 999 1202 l 1
 1200 1202 l 1
 1200 1001 l 1
 999 1001 l 1
798 1398 m 1
 798 1599 l 1
 999 1599 l 1
 999 1398 l 1
 798 1398 l 1
999 -198 m 1
 999 -396 l 1
 798 -396 l 1
 798 -198 l 1
 999 -198 l 1
798 -198 m 1
 798 -2 l 1
 999 -2 l 1
 999 -198 l 1
 798 -198 l 1
798 -2 m 1
 798 199 l 1
 999 199 l 1
 999 -2 l 1
 798 -2 l 1
798 199 m 1
 798 399 l 1
 999 399 l 1
 999 199 l 1
 798 199 l 1
798 600 m 1
 798 800 l 1
 999 800 l 1
 999 600 l 1
 798 600 l 1
798 800 m 1
 798 1001 l 1
 999 1001 l 1
 999 800 l 1
 798 800 l 1
798 1001 m 1
 798 1202 l 1
 999 1202 l 1
 999 1001 l 1
 798 1001 l 1
602 1398 m 1
 602 1599 l 1
 798 1599 l 1
 798 1398 l 1
 602 1398 l 1
798 -198 m 1
 798 -396 l 1
 602 -396 l 1
 602 -198 l 1
 798 -198 l 1
602 -198 m 1
 602 -2 l 1
 798 -2 l 1
 798 -198 l 1
 602 -198 l 1
602 -2 m 1
 602 199 l 1
 798 199 l 1
 798 -2 l 1
 602 -2 l 1
602 199 m 1
 602 399 l 1
 798 399 l 1
 798 199 l 1
 602 199 l 1
602 600 m 1
 602 800 l 1
 798 800 l 1
 798 600 l 1
 602 600 l 1
602 800 m 1
 602 1001 l 1
 798 1001 l 1
 798 800 l 1
 602 800 l 1
602 1001 m 1
 602 1202 l 1
 798 1202 l 1
 798 1001 l 1
 602 1001 l 1
401 1398 m 1
 401 1599 l 1
 602 1599 l 1
 602 1398 l 1
 401 1398 l 1
602 -198 m 1
 602 -396 l 1
 401 -396 l 1
 401 -198 l 1
 602 -198 l 1
401 -198 m 1
 401 -2 l 1
 602 -2 l 1
 602 -198 l 1
 401 -198 l 1
201 1398 m 1
 201 1599 l 1
 401 1599 l 1
 401 1398 l 1
 201 1398 l 1
401 -198 m 1
 401 -396 l 1
 201 -396 l 1
 201 -198 l 1
 401 -198 l 1
201 -198 m 1
 201 -2 l 1
 401 -2 l 1
 401 -198 l 1
 201 -198 l 1
201 1202 m 1
 201 1398 l 1
 401 1398 l 1
 401 1202 l 1
 201 1202 l 1
0 -198 m 1
 0 -2 l 1
 201 -2 l 1
 201 -198 l 1
 0 -198 l 1
0 -2 m 1
 0 199 l 1
 201 199 l 1
 201 -2 l 1
 0 -2 l 1
0 199 m 1
 0 399 l 1
 201 399 l 1
 201 199 l 1
 0 199 l 1
0 399 m 1
 0 600 l 1
 201 600 l 1
 201 399 l 1
 0 399 l 1
0 600 m 1
 0 800 l 1
 201 800 l 1
 201 600 l 1
 0 600 l 1
0 800 m 1
 0 1001 l 1
 201 1001 l 1
 201 800 l 1
 0 800 l 1
0 1001 m 1
 0 1202 l 1
 201 1202 l 1
 201 1001 l 1
 0 1001 l 1
0 1202 m 1
 0 1398 l 1
 201 1398 l 1
 201 1202 l 1
 0 1202 l 1
EndSplineSet
Validated: 5
EndChar

StartChar: B
Encoding: 41 66 39
Width: 1801
Flags: W
LayerCount: 2
Fore
SplineSet
1801 -198 m 1
 1801 -2 l 1
 1998 -2 l 1
 1998 -198 l 1
 1801 -198 l 1
1801 -2 m 1
 1801 199 l 1
 1998 199 l 1
 1998 -2 l 1
 1801 -2 l 1
1801 199 m 1
 1801 399 l 1
 1998 399 l 1
 1998 199 l 1
 1801 199 l 1
1801 399 m 1
 1801 600 l 1
 1998 600 l 1
 1998 399 l 1
 1801 399 l 1
1801 600 m 1
 1801 800 l 1
 1998 800 l 1
 1998 600 l 1
 1801 600 l 1
1801 800 m 1
 1801 1001 l 1
 1998 1001 l 1
 1998 800 l 1
 1801 800 l 1
1801 1001 m 1
 1801 1202 l 1
 1998 1202 l 1
 1998 1001 l 1
 1801 1001 l 1
1801 -198 m 1
 1801 -396 l 1
 1601 -396 l 1
 1601 -198 l 1
 1801 -198 l 1
1601 -198 m 1
 1601 -2 l 1
 1801 -2 l 1
 1801 -198 l 1
 1601 -198 l 1
1601 -2 m 1
 1601 199 l 1
 1801 199 l 1
 1801 -2 l 1
 1601 -2 l 1
1601 199 m 1
 1601 399 l 1
 1801 399 l 1
 1801 199 l 1
 1601 199 l 1
1601 399 m 1
 1601 600 l 1
 1801 600 l 1
 1801 399 l 1
 1601 399 l 1
1601 600 m 1
 1601 800 l 1
 1801 800 l 1
 1801 600 l 1
 1601 600 l 1
1601 800 m 1
 1601 1001 l 1
 1801 1001 l 1
 1801 800 l 1
 1601 800 l 1
1601 1001 m 1
 1601 1202 l 1
 1801 1202 l 1
 1801 1001 l 1
 1601 1001 l 1
1601 1202 m 1
 1601 1398 l 1
 1801 1398 l 1
 1801 1202 l 1
 1601 1202 l 1
1400 1398 m 1
 1400 1599 l 1
 1601 1599 l 1
 1601 1398 l 1
 1400 1398 l 1
1601 -198 m 1
 1601 -396 l 1
 1400 -396 l 1
 1400 -198 l 1
 1601 -198 l 1
1400 -198 m 1
 1400 -2 l 1
 1601 -2 l 1
 1601 -198 l 1
 1400 -198 l 1
1400 -2 m 1
 1400 199 l 1
 1601 199 l 1
 1601 -2 l 1
 1400 -2 l 1
1400 600 m 1
 1400 800 l 1
 1601 800 l 1
 1601 600 l 1
 1400 600 l 1
1400 1202 m 1
 1400 1398 l 1
 1601 1398 l 1
 1601 1202 l 1
 1400 1202 l 1
1200 1398 m 1
 1200 1599 l 1
 1400 1599 l 1
 1400 1398 l 1
 1200 1398 l 1
1400 -198 m 1
 1400 -396 l 1
 1200 -396 l 1
 1200 -198 l 1
 1400 -198 l 1
1200 -198 m 1
 1200 -2 l 1
 1400 -2 l 1
 1400 -198 l 1
 1200 -198 l 1
999 1398 m 1
 999 1599 l 1
 1200 1599 l 1
 1200 1398 l 1
 999 1398 l 1
1200 -198 m 1
 1200 -396 l 1
 999 -396 l 1
 999 -198 l 1
 1200 -198 l 1
999 -198 m 1
 999 -2 l 1
 1200 -2 l 1
 1200 -198 l 1
 999 -198 l 1
999 199 m 1
 999 399 l 1
 1200 399 l 1
 1200 199 l 1
 999 199 l 1
999 399 m 1
 999 600 l 1
 1200 600 l 1
 1200 399 l 1
 999 399 l 1
999 800 m 1
 999 1001 l 1
 1200 1001 l 1
 1200 800 l 1
 999 800 l 1
999 1001 m 1
 999 1202 l 1
 1200 1202 l 1
 1200 1001 l 1
 999 1001 l 1
798 1398 m 1
 798 1599 l 1
 999 1599 l 1
 999 1398 l 1
 798 1398 l 1
999 -198 m 1
 999 -396 l 1
 798 -396 l 1
 798 -198 l 1
 999 -198 l 1
798 -198 m 1
 798 -2 l 1
 999 -2 l 1
 999 -198 l 1
 798 -198 l 1
798 199 m 1
 798 399 l 1
 999 399 l 1
 999 199 l 1
 798 199 l 1
798 399 m 1
 798 600 l 1
 999 600 l 1
 999 399 l 1
 798 399 l 1
798 800 m 1
 798 1001 l 1
 999 1001 l 1
 999 800 l 1
 798 800 l 1
798 1001 m 1
 798 1202 l 1
 999 1202 l 1
 999 1001 l 1
 798 1001 l 1
602 1398 m 1
 602 1599 l 1
 798 1599 l 1
 798 1398 l 1
 602 1398 l 1
798 -198 m 1
 798 -396 l 1
 602 -396 l 1
 602 -198 l 1
 798 -198 l 1
602 -198 m 1
 602 -2 l 1
 798 -2 l 1
 798 -198 l 1
 602 -198 l 1
602 199 m 1
 602 399 l 1
 798 399 l 1
 798 199 l 1
 602 199 l 1
602 399 m 1
 602 600 l 1
 798 600 l 1
 798 399 l 1
 602 399 l 1
602 800 m 1
 602 1001 l 1
 798 1001 l 1
 798 800 l 1
 602 800 l 1
602 1001 m 1
 602 1202 l 1
 798 1202 l 1
 798 1001 l 1
 602 1001 l 1
401 1398 m 1
 401 1599 l 1
 602 1599 l 1
 602 1398 l 1
 401 1398 l 1
602 -198 m 1
 602 -396 l 1
 401 -396 l 1
 401 -198 l 1
 602 -198 l 1
401 -198 m 1
 401 -2 l 1
 602 -2 l 1
 602 -198 l 1
 401 -198 l 1
201 1398 m 1
 201 1599 l 1
 401 1599 l 1
 401 1398 l 1
 201 1398 l 1
401 -198 m 1
 401 -396 l 1
 201 -396 l 1
 201 -198 l 1
 401 -198 l 1
201 -198 m 1
 201 -2 l 1
 401 -2 l 1
 401 -198 l 1
 201 -198 l 1
0 1398 m 1
 0 1599 l 1
 201 1599 l 1
 201 1398 l 1
 0 1398 l 1
0 -198 m 1
 0 -2 l 1
 201 -2 l 1
 201 -198 l 1
 0 -198 l 1
0 -2 m 1
 0 199 l 1
 201 199 l 1
 201 -2 l 1
 0 -2 l 1
0 199 m 1
 0 399 l 1
 201 399 l 1
 201 199 l 1
 0 199 l 1
0 399 m 1
 0 600 l 1
 201 600 l 1
 201 399 l 1
 0 399 l 1
0 600 m 1
 0 800 l 1
 201 800 l 1
 201 600 l 1
 0 600 l 1
0 800 m 1
 0 1001 l 1
 201 1001 l 1
 201 800 l 1
 0 800 l 1
0 1001 m 1
 0 1202 l 1
 201 1202 l 1
 201 1001 l 1
 0 1001 l 1
0 1202 m 1
 0 1398 l 1
 201 1398 l 1
 201 1202 l 1
 0 1202 l 1
EndSplineSet
Validated: 5
EndChar

StartChar: C
Encoding: 42 67 40
Width: 1801
Flags: W
LayerCount: 2
Fore
SplineSet
1801 -198 m 1
 1801 -2 l 1
 1998 -2 l 1
 1998 -198 l 1
 1801 -198 l 1
1801 -2 m 1
 1801 199 l 1
 1998 199 l 1
 1998 -2 l 1
 1801 -2 l 1
1801 199 m 1
 1801 399 l 1
 1998 399 l 1
 1998 199 l 1
 1801 199 l 1
1801 600 m 1
 1801 800 l 1
 1998 800 l 1
 1998 600 l 1
 1801 600 l 1
1801 800 m 1
 1801 1001 l 1
 1998 1001 l 1
 1998 800 l 1
 1801 800 l 1
1801 1001 m 1
 1801 1202 l 1
 1998 1202 l 1
 1998 1001 l 1
 1801 1001 l 1
1801 -198 m 1
 1801 -396 l 1
 1601 -396 l 1
 1601 -198 l 1
 1801 -198 l 1
1601 -198 m 1
 1601 -2 l 1
 1801 -2 l 1
 1801 -198 l 1
 1601 -198 l 1
1601 -2 m 1
 1601 199 l 1
 1801 199 l 1
 1801 -2 l 1
 1601 -2 l 1
1601 199 m 1
 1601 399 l 1
 1801 399 l 1
 1801 199 l 1
 1601 199 l 1
1601 399 m 1
 1601 600 l 1
 1801 600 l 1
 1801 399 l 1
 1601 399 l 1
1601 600 m 1
 1601 800 l 1
 1801 800 l 1
 1801 600 l 1
 1601 600 l 1
1601 800 m 1
 1601 1001 l 1
 1801 1001 l 1
 1801 800 l 1
 1601 800 l 1
1601 1001 m 1
 1601 1202 l 1
 1801 1202 l 1
 1801 1001 l 1
 1601 1001 l 1
1601 1202 m 1
 1601 1398 l 1
 1801 1398 l 1
 1801 1202 l 1
 1601 1202 l 1
1400 1398 m 1
 1400 1599 l 1
 1601 1599 l 1
 1601 1398 l 1
 1400 1398 l 1
1601 -198 m 1
 1601 -396 l 1
 1400 -396 l 1
 1400 -198 l 1
 1601 -198 l 1
1400 -198 m 1
 1400 -2 l 1
 1601 -2 l 1
 1601 -198 l 1
 1400 -198 l 1
1400 -2 m 1
 1400 199 l 1
 1601 199 l 1
 1601 -2 l 1
 1400 -2 l 1
1400 399 m 1
 1400 600 l 1
 1601 600 l 1
 1601 399 l 1
 1400 399 l 1
1400 600 m 1
 1400 800 l 1
 1601 800 l 1
 1601 600 l 1
 1400 600 l 1
1400 800 m 1
 1400 1001 l 1
 1601 1001 l 1
 1601 800 l 1
 1400 800 l 1
1400 1202 m 1
 1400 1398 l 1
 1601 1398 l 1
 1601 1202 l 1
 1400 1202 l 1
1200 1398 m 1
 1200 1599 l 1
 1400 1599 l 1
 1400 1398 l 1
 1200 1398 l 1
1400 -198 m 1
 1400 -396 l 1
 1200 -396 l 1
 1200 -198 l 1
 1400 -198 l 1
1200 -198 m 1
 1200 -2 l 1
 1400 -2 l 1
 1400 -198 l 1
 1200 -198 l 1
1200 399 m 1
 1200 600 l 1
 1400 600 l 1
 1400 399 l 1
 1200 399 l 1
1200 600 m 1
 1200 800 l 1
 1400 800 l 1
 1400 600 l 1
 1200 600 l 1
1200 800 m 1
 1200 1001 l 1
 1400 1001 l 1
 1400 800 l 1
 1200 800 l 1
999 1398 m 1
 999 1599 l 1
 1200 1599 l 1
 1200 1398 l 1
 999 1398 l 1
1200 -198 m 1
 1200 -396 l 1
 999 -396 l 1
 999 -198 l 1
 1200 -198 l 1
999 -198 m 1
 999 -2 l 1
 1200 -2 l 1
 1200 -198 l 1
 999 -198 l 1
999 199 m 1
 999 399 l 1
 1200 399 l 1
 1200 199 l 1
 999 199 l 1
999 399 m 1
 999 600 l 1
 1200 600 l 1
 1200 399 l 1
 999 399 l 1
999 600 m 1
 999 800 l 1
 1200 800 l 1
 1200 600 l 1
 999 600 l 1
999 800 m 1
 999 1001 l 1
 1200 1001 l 1
 1200 800 l 1
 999 800 l 1
999 1001 m 1
 999 1202 l 1
 1200 1202 l 1
 1200 1001 l 1
 999 1001 l 1
798 1398 m 1
 798 1599 l 1
 999 1599 l 1
 999 1398 l 1
 798 1398 l 1
999 -198 m 1
 999 -396 l 1
 798 -396 l 1
 798 -198 l 1
 999 -198 l 1
798 -198 m 1
 798 -2 l 1
 999 -2 l 1
 999 -198 l 1
 798 -198 l 1
798 199 m 1
 798 399 l 1
 999 399 l 1
 999 199 l 1
 798 199 l 1
798 399 m 1
 798 600 l 1
 999 600 l 1
 999 399 l 1
 798 399 l 1
798 600 m 1
 798 800 l 1
 999 800 l 1
 999 600 l 1
 798 600 l 1
798 800 m 1
 798 1001 l 1
 999 1001 l 1
 999 800 l 1
 798 800 l 1
798 1001 m 1
 798 1202 l 1
 999 1202 l 1
 999 1001 l 1
 798 1001 l 1
602 1398 m 1
 602 1599 l 1
 798 1599 l 1
 798 1398 l 1
 602 1398 l 1
798 -198 m 1
 798 -396 l 1
 602 -396 l 1
 602 -198 l 1
 798 -198 l 1
602 -198 m 1
 602 -2 l 1
 798 -2 l 1
 798 -198 l 1
 602 -198 l 1
602 199 m 1
 602 399 l 1
 798 399 l 1
 798 199 l 1
 602 199 l 1
602 399 m 1
 602 600 l 1
 798 600 l 1
 798 399 l 1
 602 399 l 1
602 600 m 1
 602 800 l 1
 798 800 l 1
 798 600 l 1
 602 600 l 1
602 800 m 1
 602 1001 l 1
 798 1001 l 1
 798 800 l 1
 602 800 l 1
602 1001 m 1
 602 1202 l 1
 798 1202 l 1
 798 1001 l 1
 602 1001 l 1
401 1398 m 1
 401 1599 l 1
 602 1599 l 1
 602 1398 l 1
 401 1398 l 1
602 -198 m 1
 602 -396 l 1
 401 -396 l 1
 401 -198 l 1
 602 -198 l 1
401 -198 m 1
 401 -2 l 1
 602 -2 l 1
 602 -198 l 1
 401 -198 l 1
201 1398 m 1
 201 1599 l 1
 401 1599 l 1
 401 1398 l 1
 201 1398 l 1
201 -198 m 1
 201 -2 l 1
 401 -2 l 1
 401 -198 l 1
 201 -198 l 1
201 -2 m 1
 201 199 l 1
 401 199 l 1
 401 -2 l 1
 201 -2 l 1
201 1202 m 1
 201 1398 l 1
 401 1398 l 1
 401 1202 l 1
 201 1202 l 1
0 -2 m 1
 0 199 l 1
 201 199 l 1
 201 -2 l 1
 0 -2 l 1
0 199 m 1
 0 399 l 1
 201 399 l 1
 201 199 l 1
 0 199 l 1
0 399 m 1
 0 600 l 1
 201 600 l 1
 201 399 l 1
 0 399 l 1
0 600 m 1
 0 800 l 1
 201 800 l 1
 201 600 l 1
 0 600 l 1
0 800 m 1
 0 1001 l 1
 201 1001 l 1
 201 800 l 1
 0 800 l 1
0 1001 m 1
 0 1202 l 1
 201 1202 l 1
 201 1001 l 1
 0 1001 l 1
0 1202 m 1
 0 1398 l 1
 201 1398 l 1
 201 1202 l 1
 0 1202 l 1
EndSplineSet
Validated: 5
EndChar

StartChar: D
Encoding: 43 68 41
Width: 1801
Flags: W
LayerCount: 2
Fore
SplineSet
1801 -2 m 1
 1801 199 l 1
 1998 199 l 1
 1998 -2 l 1
 1801 -2 l 1
1801 199 m 1
 1801 399 l 1
 1998 399 l 1
 1998 199 l 1
 1801 199 l 1
1801 399 m 1
 1801 600 l 1
 1998 600 l 1
 1998 399 l 1
 1801 399 l 1
1801 600 m 1
 1801 800 l 1
 1998 800 l 1
 1998 600 l 1
 1801 600 l 1
1801 800 m 1
 1801 1001 l 1
 1998 1001 l 1
 1998 800 l 1
 1801 800 l 1
1601 -198 m 1
 1601 -2 l 1
 1801 -2 l 1
 1801 -198 l 1
 1601 -198 l 1
1601 -2 m 1
 1601 199 l 1
 1801 199 l 1
 1801 -2 l 1
 1601 -2 l 1
1601 199 m 1
 1601 399 l 1
 1801 399 l 1
 1801 199 l 1
 1601 199 l 1
1601 399 m 1
 1601 600 l 1
 1801 600 l 1
 1801 399 l 1
 1601 399 l 1
1601 600 m 1
 1601 800 l 1
 1801 800 l 1
 1801 600 l 1
 1601 600 l 1
1601 800 m 1
 1601 1001 l 1
 1801 1001 l 1
 1801 800 l 1
 1601 800 l 1
1601 1001 m 1
 1601 1202 l 1
 1801 1202 l 1
 1801 1001 l 1
 1601 1001 l 1
1601 -198 m 1
 1601 -396 l 1
 1400 -396 l 1
 1400 -198 l 1
 1601 -198 l 1
1400 -198 m 1
 1400 -2 l 1
 1601 -2 l 1
 1601 -198 l 1
 1400 -198 l 1
1400 -2 m 1
 1400 199 l 1
 1601 199 l 1
 1601 -2 l 1
 1400 -2 l 1
1400 199 m 1
 1400 399 l 1
 1601 399 l 1
 1601 199 l 1
 1400 199 l 1
1400 1001 m 1
 1400 1202 l 1
 1601 1202 l 1
 1601 1001 l 1
 1400 1001 l 1
1400 1202 m 1
 1400 1398 l 1
 1601 1398 l 1
 1601 1202 l 1
 1400 1202 l 1
1200 1398 m 1
 1200 1599 l 1
 1400 1599 l 1
 1400 1398 l 1
 1200 1398 l 1
1400 -198 m 1
 1400 -396 l 1
 1200 -396 l 1
 1200 -198 l 1
 1400 -198 l 1
1200 -198 m 1
 1200 -2 l 1
 1400 -2 l 1
 1400 -198 l 1
 1200 -198 l 1
1200 -2 m 1
 1200 199 l 1
 1400 199 l 1
 1400 -2 l 1
 1200 -2 l 1
1200 1202 m 1
 1200 1398 l 1
 1400 1398 l 1
 1400 1202 l 1
 1200 1202 l 1
999 1398 m 1
 999 1599 l 1
 1200 1599 l 1
 1200 1398 l 1
 999 1398 l 1
1200 -198 m 1
 1200 -396 l 1
 999 -396 l 1
 999 -198 l 1
 1200 -198 l 1
999 -198 m 1
 999 -2 l 1
 1200 -2 l 1
 1200 -198 l 1
 999 -198 l 1
999 399 m 1
 999 600 l 1
 1200 600 l 1
 1200 399 l 1
 999 399 l 1
999 600 m 1
 999 800 l 1
 1200 800 l 1
 1200 600 l 1
 999 600 l 1
999 800 m 1
 999 1001 l 1
 1200 1001 l 1
 1200 800 l 1
 999 800 l 1
798 1398 m 1
 798 1599 l 1
 999 1599 l 1
 999 1398 l 1
 798 1398 l 1
999 -198 m 1
 999 -396 l 1
 798 -396 l 1
 798 -198 l 1
 999 -198 l 1
798 -198 m 1
 798 -2 l 1
 999 -2 l 1
 999 -198 l 1
 798 -198 l 1
798 199 m 1
 798 399 l 1
 999 399 l 1
 999 199 l 1
 798 199 l 1
798 399 m 1
 798 600 l 1
 999 600 l 1
 999 399 l 1
 798 399 l 1
798 600 m 1
 798 800 l 1
 999 800 l 1
 999 600 l 1
 798 600 l 1
798 800 m 1
 798 1001 l 1
 999 1001 l 1
 999 800 l 1
 798 800 l 1
798 1001 m 1
 798 1202 l 1
 999 1202 l 1
 999 1001 l 1
 798 1001 l 1
602 1398 m 1
 602 1599 l 1
 798 1599 l 1
 798 1398 l 1
 602 1398 l 1
798 -198 m 1
 798 -396 l 1
 602 -396 l 1
 602 -198 l 1
 798 -198 l 1
602 -198 m 1
 602 -2 l 1
 798 -2 l 1
 798 -198 l 1
 602 -198 l 1
602 199 m 1
 602 399 l 1
 798 399 l 1
 798 199 l 1
 602 199 l 1
602 399 m 1
 602 600 l 1
 798 600 l 1
 798 399 l 1
 602 399 l 1
602 600 m 1
 602 800 l 1
 798 800 l 1
 798 600 l 1
 602 600 l 1
602 800 m 1
 602 1001 l 1
 798 1001 l 1
 798 800 l 1
 602 800 l 1
602 1001 m 1
 602 1202 l 1
 798 1202 l 1
 798 1001 l 1
 602 1001 l 1
401 1398 m 1
 401 1599 l 1
 602 1599 l 1
 602 1398 l 1
 401 1398 l 1
602 -198 m 1
 602 -396 l 1
 401 -396 l 1
 401 -198 l 1
 602 -198 l 1
401 -198 m 1
 401 -2 l 1
 602 -2 l 1
 602 -198 l 1
 401 -198 l 1
201 1398 m 1
 201 1599 l 1
 401 1599 l 1
 401 1398 l 1
 201 1398 l 1
401 -198 m 1
 401 -396 l 1
 201 -396 l 1
 201 -198 l 1
 401 -198 l 1
201 -198 m 1
 201 -2 l 1
 401 -2 l 1
 401 -198 l 1
 201 -198 l 1
0 1398 m 1
 0 1599 l 1
 201 1599 l 1
 201 1398 l 1
 0 1398 l 1
0 -198 m 1
 0 -2 l 1
 201 -2 l 1
 201 -198 l 1
 0 -198 l 1
0 -2 m 1
 0 199 l 1
 201 199 l 1
 201 -2 l 1
 0 -2 l 1
0 199 m 1
 0 399 l 1
 201 399 l 1
 201 199 l 1
 0 199 l 1
0 399 m 1
 0 600 l 1
 201 600 l 1
 201 399 l 1
 0 399 l 1
0 600 m 1
 0 800 l 1
 201 800 l 1
 201 600 l 1
 0 600 l 1
0 800 m 1
 0 1001 l 1
 201 1001 l 1
 201 800 l 1
 0 800 l 1
0 1001 m 1
 0 1202 l 1
 201 1202 l 1
 201 1001 l 1
 0 1001 l 1
0 1202 m 1
 0 1398 l 1
 201 1398 l 1
 201 1202 l 1
 0 1202 l 1
EndSplineSet
Validated: 5
EndChar

StartChar: E
Encoding: 44 69 42
Width: 1801
Flags: W
LayerCount: 2
Fore
SplineSet
1998 -198 m 1
 1998 -396 l 1
 1801 -396 l 1
 1801 -198 l 1
 1998 -198 l 1
1801 -198 m 1
 1801 -2 l 1
 1998 -2 l 1
 1998 -198 l 1
 1801 -198 l 1
1801 -2 m 1
 1801 199 l 1
 1998 199 l 1
 1998 -2 l 1
 1801 -2 l 1
1801 800 m 1
 1801 1001 l 1
 1998 1001 l 1
 1998 800 l 1
 1801 800 l 1
1801 1001 m 1
 1801 1202 l 1
 1998 1202 l 1
 1998 1001 l 1
 1801 1001 l 1
1801 1202 m 1
 1801 1398 l 1
 1998 1398 l 1
 1998 1202 l 1
 1801 1202 l 1
1601 1398 m 1
 1601 1599 l 1
 1801 1599 l 1
 1801 1398 l 1
 1601 1398 l 1
1801 -198 m 1
 1801 -396 l 1
 1601 -396 l 1
 1601 -198 l 1
 1801 -198 l 1
1601 -198 m 1
 1601 -2 l 1
 1801 -2 l 1
 1801 -198 l 1
 1601 -198 l 1
1601 -2 m 1
 1601 199 l 1
 1801 199 l 1
 1801 -2 l 1
 1601 -2 l 1
1601 199 m 1
 1601 399 l 1
 1801 399 l 1
 1801 199 l 1
 1601 199 l 1
1601 399 m 1
 1601 600 l 1
 1801 600 l 1
 1801 399 l 1
 1601 399 l 1
1601 600 m 1
 1601 800 l 1
 1801 800 l 1
 1801 600 l 1
 1601 600 l 1
1601 800 m 1
 1601 1001 l 1
 1801 1001 l 1
 1801 800 l 1
 1601 800 l 1
1601 1001 m 1
 1601 1202 l 1
 1801 1202 l 1
 1801 1001 l 1
 1601 1001 l 1
1601 1202 m 1
 1601 1398 l 1
 1801 1398 l 1
 1801 1202 l 1
 1601 1202 l 1
1400 1398 m 1
 1400 1599 l 1
 1601 1599 l 1
 1601 1398 l 1
 1400 1398 l 1
1601 -198 m 1
 1601 -396 l 1
 1400 -396 l 1
 1400 -198 l 1
 1601 -198 l 1
1400 -198 m 1
 1400 -2 l 1
 1601 -2 l 1
 1601 -198 l 1
 1400 -198 l 1
1400 199 m 1
 1400 399 l 1
 1601 399 l 1
 1601 199 l 1
 1400 199 l 1
1400 399 m 1
 1400 600 l 1
 1601 600 l 1
 1601 399 l 1
 1400 399 l 1
1400 600 m 1
 1400 800 l 1
 1601 800 l 1
 1601 600 l 1
 1400 600 l 1
1400 800 m 1
 1400 1001 l 1
 1601 1001 l 1
 1601 800 l 1
 1400 800 l 1
1400 1001 m 1
 1400 1202 l 1
 1601 1202 l 1
 1601 1001 l 1
 1400 1001 l 1
1200 1398 m 1
 1200 1599 l 1
 1400 1599 l 1
 1400 1398 l 1
 1200 1398 l 1
1400 -198 m 1
 1400 -396 l 1
 1200 -396 l 1
 1200 -198 l 1
 1400 -198 l 1
1200 -198 m 1
 1200 -2 l 1
 1400 -2 l 1
 1400 -198 l 1
 1200 -198 l 1
1200 199 m 1
 1200 399 l 1
 1400 399 l 1
 1400 199 l 1
 1200 199 l 1
1200 399 m 1
 1200 600 l 1
 1400 600 l 1
 1400 399 l 1
 1200 399 l 1
1200 800 m 1
 1200 1001 l 1
 1400 1001 l 1
 1400 800 l 1
 1200 800 l 1
1200 1001 m 1
 1200 1202 l 1
 1400 1202 l 1
 1400 1001 l 1
 1200 1001 l 1
999 1398 m 1
 999 1599 l 1
 1200 1599 l 1
 1200 1398 l 1
 999 1398 l 1
1200 -198 m 1
 1200 -396 l 1
 999 -396 l 1
 999 -198 l 1
 1200 -198 l 1
999 -198 m 1
 999 -2 l 1
 1200 -2 l 1
 1200 -198 l 1
 999 -198 l 1
999 199 m 1
 999 399 l 1
 1200 399 l 1
 1200 199 l 1
 999 199 l 1
999 399 m 1
 999 600 l 1
 1200 600 l 1
 1200 399 l 1
 999 399 l 1
999 800 m 1
 999 1001 l 1
 1200 1001 l 1
 1200 800 l 1
 999 800 l 1
999 1001 m 1
 999 1202 l 1
 1200 1202 l 1
 1200 1001 l 1
 999 1001 l 1
798 1398 m 1
 798 1599 l 1
 999 1599 l 1
 999 1398 l 1
 798 1398 l 1
999 -198 m 1
 999 -396 l 1
 798 -396 l 1
 798 -198 l 1
 999 -198 l 1
798 -198 m 1
 798 -2 l 1
 999 -2 l 1
 999 -198 l 1
 798 -198 l 1
798 199 m 1
 798 399 l 1
 999 399 l 1
 999 199 l 1
 798 199 l 1
798 399 m 1
 798 600 l 1
 999 600 l 1
 999 399 l 1
 798 399 l 1
798 800 m 1
 798 1001 l 1
 999 1001 l 1
 999 800 l 1
 798 800 l 1
798 1001 m 1
 798 1202 l 1
 999 1202 l 1
 999 1001 l 1
 798 1001 l 1
602 1398 m 1
 602 1599 l 1
 798 1599 l 1
 798 1398 l 1
 602 1398 l 1
798 -198 m 1
 798 -396 l 1
 602 -396 l 1
 602 -198 l 1
 798 -198 l 1
602 -198 m 1
 602 -2 l 1
 798 -2 l 1
 798 -198 l 1
 602 -198 l 1
602 199 m 1
 602 399 l 1
 798 399 l 1
 798 199 l 1
 602 199 l 1
602 399 m 1
 602 600 l 1
 798 600 l 1
 798 399 l 1
 602 399 l 1
602 800 m 1
 602 1001 l 1
 798 1001 l 1
 798 800 l 1
 602 800 l 1
602 1001 m 1
 602 1202 l 1
 798 1202 l 1
 798 1001 l 1
 602 1001 l 1
401 1398 m 1
 401 1599 l 1
 602 1599 l 1
 602 1398 l 1
 401 1398 l 1
602 -198 m 1
 602 -396 l 1
 401 -396 l 1
 401 -198 l 1
 602 -198 l 1
401 -198 m 1
 401 -2 l 1
 602 -2 l 1
 602 -198 l 1
 401 -198 l 1
201 1398 m 1
 201 1599 l 1
 401 1599 l 1
 401 1398 l 1
 201 1398 l 1
401 -198 m 1
 401 -396 l 1
 201 -396 l 1
 201 -198 l 1
 401 -198 l 1
201 -198 m 1
 201 -2 l 1
 401 -2 l 1
 401 -198 l 1
 201 -198 l 1
0 1398 m 1
 0 1599 l 1
 201 1599 l 1
 201 1398 l 1
 0 1398 l 1
0 -198 m 1
 0 -2 l 1
 201 -2 l 1
 201 -198 l 1
 0 -198 l 1
0 -2 m 1
 0 199 l 1
 201 199 l 1
 201 -2 l 1
 0 -2 l 1
0 199 m 1
 0 399 l 1
 201 399 l 1
 201 199 l 1
 0 199 l 1
0 399 m 1
 0 600 l 1
 201 600 l 1
 201 399 l 1
 0 399 l 1
0 600 m 1
 0 800 l 1
 201 800 l 1
 201 600 l 1
 0 600 l 1
0 800 m 1
 0 1001 l 1
 201 1001 l 1
 201 800 l 1
 0 800 l 1
0 1001 m 1
 0 1202 l 1
 201 1202 l 1
 201 1001 l 1
 0 1001 l 1
0 1202 m 1
 0 1398 l 1
 201 1398 l 1
 201 1202 l 1
 0 1202 l 1
EndSplineSet
Validated: 5
EndChar

StartChar: F
Encoding: 45 70 43
Width: 1801
Flags: W
LayerCount: 2
Fore
SplineSet
1801 800 m 1
 1801 1001 l 1
 1998 1001 l 1
 1998 800 l 1
 1801 800 l 1
1801 1001 m 1
 1801 1202 l 1
 1998 1202 l 1
 1998 1001 l 1
 1801 1001 l 1
1801 1202 m 1
 1801 1398 l 1
 1998 1398 l 1
 1998 1202 l 1
 1801 1202 l 1
1601 1398 m 1
 1601 1599 l 1
 1801 1599 l 1
 1801 1398 l 1
 1601 1398 l 1
1601 199 m 1
 1601 399 l 1
 1801 399 l 1
 1801 199 l 1
 1601 199 l 1
1601 399 m 1
 1601 600 l 1
 1801 600 l 1
 1801 399 l 1
 1601 399 l 1
1601 600 m 1
 1601 800 l 1
 1801 800 l 1
 1801 600 l 1
 1601 600 l 1
1601 800 m 1
 1601 1001 l 1
 1801 1001 l 1
 1801 800 l 1
 1601 800 l 1
1601 1001 m 1
 1601 1202 l 1
 1801 1202 l 1
 1801 1001 l 1
 1601 1001 l 1
1601 1202 m 1
 1601 1398 l 1
 1801 1398 l 1
 1801 1202 l 1
 1601 1202 l 1
1400 1398 m 1
 1400 1599 l 1
 1601 1599 l 1
 1601 1398 l 1
 1400 1398 l 1
1400 199 m 1
 1400 399 l 1
 1601 399 l 1
 1601 199 l 1
 1400 199 l 1
1400 399 m 1
 1400 600 l 1
 1601 600 l 1
 1601 399 l 1
 1400 399 l 1
1400 600 m 1
 1400 800 l 1
 1601 800 l 1
 1601 600 l 1
 1400 600 l 1
1400 800 m 1
 1400 1001 l 1
 1601 1001 l 1
 1601 800 l 1
 1400 800 l 1
1400 1001 m 1
 1400 1202 l 1
 1601 1202 l 1
 1601 1001 l 1
 1400 1001 l 1
1200 1398 m 1
 1200 1599 l 1
 1400 1599 l 1
 1400 1398 l 1
 1200 1398 l 1
1200 199 m 1
 1200 399 l 1
 1400 399 l 1
 1400 199 l 1
 1200 199 l 1
1200 399 m 1
 1200 600 l 1
 1400 600 l 1
 1400 399 l 1
 1200 399 l 1
1200 800 m 1
 1200 1001 l 1
 1400 1001 l 1
 1400 800 l 1
 1200 800 l 1
1200 1001 m 1
 1200 1202 l 1
 1400 1202 l 1
 1400 1001 l 1
 1200 1001 l 1
999 1398 m 1
 999 1599 l 1
 1200 1599 l 1
 1200 1398 l 1
 999 1398 l 1
999 199 m 1
 999 399 l 1
 1200 399 l 1
 1200 199 l 1
 999 199 l 1
999 399 m 1
 999 600 l 1
 1200 600 l 1
 1200 399 l 1
 999 399 l 1
999 800 m 1
 999 1001 l 1
 1200 1001 l 1
 1200 800 l 1
 999 800 l 1
999 1001 m 1
 999 1202 l 1
 1200 1202 l 1
 1200 1001 l 1
 999 1001 l 1
798 1398 m 1
 798 1599 l 1
 999 1599 l 1
 999 1398 l 1
 798 1398 l 1
999 -198 m 1
 999 -396 l 1
 798 -396 l 1
 798 -198 l 1
 999 -198 l 1
798 -198 m 1
 798 -2 l 1
 999 -2 l 1
 999 -198 l 1
 798 -198 l 1
798 -2 m 1
 798 199 l 1
 999 199 l 1
 999 -2 l 1
 798 -2 l 1
798 199 m 1
 798 399 l 1
 999 399 l 1
 999 199 l 1
 798 199 l 1
798 399 m 1
 798 600 l 1
 999 600 l 1
 999 399 l 1
 798 399 l 1
798 800 m 1
 798 1001 l 1
 999 1001 l 1
 999 800 l 1
 798 800 l 1
798 1001 m 1
 798 1202 l 1
 999 1202 l 1
 999 1001 l 1
 798 1001 l 1
602 1398 m 1
 602 1599 l 1
 798 1599 l 1
 798 1398 l 1
 602 1398 l 1
798 -198 m 1
 798 -396 l 1
 602 -396 l 1
 602 -198 l 1
 798 -198 l 1
602 -198 m 1
 602 -2 l 1
 798 -2 l 1
 798 -198 l 1
 602 -198 l 1
602 -2 m 1
 602 199 l 1
 798 199 l 1
 798 -2 l 1
 602 -2 l 1
602 199 m 1
 602 399 l 1
 798 399 l 1
 798 199 l 1
 602 199 l 1
602 399 m 1
 602 600 l 1
 798 600 l 1
 798 399 l 1
 602 399 l 1
602 800 m 1
 602 1001 l 1
 798 1001 l 1
 798 800 l 1
 602 800 l 1
602 1001 m 1
 602 1202 l 1
 798 1202 l 1
 798 1001 l 1
 602 1001 l 1
401 1398 m 1
 401 1599 l 1
 602 1599 l 1
 602 1398 l 1
 401 1398 l 1
602 -198 m 1
 602 -396 l 1
 401 -396 l 1
 401 -198 l 1
 602 -198 l 1
401 -198 m 1
 401 -2 l 1
 602 -2 l 1
 602 -198 l 1
 401 -198 l 1
201 1398 m 1
 201 1599 l 1
 401 1599 l 1
 401 1398 l 1
 201 1398 l 1
401 -198 m 1
 401 -396 l 1
 201 -396 l 1
 201 -198 l 1
 401 -198 l 1
201 -198 m 1
 201 -2 l 1
 401 -2 l 1
 401 -198 l 1
 201 -198 l 1
0 1398 m 1
 0 1599 l 1
 201 1599 l 1
 201 1398 l 1
 0 1398 l 1
0 -198 m 1
 0 -2 l 1
 201 -2 l 1
 201 -198 l 1
 0 -198 l 1
0 -2 m 1
 0 199 l 1
 201 199 l 1
 201 -2 l 1
 0 -2 l 1
0 199 m 1
 0 399 l 1
 201 399 l 1
 201 199 l 1
 0 199 l 1
0 399 m 1
 0 600 l 1
 201 600 l 1
 201 399 l 1
 0 399 l 1
0 600 m 1
 0 800 l 1
 201 800 l 1
 201 600 l 1
 0 600 l 1
0 800 m 1
 0 1001 l 1
 201 1001 l 1
 201 800 l 1
 0 800 l 1
0 1001 m 1
 0 1202 l 1
 201 1202 l 1
 201 1001 l 1
 0 1001 l 1
0 1202 m 1
 0 1398 l 1
 201 1398 l 1
 201 1202 l 1
 0 1202 l 1
EndSplineSet
Validated: 5
EndChar

StartChar: G
Encoding: 46 71 44
Width: 1801
Flags: W
LayerCount: 2
Fore
SplineSet
1998 -198 m 1
 1998 -396 l 1
 1801 -396 l 1
 1801 -198 l 1
 1998 -198 l 1
1801 -198 m 1
 1801 -2 l 1
 1998 -2 l 1
 1998 -198 l 1
 1801 -198 l 1
1801 -2 m 1
 1801 199 l 1
 1998 199 l 1
 1998 -2 l 1
 1801 -2 l 1
1801 199 m 1
 1801 399 l 1
 1998 399 l 1
 1998 199 l 1
 1801 199 l 1
1801 399 m 1
 1801 600 l 1
 1998 600 l 1
 1998 399 l 1
 1801 399 l 1
1801 600 m 1
 1801 800 l 1
 1998 800 l 1
 1998 600 l 1
 1801 600 l 1
1801 800 m 1
 1801 1001 l 1
 1998 1001 l 1
 1998 800 l 1
 1801 800 l 1
1801 1001 m 1
 1801 1202 l 1
 1998 1202 l 1
 1998 1001 l 1
 1801 1001 l 1
1801 -198 m 1
 1801 -396 l 1
 1601 -396 l 1
 1601 -198 l 1
 1801 -198 l 1
1601 -198 m 1
 1601 -2 l 1
 1801 -2 l 1
 1801 -198 l 1
 1601 -198 l 1
1601 -2 m 1
 1601 199 l 1
 1801 199 l 1
 1801 -2 l 1
 1601 -2 l 1
1601 199 m 1
 1601 399 l 1
 1801 399 l 1
 1801 199 l 1
 1601 199 l 1
1601 399 m 1
 1601 600 l 1
 1801 600 l 1
 1801 399 l 1
 1601 399 l 1
1601 600 m 1
 1601 800 l 1
 1801 800 l 1
 1801 600 l 1
 1601 600 l 1
1601 800 m 1
 1601 1001 l 1
 1801 1001 l 1
 1801 800 l 1
 1601 800 l 1
1601 1001 m 1
 1601 1202 l 1
 1801 1202 l 1
 1801 1001 l 1
 1601 1001 l 1
1601 1202 m 1
 1601 1398 l 1
 1801 1398 l 1
 1801 1202 l 1
 1601 1202 l 1
1400 1398 m 1
 1400 1599 l 1
 1601 1599 l 1
 1601 1398 l 1
 1400 1398 l 1
1601 -198 m 1
 1601 -396 l 1
 1400 -396 l 1
 1400 -198 l 1
 1601 -198 l 1
1400 -198 m 1
 1400 -2 l 1
 1601 -2 l 1
 1601 -198 l 1
 1400 -198 l 1
1400 800 m 1
 1400 1001 l 1
 1601 1001 l 1
 1601 800 l 1
 1400 800 l 1
1400 1202 m 1
 1400 1398 l 1
 1601 1398 l 1
 1601 1202 l 1
 1400 1202 l 1
1200 1398 m 1
 1200 1599 l 1
 1400 1599 l 1
 1400 1398 l 1
 1200 1398 l 1
1400 -198 m 1
 1400 -396 l 1
 1200 -396 l 1
 1200 -198 l 1
 1400 -198 l 1
1200 -198 m 1
 1200 -2 l 1
 1400 -2 l 1
 1400 -198 l 1
 1200 -198 l 1
1200 -2 m 1
 1200 199 l 1
 1400 199 l 1
 1400 -2 l 1
 1200 -2 l 1
1200 800 m 1
 1200 1001 l 1
 1400 1001 l 1
 1400 800 l 1
 1200 800 l 1
999 1398 m 1
 999 1599 l 1
 1200 1599 l 1
 1200 1398 l 1
 999 1398 l 1
1200 -198 m 1
 1200 -396 l 1
 999 -396 l 1
 999 -198 l 1
 1200 -198 l 1
999 -198 m 1
 999 -2 l 1
 1200 -2 l 1
 1200 -198 l 1
 999 -198 l 1
999 199 m 1
 999 399 l 1
 1200 399 l 1
 1200 199 l 1
 999 199 l 1
999 399 m 1
 999 600 l 1
 1200 600 l 1
 1200 399 l 1
 999 399 l 1
999 800 m 1
 999 1001 l 1
 1200 1001 l 1
 1200 800 l 1
 999 800 l 1
999 1001 m 1
 999 1202 l 1
 1200 1202 l 1
 1200 1001 l 1
 999 1001 l 1
798 1398 m 1
 798 1599 l 1
 999 1599 l 1
 999 1398 l 1
 798 1398 l 1
999 -198 m 1
 999 -396 l 1
 798 -396 l 1
 798 -198 l 1
 999 -198 l 1
798 -198 m 1
 798 -2 l 1
 999 -2 l 1
 999 -198 l 1
 798 -198 l 1
798 199 m 1
 798 399 l 1
 999 399 l 1
 999 199 l 1
 798 199 l 1
798 399 m 1
 798 600 l 1
 999 600 l 1
 999 399 l 1
 798 399 l 1
798 600 m 1
 798 800 l 1
 999 800 l 1
 999 600 l 1
 798 600 l 1
798 800 m 1
 798 1001 l 1
 999 1001 l 1
 999 800 l 1
 798 800 l 1
798 1001 m 1
 798 1202 l 1
 999 1202 l 1
 999 1001 l 1
 798 1001 l 1
602 1398 m 1
 602 1599 l 1
 798 1599 l 1
 798 1398 l 1
 602 1398 l 1
798 -198 m 1
 798 -396 l 1
 602 -396 l 1
 602 -198 l 1
 798 -198 l 1
602 -198 m 1
 602 -2 l 1
 798 -2 l 1
 798 -198 l 1
 602 -198 l 1
602 199 m 1
 602 399 l 1
 798 399 l 1
 798 199 l 1
 602 199 l 1
602 399 m 1
 602 600 l 1
 798 600 l 1
 798 399 l 1
 602 399 l 1
602 600 m 1
 602 800 l 1
 798 800 l 1
 798 600 l 1
 602 600 l 1
602 800 m 1
 602 1001 l 1
 798 1001 l 1
 798 800 l 1
 602 800 l 1
602 1001 m 1
 602 1202 l 1
 798 1202 l 1
 798 1001 l 1
 602 1001 l 1
401 1398 m 1
 401 1599 l 1
 602 1599 l 1
 602 1398 l 1
 401 1398 l 1
602 -198 m 1
 602 -396 l 1
 401 -396 l 1
 401 -198 l 1
 602 -198 l 1
401 -198 m 1
 401 -2 l 1
 602 -2 l 1
 602 -198 l 1
 401 -198 l 1
201 1398 m 1
 201 1599 l 1
 401 1599 l 1
 401 1398 l 1
 201 1398 l 1
201 -198 m 1
 201 -2 l 1
 401 -2 l 1
 401 -198 l 1
 201 -198 l 1
201 -2 m 1
 201 199 l 1
 401 199 l 1
 401 -2 l 1
 201 -2 l 1
201 1202 m 1
 201 1398 l 1
 401 1398 l 1
 401 1202 l 1
 201 1202 l 1
0 -2 m 1
 0 199 l 1
 201 199 l 1
 201 -2 l 1
 0 -2 l 1
0 199 m 1
 0 399 l 1
 201 399 l 1
 201 199 l 1
 0 199 l 1
0 399 m 1
 0 600 l 1
 201 600 l 1
 201 399 l 1
 0 399 l 1
0 600 m 1
 0 800 l 1
 201 800 l 1
 201 600 l 1
 0 600 l 1
0 800 m 1
 0 1001 l 1
 201 1001 l 1
 201 800 l 1
 0 800 l 1
0 1001 m 1
 0 1202 l 1
 201 1202 l 1
 201 1001 l 1
 0 1001 l 1
0 1202 m 1
 0 1398 l 1
 201 1398 l 1
 201 1202 l 1
 0 1202 l 1
EndSplineSet
Validated: 5
EndChar

StartChar: H
Encoding: 47 72 45
Width: 1801
Flags: W
LayerCount: 2
Fore
SplineSet
1998 -198 m 1
 1998 -396 l 1
 1801 -396 l 1
 1801 -198 l 1
 1998 -198 l 1
1801 -198 m 1
 1801 -2 l 1
 1998 -2 l 1
 1998 -198 l 1
 1801 -198 l 1
1801 -2 m 1
 1801 199 l 1
 1998 199 l 1
 1998 -2 l 1
 1801 -2 l 1
1801 199 m 1
 1801 399 l 1
 1998 399 l 1
 1998 199 l 1
 1801 199 l 1
1801 399 m 1
 1801 600 l 1
 1998 600 l 1
 1998 399 l 1
 1801 399 l 1
1801 600 m 1
 1801 800 l 1
 1998 800 l 1
 1998 600 l 1
 1801 600 l 1
1801 800 m 1
 1801 1001 l 1
 1998 1001 l 1
 1998 800 l 1
 1801 800 l 1
1801 1001 m 1
 1801 1202 l 1
 1998 1202 l 1
 1998 1001 l 1
 1801 1001 l 1
1801 1202 m 1
 1801 1398 l 1
 1998 1398 l 1
 1998 1202 l 1
 1801 1202 l 1
1601 1398 m 1
 1601 1599 l 1
 1801 1599 l 1
 1801 1398 l 1
 1601 1398 l 1
1801 -198 m 1
 1801 -396 l 1
 1601 -396 l 1
 1601 -198 l 1
 1801 -198 l 1
1601 -198 m 1
 1601 -2 l 1
 1801 -2 l 1
 1801 -198 l 1
 1601 -198 l 1
1601 -2 m 1
 1601 199 l 1
 1801 199 l 1
 1801 -2 l 1
 1601 -2 l 1
1601 199 m 1
 1601 399 l 1
 1801 399 l 1
 1801 199 l 1
 1601 199 l 1
1601 399 m 1
 1601 600 l 1
 1801 600 l 1
 1801 399 l 1
 1601 399 l 1
1601 600 m 1
 1601 800 l 1
 1801 800 l 1
 1801 600 l 1
 1601 600 l 1
1601 800 m 1
 1601 1001 l 1
 1801 1001 l 1
 1801 800 l 1
 1601 800 l 1
1601 1001 m 1
 1601 1202 l 1
 1801 1202 l 1
 1801 1001 l 1
 1601 1001 l 1
1601 1202 m 1
 1601 1398 l 1
 1801 1398 l 1
 1801 1202 l 1
 1601 1202 l 1
1400 1398 m 1
 1400 1599 l 1
 1601 1599 l 1
 1601 1398 l 1
 1400 1398 l 1
1601 -198 m 1
 1601 -396 l 1
 1400 -396 l 1
 1400 -198 l 1
 1601 -198 l 1
1400 -198 m 1
 1400 -2 l 1
 1601 -2 l 1
 1601 -198 l 1
 1400 -198 l 1
1200 1398 m 1
 1200 1599 l 1
 1400 1599 l 1
 1400 1398 l 1
 1200 1398 l 1
1400 -198 m 1
 1400 -396 l 1
 1200 -396 l 1
 1200 -198 l 1
 1400 -198 l 1
1200 -198 m 1
 1200 -2 l 1
 1400 -2 l 1
 1400 -198 l 1
 1200 -198 l 1
999 1398 m 1
 999 1599 l 1
 1200 1599 l 1
 1200 1398 l 1
 999 1398 l 1
999 -198 m 1
 999 -2 l 1
 1200 -2 l 1
 1200 -198 l 1
 999 -198 l 1
999 -2 m 1
 999 199 l 1
 1200 199 l 1
 1200 -2 l 1
 999 -2 l 1
999 199 m 1
 999 399 l 1
 1200 399 l 1
 1200 199 l 1
 999 199 l 1
999 399 m 1
 999 600 l 1
 1200 600 l 1
 1200 399 l 1
 999 399 l 1
999 800 m 1
 999 1001 l 1
 1200 1001 l 1
 1200 800 l 1
 999 800 l 1
999 1001 m 1
 999 1202 l 1
 1200 1202 l 1
 1200 1001 l 1
 999 1001 l 1
999 1202 m 1
 999 1398 l 1
 1200 1398 l 1
 1200 1202 l 1
 999 1202 l 1
999 -198 m 1
 999 -396 l 1
 798 -396 l 1
 798 -198 l 1
 999 -198 l 1
798 -198 m 1
 798 -2 l 1
 999 -2 l 1
 999 -198 l 1
 798 -198 l 1
798 -2 m 1
 798 199 l 1
 999 199 l 1
 999 -2 l 1
 798 -2 l 1
798 199 m 1
 798 399 l 1
 999 399 l 1
 999 199 l 1
 798 199 l 1
798 399 m 1
 798 600 l 1
 999 600 l 1
 999 399 l 1
 798 399 l 1
798 800 m 1
 798 1001 l 1
 999 1001 l 1
 999 800 l 1
 798 800 l 1
798 1001 m 1
 798 1202 l 1
 999 1202 l 1
 999 1001 l 1
 798 1001 l 1
798 1202 m 1
 798 1398 l 1
 999 1398 l 1
 999 1202 l 1
 798 1202 l 1
602 1398 m 1
 602 1599 l 1
 798 1599 l 1
 798 1398 l 1
 602 1398 l 1
798 -198 m 1
 798 -396 l 1
 602 -396 l 1
 602 -198 l 1
 798 -198 l 1
602 -198 m 1
 602 -2 l 1
 798 -2 l 1
 798 -198 l 1
 602 -198 l 1
602 -2 m 1
 602 199 l 1
 798 199 l 1
 798 -2 l 1
 602 -2 l 1
602 199 m 1
 602 399 l 1
 798 399 l 1
 798 199 l 1
 602 199 l 1
602 399 m 1
 602 600 l 1
 798 600 l 1
 798 399 l 1
 602 399 l 1
602 800 m 1
 602 1001 l 1
 798 1001 l 1
 798 800 l 1
 602 800 l 1
602 1001 m 1
 602 1202 l 1
 798 1202 l 1
 798 1001 l 1
 602 1001 l 1
602 1202 m 1
 602 1398 l 1
 798 1398 l 1
 798 1202 l 1
 602 1202 l 1
401 1398 m 1
 401 1599 l 1
 602 1599 l 1
 602 1398 l 1
 401 1398 l 1
602 -198 m 1
 602 -396 l 1
 401 -396 l 1
 401 -198 l 1
 602 -198 l 1
401 -198 m 1
 401 -2 l 1
 602 -2 l 1
 602 -198 l 1
 401 -198 l 1
201 1398 m 1
 201 1599 l 1
 401 1599 l 1
 401 1398 l 1
 201 1398 l 1
401 -198 m 1
 401 -396 l 1
 201 -396 l 1
 201 -198 l 1
 401 -198 l 1
201 -198 m 1
 201 -2 l 1
 401 -2 l 1
 401 -198 l 1
 201 -198 l 1
0 1398 m 1
 0 1599 l 1
 201 1599 l 1
 201 1398 l 1
 0 1398 l 1
0 -198 m 1
 0 -2 l 1
 201 -2 l 1
 201 -198 l 1
 0 -198 l 1
0 -2 m 1
 0 199 l 1
 201 199 l 1
 201 -2 l 1
 0 -2 l 1
0 199 m 1
 0 399 l 1
 201 399 l 1
 201 199 l 1
 0 199 l 1
0 399 m 1
 0 600 l 1
 201 600 l 1
 201 399 l 1
 0 399 l 1
0 600 m 1
 0 800 l 1
 201 800 l 1
 201 600 l 1
 0 600 l 1
0 800 m 1
 0 1001 l 1
 201 1001 l 1
 201 800 l 1
 0 800 l 1
0 1001 m 1
 0 1202 l 1
 201 1202 l 1
 201 1001 l 1
 0 1001 l 1
0 1202 m 1
 0 1398 l 1
 201 1398 l 1
 201 1202 l 1
 0 1202 l 1
EndSplineSet
Validated: 5
EndChar

StartChar: I
Encoding: 48 73 46
Width: 798
Flags: W
LayerCount: 2
Fore
SplineSet
999 -198 m 1
 999 -396 l 1
 798 -396 l 1
 798 -198 l 1
 999 -198 l 1
798 -198 m 1
 798 -2 l 1
 999 -2 l 1
 999 -198 l 1
 798 -198 l 1
798 -2 m 1
 798 199 l 1
 999 199 l 1
 999 -2 l 1
 798 -2 l 1
798 199 m 1
 798 399 l 1
 999 399 l 1
 999 199 l 1
 798 199 l 1
798 399 m 1
 798 600 l 1
 999 600 l 1
 999 399 l 1
 798 399 l 1
798 600 m 1
 798 800 l 1
 999 800 l 1
 999 600 l 1
 798 600 l 1
798 800 m 1
 798 1001 l 1
 999 1001 l 1
 999 800 l 1
 798 800 l 1
798 1001 m 1
 798 1202 l 1
 999 1202 l 1
 999 1001 l 1
 798 1001 l 1
798 1202 m 1
 798 1398 l 1
 999 1398 l 1
 999 1202 l 1
 798 1202 l 1
602 1398 m 1
 602 1599 l 1
 798 1599 l 1
 798 1398 l 1
 602 1398 l 1
798 -198 m 1
 798 -396 l 1
 602 -396 l 1
 602 -198 l 1
 798 -198 l 1
602 -198 m 1
 602 -2 l 1
 798 -2 l 1
 798 -198 l 1
 602 -198 l 1
602 -2 m 1
 602 199 l 1
 798 199 l 1
 798 -2 l 1
 602 -2 l 1
602 199 m 1
 602 399 l 1
 798 399 l 1
 798 199 l 1
 602 199 l 1
602 399 m 1
 602 600 l 1
 798 600 l 1
 798 399 l 1
 602 399 l 1
602 600 m 1
 602 800 l 1
 798 800 l 1
 798 600 l 1
 602 600 l 1
602 800 m 1
 602 1001 l 1
 798 1001 l 1
 798 800 l 1
 602 800 l 1
602 1001 m 1
 602 1202 l 1
 798 1202 l 1
 798 1001 l 1
 602 1001 l 1
602 1202 m 1
 602 1398 l 1
 798 1398 l 1
 798 1202 l 1
 602 1202 l 1
401 1398 m 1
 401 1599 l 1
 602 1599 l 1
 602 1398 l 1
 401 1398 l 1
602 -198 m 1
 602 -396 l 1
 401 -396 l 1
 401 -198 l 1
 602 -198 l 1
401 -198 m 1
 401 -2 l 1
 602 -2 l 1
 602 -198 l 1
 401 -198 l 1
201 1398 m 1
 201 1599 l 1
 401 1599 l 1
 401 1398 l 1
 201 1398 l 1
401 -198 m 1
 401 -396 l 1
 201 -396 l 1
 201 -198 l 1
 401 -198 l 1
201 -198 m 1
 201 -2 l 1
 401 -2 l 1
 401 -198 l 1
 201 -198 l 1
0 1398 m 1
 0 1599 l 1
 201 1599 l 1
 201 1398 l 1
 0 1398 l 1
0 -198 m 1
 0 -2 l 1
 201 -2 l 1
 201 -198 l 1
 0 -198 l 1
0 -2 m 1
 0 199 l 1
 201 199 l 1
 201 -2 l 1
 0 -2 l 1
0 199 m 1
 0 399 l 1
 201 399 l 1
 201 199 l 1
 0 199 l 1
0 399 m 1
 0 600 l 1
 201 600 l 1
 201 399 l 1
 0 399 l 1
0 600 m 1
 0 800 l 1
 201 800 l 1
 201 600 l 1
 0 600 l 1
0 800 m 1
 0 1001 l 1
 201 1001 l 1
 201 800 l 1
 0 800 l 1
0 1001 m 1
 0 1202 l 1
 201 1202 l 1
 201 1001 l 1
 0 1001 l 1
0 1202 m 1
 0 1398 l 1
 201 1398 l 1
 201 1202 l 1
 0 1202 l 1
EndSplineSet
Validated: 5
EndChar

StartChar: J
Encoding: 49 74 47
Width: 1801
Flags: W
LayerCount: 2
Fore
SplineSet
1801 -198 m 1
 1801 -2 l 1
 1998 -2 l 1
 1998 -198 l 1
 1801 -198 l 1
1801 -2 m 1
 1801 199 l 1
 1998 199 l 1
 1998 -2 l 1
 1801 -2 l 1
1801 199 m 1
 1801 399 l 1
 1998 399 l 1
 1998 199 l 1
 1801 199 l 1
1801 399 m 1
 1801 600 l 1
 1998 600 l 1
 1998 399 l 1
 1801 399 l 1
1801 600 m 1
 1801 800 l 1
 1998 800 l 1
 1998 600 l 1
 1801 600 l 1
1801 800 m 1
 1801 1001 l 1
 1998 1001 l 1
 1998 800 l 1
 1801 800 l 1
1801 1001 m 1
 1801 1202 l 1
 1998 1202 l 1
 1998 1001 l 1
 1801 1001 l 1
1801 1202 m 1
 1801 1398 l 1
 1998 1398 l 1
 1998 1202 l 1
 1801 1202 l 1
1601 1398 m 1
 1601 1599 l 1
 1801 1599 l 1
 1801 1398 l 1
 1601 1398 l 1
1801 -198 m 1
 1801 -396 l 1
 1601 -396 l 1
 1601 -198 l 1
 1801 -198 l 1
1601 -198 m 1
 1601 -2 l 1
 1801 -2 l 1
 1801 -198 l 1
 1601 -198 l 1
1601 -2 m 1
 1601 199 l 1
 1801 199 l 1
 1801 -2 l 1
 1601 -2 l 1
1601 199 m 1
 1601 399 l 1
 1801 399 l 1
 1801 199 l 1
 1601 199 l 1
1601 399 m 1
 1601 600 l 1
 1801 600 l 1
 1801 399 l 1
 1601 399 l 1
1601 600 m 1
 1601 800 l 1
 1801 800 l 1
 1801 600 l 1
 1601 600 l 1
1601 800 m 1
 1601 1001 l 1
 1801 1001 l 1
 1801 800 l 1
 1601 800 l 1
1601 1001 m 1
 1601 1202 l 1
 1801 1202 l 1
 1801 1001 l 1
 1601 1001 l 1
1601 1202 m 1
 1601 1398 l 1
 1801 1398 l 1
 1801 1202 l 1
 1601 1202 l 1
1400 1398 m 1
 1400 1599 l 1
 1601 1599 l 1
 1601 1398 l 1
 1400 1398 l 1
1601 -198 m 1
 1601 -396 l 1
 1400 -396 l 1
 1400 -198 l 1
 1601 -198 l 1
1400 -198 m 1
 1400 -2 l 1
 1601 -2 l 1
 1601 -198 l 1
 1400 -198 l 1
1400 -2 m 1
 1400 199 l 1
 1601 199 l 1
 1601 -2 l 1
 1400 -2 l 1
1200 1398 m 1
 1200 1599 l 1
 1400 1599 l 1
 1400 1398 l 1
 1200 1398 l 1
1400 -198 m 1
 1400 -396 l 1
 1200 -396 l 1
 1200 -198 l 1
 1400 -198 l 1
1200 -198 m 1
 1200 -2 l 1
 1400 -2 l 1
 1400 -198 l 1
 1200 -198 l 1
999 1398 m 1
 999 1599 l 1
 1200 1599 l 1
 1200 1398 l 1
 999 1398 l 1
1200 -198 m 1
 1200 -396 l 1
 999 -396 l 1
 999 -198 l 1
 1200 -198 l 1
999 -198 m 1
 999 -2 l 1
 1200 -2 l 1
 1200 -198 l 1
 999 -198 l 1
999 199 m 1
 999 399 l 1
 1200 399 l 1
 1200 199 l 1
 999 199 l 1
999 399 m 1
 999 600 l 1
 1200 600 l 1
 1200 399 l 1
 999 399 l 1
999 600 m 1
 999 800 l 1
 1200 800 l 1
 1200 600 l 1
 999 600 l 1
999 800 m 1
 999 1001 l 1
 1200 1001 l 1
 1200 800 l 1
 999 800 l 1
999 1001 m 1
 999 1202 l 1
 1200 1202 l 1
 1200 1001 l 1
 999 1001 l 1
999 1202 m 1
 999 1398 l 1
 1200 1398 l 1
 1200 1202 l 1
 999 1202 l 1
999 -198 m 1
 999 -396 l 1
 798 -396 l 1
 798 -198 l 1
 999 -198 l 1
798 -198 m 1
 798 -2 l 1
 999 -2 l 1
 999 -198 l 1
 798 -198 l 1
798 199 m 1
 798 399 l 1
 999 399 l 1
 999 199 l 1
 798 199 l 1
798 399 m 1
 798 600 l 1
 999 600 l 1
 999 399 l 1
 798 399 l 1
798 600 m 1
 798 800 l 1
 999 800 l 1
 999 600 l 1
 798 600 l 1
798 -198 m 1
 798 -396 l 1
 602 -396 l 1
 602 -198 l 1
 798 -198 l 1
602 -198 m 1
 602 -2 l 1
 798 -2 l 1
 798 -198 l 1
 602 -198 l 1
602 199 m 1
 602 399 l 1
 798 399 l 1
 798 199 l 1
 602 199 l 1
602 399 m 1
 602 600 l 1
 798 600 l 1
 798 399 l 1
 602 399 l 1
602 600 m 1
 602 800 l 1
 798 800 l 1
 798 600 l 1
 602 600 l 1
602 -198 m 1
 602 -396 l 1
 401 -396 l 1
 401 -198 l 1
 602 -198 l 1
401 -198 m 1
 401 -2 l 1
 602 -2 l 1
 602 -198 l 1
 401 -198 l 1
401 600 m 1
 401 800 l 1
 602 800 l 1
 602 600 l 1
 401 600 l 1
201 -198 m 1
 201 -2 l 1
 401 -2 l 1
 401 -198 l 1
 201 -198 l 1
201 -2 m 1
 201 199 l 1
 401 199 l 1
 401 -2 l 1
 201 -2 l 1
201 600 m 1
 201 800 l 1
 401 800 l 1
 401 600 l 1
 201 600 l 1
0 -2 m 1
 0 199 l 1
 201 199 l 1
 201 -2 l 1
 0 -2 l 1
0 199 m 1
 0 399 l 1
 201 399 l 1
 201 199 l 1
 0 199 l 1
0 399 m 1
 0 600 l 1
 201 600 l 1
 201 399 l 1
 0 399 l 1
0 600 m 1
 0 800 l 1
 201 800 l 1
 201 600 l 1
 0 600 l 1
EndSplineSet
Validated: 5
EndChar

StartChar: K
Encoding: 50 75 48
Width: 1801
Flags: W
LayerCount: 2
Fore
SplineSet
1998 -198 m 1
 1998 -396 l 1
 1801 -396 l 1
 1801 -198 l 1
 1998 -198 l 1
1801 -198 m 1
 1801 -2 l 1
 1998 -2 l 1
 1998 -198 l 1
 1801 -198 l 1
1801 -2 m 1
 1801 199 l 1
 1998 199 l 1
 1998 -2 l 1
 1801 -2 l 1
1801 800 m 1
 1801 1001 l 1
 1998 1001 l 1
 1998 800 l 1
 1801 800 l 1
1801 1001 m 1
 1801 1202 l 1
 1998 1202 l 1
 1998 1001 l 1
 1801 1001 l 1
1801 1202 m 1
 1801 1398 l 1
 1998 1398 l 1
 1998 1202 l 1
 1801 1202 l 1
1601 1398 m 1
 1601 1599 l 1
 1801 1599 l 1
 1801 1398 l 1
 1601 1398 l 1
1801 -198 m 1
 1801 -396 l 1
 1601 -396 l 1
 1601 -198 l 1
 1801 -198 l 1
1601 -198 m 1
 1601 -2 l 1
 1801 -2 l 1
 1801 -198 l 1
 1601 -198 l 1
1601 -2 m 1
 1601 199 l 1
 1801 199 l 1
 1801 -2 l 1
 1601 -2 l 1
1601 199 m 1
 1601 399 l 1
 1801 399 l 1
 1801 199 l 1
 1601 199 l 1
1601 600 m 1
 1601 800 l 1
 1801 800 l 1
 1801 600 l 1
 1601 600 l 1
1601 800 m 1
 1601 1001 l 1
 1801 1001 l 1
 1801 800 l 1
 1601 800 l 1
1601 1001 m 1
 1601 1202 l 1
 1801 1202 l 1
 1801 1001 l 1
 1601 1001 l 1
1601 1202 m 1
 1601 1398 l 1
 1801 1398 l 1
 1801 1202 l 1
 1601 1202 l 1
1400 1398 m 1
 1400 1599 l 1
 1601 1599 l 1
 1601 1398 l 1
 1400 1398 l 1
1601 -198 m 1
 1601 -396 l 1
 1400 -396 l 1
 1400 -198 l 1
 1601 -198 l 1
1400 -198 m 1
 1400 -2 l 1
 1601 -2 l 1
 1601 -198 l 1
 1400 -198 l 1
1400 199 m 1
 1400 399 l 1
 1601 399 l 1
 1601 199 l 1
 1400 199 l 1
1400 399 m 1
 1400 600 l 1
 1601 600 l 1
 1601 399 l 1
 1400 399 l 1
1400 600 m 1
 1400 800 l 1
 1601 800 l 1
 1601 600 l 1
 1400 600 l 1
1400 800 m 1
 1400 1001 l 1
 1601 1001 l 1
 1601 800 l 1
 1400 800 l 1
1400 1001 m 1
 1400 1202 l 1
 1601 1202 l 1
 1601 1001 l 1
 1400 1001 l 1
1200 1398 m 1
 1200 1599 l 1
 1400 1599 l 1
 1400 1398 l 1
 1200 1398 l 1
1400 -198 m 1
 1400 -396 l 1
 1200 -396 l 1
 1200 -198 l 1
 1400 -198 l 1
1200 -198 m 1
 1200 -2 l 1
 1400 -2 l 1
 1400 -198 l 1
 1200 -198 l 1
1200 399 m 1
 1200 600 l 1
 1400 600 l 1
 1400 399 l 1
 1200 399 l 1
1200 600 m 1
 1200 800 l 1
 1400 800 l 1
 1400 600 l 1
 1200 600 l 1
1200 800 m 1
 1200 1001 l 1
 1400 1001 l 1
 1400 800 l 1
 1200 800 l 1
999 1398 m 1
 999 1599 l 1
 1200 1599 l 1
 1200 1398 l 1
 999 1398 l 1
999 -198 m 1
 999 -2 l 1
 1200 -2 l 1
 1200 -198 l 1
 999 -198 l 1
999 -2 m 1
 999 199 l 1
 1200 199 l 1
 1200 -2 l 1
 999 -2 l 1
999 600 m 1
 999 800 l 1
 1200 800 l 1
 1200 600 l 1
 999 600 l 1
999 1202 m 1
 999 1398 l 1
 1200 1398 l 1
 1200 1202 l 1
 999 1202 l 1
999 -198 m 1
 999 -396 l 1
 798 -396 l 1
 798 -198 l 1
 999 -198 l 1
798 -198 m 1
 798 -2 l 1
 999 -2 l 1
 999 -198 l 1
 798 -198 l 1
798 -2 m 1
 798 199 l 1
 999 199 l 1
 999 -2 l 1
 798 -2 l 1
798 199 m 1
 798 399 l 1
 999 399 l 1
 999 199 l 1
 798 199 l 1
798 1001 m 1
 798 1202 l 1
 999 1202 l 1
 999 1001 l 1
 798 1001 l 1
798 1202 m 1
 798 1398 l 1
 999 1398 l 1
 999 1202 l 1
 798 1202 l 1
602 1398 m 1
 602 1599 l 1
 798 1599 l 1
 798 1398 l 1
 602 1398 l 1
798 -198 m 1
 798 -396 l 1
 602 -396 l 1
 602 -198 l 1
 798 -198 l 1
602 -198 m 1
 602 -2 l 1
 798 -2 l 1
 798 -198 l 1
 602 -198 l 1
602 -2 m 1
 602 199 l 1
 798 199 l 1
 798 -2 l 1
 602 -2 l 1
602 199 m 1
 602 399 l 1
 798 399 l 1
 798 199 l 1
 602 199 l 1
602 399 m 1
 602 600 l 1
 798 600 l 1
 798 399 l 1
 602 399 l 1
602 800 m 1
 602 1001 l 1
 798 1001 l 1
 798 800 l 1
 602 800 l 1
602 1001 m 1
 602 1202 l 1
 798 1202 l 1
 798 1001 l 1
 602 1001 l 1
602 1202 m 1
 602 1398 l 1
 798 1398 l 1
 798 1202 l 1
 602 1202 l 1
401 1398 m 1
 401 1599 l 1
 602 1599 l 1
 602 1398 l 1
 401 1398 l 1
602 -198 m 1
 602 -396 l 1
 401 -396 l 1
 401 -198 l 1
 602 -198 l 1
401 -198 m 1
 401 -2 l 1
 602 -2 l 1
 602 -198 l 1
 401 -198 l 1
201 1398 m 1
 201 1599 l 1
 401 1599 l 1
 401 1398 l 1
 201 1398 l 1
401 -198 m 1
 401 -396 l 1
 201 -396 l 1
 201 -198 l 1
 401 -198 l 1
201 -198 m 1
 201 -2 l 1
 401 -2 l 1
 401 -198 l 1
 201 -198 l 1
0 1398 m 1
 0 1599 l 1
 201 1599 l 1
 201 1398 l 1
 0 1398 l 1
0 -198 m 1
 0 -2 l 1
 201 -2 l 1
 201 -198 l 1
 0 -198 l 1
0 -2 m 1
 0 199 l 1
 201 199 l 1
 201 -2 l 1
 0 -2 l 1
0 199 m 1
 0 399 l 1
 201 399 l 1
 201 199 l 1
 0 199 l 1
0 399 m 1
 0 600 l 1
 201 600 l 1
 201 399 l 1
 0 399 l 1
0 600 m 1
 0 800 l 1
 201 800 l 1
 201 600 l 1
 0 600 l 1
0 800 m 1
 0 1001 l 1
 201 1001 l 1
 201 800 l 1
 0 800 l 1
0 1001 m 1
 0 1202 l 1
 201 1202 l 1
 201 1001 l 1
 0 1001 l 1
0 1202 m 1
 0 1398 l 1
 201 1398 l 1
 201 1202 l 1
 0 1202 l 1
EndSplineSet
Validated: 5
EndChar

StartChar: L
Encoding: 51 76 49
Width: 1601
Flags: W
LayerCount: 2
Fore
SplineSet
1801 -198 m 1
 1801 -396 l 1
 1601 -396 l 1
 1601 -198 l 1
 1801 -198 l 1
1601 -198 m 1
 1601 -2 l 1
 1801 -2 l 1
 1801 -198 l 1
 1601 -198 l 1
1601 -2 m 1
 1601 199 l 1
 1801 199 l 1
 1801 -2 l 1
 1601 -2 l 1
1601 -198 m 1
 1601 -396 l 1
 1400 -396 l 1
 1400 -198 l 1
 1601 -198 l 1
1400 -198 m 1
 1400 -2 l 1
 1601 -2 l 1
 1601 -198 l 1
 1400 -198 l 1
1400 -2 m 1
 1400 199 l 1
 1601 199 l 1
 1601 -2 l 1
 1400 -2 l 1
1400 199 m 1
 1400 399 l 1
 1601 399 l 1
 1601 199 l 1
 1400 199 l 1
1400 -198 m 1
 1400 -396 l 1
 1200 -396 l 1
 1200 -198 l 1
 1400 -198 l 1
1200 -198 m 1
 1200 -2 l 1
 1400 -2 l 1
 1400 -198 l 1
 1200 -198 l 1
1200 199 m 1
 1200 399 l 1
 1400 399 l 1
 1400 199 l 1
 1200 199 l 1
1200 -198 m 1
 1200 -396 l 1
 999 -396 l 1
 999 -198 l 1
 1200 -198 l 1
999 -198 m 1
 999 -2 l 1
 1200 -2 l 1
 1200 -198 l 1
 999 -198 l 1
999 199 m 1
 999 399 l 1
 1200 399 l 1
 1200 199 l 1
 999 199 l 1
999 -198 m 1
 999 -396 l 1
 798 -396 l 1
 798 -198 l 1
 999 -198 l 1
798 -198 m 1
 798 -2 l 1
 999 -2 l 1
 999 -198 l 1
 798 -198 l 1
798 199 m 1
 798 399 l 1
 999 399 l 1
 999 199 l 1
 798 199 l 1
798 399 m 1
 798 600 l 1
 999 600 l 1
 999 399 l 1
 798 399 l 1
798 600 m 1
 798 800 l 1
 999 800 l 1
 999 600 l 1
 798 600 l 1
798 800 m 1
 798 1001 l 1
 999 1001 l 1
 999 800 l 1
 798 800 l 1
798 1001 m 1
 798 1202 l 1
 999 1202 l 1
 999 1001 l 1
 798 1001 l 1
798 1202 m 1
 798 1398 l 1
 999 1398 l 1
 999 1202 l 1
 798 1202 l 1
602 1398 m 1
 602 1599 l 1
 798 1599 l 1
 798 1398 l 1
 602 1398 l 1
798 -198 m 1
 798 -396 l 1
 602 -396 l 1
 602 -198 l 1
 798 -198 l 1
602 -198 m 1
 602 -2 l 1
 798 -2 l 1
 798 -198 l 1
 602 -198 l 1
602 199 m 1
 602 399 l 1
 798 399 l 1
 798 199 l 1
 602 199 l 1
602 399 m 1
 602 600 l 1
 798 600 l 1
 798 399 l 1
 602 399 l 1
602 600 m 1
 602 800 l 1
 798 800 l 1
 798 600 l 1
 602 600 l 1
602 800 m 1
 602 1001 l 1
 798 1001 l 1
 798 800 l 1
 602 800 l 1
602 1001 m 1
 602 1202 l 1
 798 1202 l 1
 798 1001 l 1
 602 1001 l 1
602 1202 m 1
 602 1398 l 1
 798 1398 l 1
 798 1202 l 1
 602 1202 l 1
401 1398 m 1
 401 1599 l 1
 602 1599 l 1
 602 1398 l 1
 401 1398 l 1
602 -198 m 1
 602 -396 l 1
 401 -396 l 1
 401 -198 l 1
 602 -198 l 1
401 -198 m 1
 401 -2 l 1
 602 -2 l 1
 602 -198 l 1
 401 -198 l 1
201 1398 m 1
 201 1599 l 1
 401 1599 l 1
 401 1398 l 1
 201 1398 l 1
401 -198 m 1
 401 -396 l 1
 201 -396 l 1
 201 -198 l 1
 401 -198 l 1
201 -198 m 1
 201 -2 l 1
 401 -2 l 1
 401 -198 l 1
 201 -198 l 1
0 1398 m 1
 0 1599 l 1
 201 1599 l 1
 201 1398 l 1
 0 1398 l 1
0 -198 m 1
 0 -2 l 1
 201 -2 l 1
 201 -198 l 1
 0 -198 l 1
0 -2 m 1
 0 199 l 1
 201 199 l 1
 201 -2 l 1
 0 -2 l 1
0 199 m 1
 0 399 l 1
 201 399 l 1
 201 199 l 1
 0 199 l 1
0 399 m 1
 0 600 l 1
 201 600 l 1
 201 399 l 1
 0 399 l 1
0 600 m 1
 0 800 l 1
 201 800 l 1
 201 600 l 1
 0 600 l 1
0 800 m 1
 0 1001 l 1
 201 1001 l 1
 201 800 l 1
 0 800 l 1
0 1001 m 1
 0 1202 l 1
 201 1202 l 1
 201 1001 l 1
 0 1001 l 1
0 1202 m 1
 0 1398 l 1
 201 1398 l 1
 201 1202 l 1
 0 1202 l 1
EndSplineSet
Validated: 5
EndChar

StartChar: M
Encoding: 52 77 50
Width: 1801
Flags: W
LayerCount: 2
Fore
SplineSet
1998 -198 m 1
 1998 -396 l 1
 1801 -396 l 1
 1801 -198 l 1
 1998 -198 l 1
1801 -198 m 1
 1801 -2 l 1
 1998 -2 l 1
 1998 -198 l 1
 1801 -198 l 1
1801 -2 m 1
 1801 199 l 1
 1998 199 l 1
 1998 -2 l 1
 1801 -2 l 1
1801 199 m 1
 1801 399 l 1
 1998 399 l 1
 1998 199 l 1
 1801 199 l 1
1801 399 m 1
 1801 600 l 1
 1998 600 l 1
 1998 399 l 1
 1801 399 l 1
1801 600 m 1
 1801 800 l 1
 1998 800 l 1
 1998 600 l 1
 1801 600 l 1
1801 800 m 1
 1801 1001 l 1
 1998 1001 l 1
 1998 800 l 1
 1801 800 l 1
1801 1001 m 1
 1801 1202 l 1
 1998 1202 l 1
 1998 1001 l 1
 1801 1001 l 1
1801 1202 m 1
 1801 1398 l 1
 1998 1398 l 1
 1998 1202 l 1
 1801 1202 l 1
1601 1398 m 1
 1601 1599 l 1
 1801 1599 l 1
 1801 1398 l 1
 1601 1398 l 1
1801 -198 m 1
 1801 -396 l 1
 1601 -396 l 1
 1601 -198 l 1
 1801 -198 l 1
1601 -198 m 1
 1601 -2 l 1
 1801 -2 l 1
 1801 -198 l 1
 1601 -198 l 1
1601 -2 m 1
 1601 199 l 1
 1801 199 l 1
 1801 -2 l 1
 1601 -2 l 1
1601 199 m 1
 1601 399 l 1
 1801 399 l 1
 1801 199 l 1
 1601 199 l 1
1601 399 m 1
 1601 600 l 1
 1801 600 l 1
 1801 399 l 1
 1601 399 l 1
1601 600 m 1
 1601 800 l 1
 1801 800 l 1
 1801 600 l 1
 1601 600 l 1
1601 800 m 1
 1601 1001 l 1
 1801 1001 l 1
 1801 800 l 1
 1601 800 l 1
1601 1001 m 1
 1601 1202 l 1
 1801 1202 l 1
 1801 1001 l 1
 1601 1001 l 1
1601 1202 m 1
 1601 1398 l 1
 1801 1398 l 1
 1801 1202 l 1
 1601 1202 l 1
1400 1398 m 1
 1400 1599 l 1
 1601 1599 l 1
 1601 1398 l 1
 1400 1398 l 1
1601 -198 m 1
 1601 -396 l 1
 1400 -396 l 1
 1400 -198 l 1
 1601 -198 l 1
1400 -198 m 1
 1400 -2 l 1
 1601 -2 l 1
 1601 -198 l 1
 1400 -198 l 1
1200 1398 m 1
 1200 1599 l 1
 1400 1599 l 1
 1400 1398 l 1
 1200 1398 l 1
1400 -198 m 1
 1400 -396 l 1
 1200 -396 l 1
 1200 -198 l 1
 1400 -198 l 1
1200 -198 m 1
 1200 -2 l 1
 1400 -2 l 1
 1400 -198 l 1
 1200 -198 l 1
999 1398 m 1
 999 1599 l 1
 1200 1599 l 1
 1200 1398 l 1
 999 1398 l 1
999 -198 m 1
 999 -2 l 1
 1200 -2 l 1
 1200 -198 l 1
 999 -198 l 1
999 -2 m 1
 999 199 l 1
 1200 199 l 1
 1200 -2 l 1
 999 -2 l 1
999 199 m 1
 999 399 l 1
 1200 399 l 1
 1200 199 l 1
 999 199 l 1
999 399 m 1
 999 600 l 1
 1200 600 l 1
 1200 399 l 1
 999 399 l 1
999 600 m 1
 999 800 l 1
 1200 800 l 1
 1200 600 l 1
 999 600 l 1
999 1202 m 1
 999 1398 l 1
 1200 1398 l 1
 1200 1202 l 1
 999 1202 l 1
999 -198 m 1
 999 -396 l 1
 798 -396 l 1
 798 -198 l 1
 999 -198 l 1
798 -198 m 1
 798 -2 l 1
 999 -2 l 1
 999 -198 l 1
 798 -198 l 1
798 -2 m 1
 798 199 l 1
 999 199 l 1
 999 -2 l 1
 798 -2 l 1
798 199 m 1
 798 399 l 1
 999 399 l 1
 999 199 l 1
 798 199 l 1
798 399 m 1
 798 600 l 1
 999 600 l 1
 999 399 l 1
 798 399 l 1
798 1001 m 1
 798 1202 l 1
 999 1202 l 1
 999 1001 l 1
 798 1001 l 1
798 1202 m 1
 798 1398 l 1
 999 1398 l 1
 999 1202 l 1
 798 1202 l 1
602 1398 m 1
 602 1599 l 1
 798 1599 l 1
 798 1398 l 1
 602 1398 l 1
798 -198 m 1
 798 -396 l 1
 602 -396 l 1
 602 -198 l 1
 798 -198 l 1
602 -198 m 1
 602 -2 l 1
 798 -2 l 1
 798 -198 l 1
 602 -198 l 1
602 -2 m 1
 602 199 l 1
 798 199 l 1
 798 -2 l 1
 602 -2 l 1
602 199 m 1
 602 399 l 1
 798 399 l 1
 798 199 l 1
 602 199 l 1
602 399 m 1
 602 600 l 1
 798 600 l 1
 798 399 l 1
 602 399 l 1
602 600 m 1
 602 800 l 1
 798 800 l 1
 798 600 l 1
 602 600 l 1
602 1202 m 1
 602 1398 l 1
 798 1398 l 1
 798 1202 l 1
 602 1202 l 1
401 1398 m 1
 401 1599 l 1
 602 1599 l 1
 602 1398 l 1
 401 1398 l 1
602 -198 m 1
 602 -396 l 1
 401 -396 l 1
 401 -198 l 1
 602 -198 l 1
401 -198 m 1
 401 -2 l 1
 602 -2 l 1
 602 -198 l 1
 401 -198 l 1
201 1398 m 1
 201 1599 l 1
 401 1599 l 1
 401 1398 l 1
 201 1398 l 1
401 -198 m 1
 401 -396 l 1
 201 -396 l 1
 201 -198 l 1
 401 -198 l 1
201 -198 m 1
 201 -2 l 1
 401 -2 l 1
 401 -198 l 1
 201 -198 l 1
0 1398 m 1
 0 1599 l 1
 201 1599 l 1
 201 1398 l 1
 0 1398 l 1
0 -198 m 1
 0 -2 l 1
 201 -2 l 1
 201 -198 l 1
 0 -198 l 1
0 -2 m 1
 0 199 l 1
 201 199 l 1
 201 -2 l 1
 0 -2 l 1
0 199 m 1
 0 399 l 1
 201 399 l 1
 201 199 l 1
 0 199 l 1
0 399 m 1
 0 600 l 1
 201 600 l 1
 201 399 l 1
 0 399 l 1
0 600 m 1
 0 800 l 1
 201 800 l 1
 201 600 l 1
 0 600 l 1
0 800 m 1
 0 1001 l 1
 201 1001 l 1
 201 800 l 1
 0 800 l 1
0 1001 m 1
 0 1202 l 1
 201 1202 l 1
 201 1001 l 1
 0 1001 l 1
0 1202 m 1
 0 1398 l 1
 201 1398 l 1
 201 1202 l 1
 0 1202 l 1
EndSplineSet
Validated: 5
EndChar

StartChar: N
Encoding: 53 78 51
Width: 1801
Flags: W
LayerCount: 2
Fore
SplineSet
1998 -198 m 1
 1998 -396 l 1
 1801 -396 l 1
 1801 -198 l 1
 1998 -198 l 1
1801 -198 m 1
 1801 -2 l 1
 1998 -2 l 1
 1998 -198 l 1
 1801 -198 l 1
1801 -2 m 1
 1801 199 l 1
 1998 199 l 1
 1998 -2 l 1
 1801 -2 l 1
1801 199 m 1
 1801 399 l 1
 1998 399 l 1
 1998 199 l 1
 1801 199 l 1
1801 399 m 1
 1801 600 l 1
 1998 600 l 1
 1998 399 l 1
 1801 399 l 1
1801 600 m 1
 1801 800 l 1
 1998 800 l 1
 1998 600 l 1
 1801 600 l 1
1801 800 m 1
 1801 1001 l 1
 1998 1001 l 1
 1998 800 l 1
 1801 800 l 1
1801 1001 m 1
 1801 1202 l 1
 1998 1202 l 1
 1998 1001 l 1
 1801 1001 l 1
1801 1202 m 1
 1801 1398 l 1
 1998 1398 l 1
 1998 1202 l 1
 1801 1202 l 1
1601 1398 m 1
 1601 1599 l 1
 1801 1599 l 1
 1801 1398 l 1
 1601 1398 l 1
1801 -198 m 1
 1801 -396 l 1
 1601 -396 l 1
 1601 -198 l 1
 1801 -198 l 1
1601 -198 m 1
 1601 -2 l 1
 1801 -2 l 1
 1801 -198 l 1
 1601 -198 l 1
1601 -2 m 1
 1601 199 l 1
 1801 199 l 1
 1801 -2 l 1
 1601 -2 l 1
1601 199 m 1
 1601 399 l 1
 1801 399 l 1
 1801 199 l 1
 1601 199 l 1
1601 399 m 1
 1601 600 l 1
 1801 600 l 1
 1801 399 l 1
 1601 399 l 1
1601 600 m 1
 1601 800 l 1
 1801 800 l 1
 1801 600 l 1
 1601 600 l 1
1601 800 m 1
 1601 1001 l 1
 1801 1001 l 1
 1801 800 l 1
 1601 800 l 1
1601 1001 m 1
 1601 1202 l 1
 1801 1202 l 1
 1801 1001 l 1
 1601 1001 l 1
1601 1202 m 1
 1601 1398 l 1
 1801 1398 l 1
 1801 1202 l 1
 1601 1202 l 1
1400 1398 m 1
 1400 1599 l 1
 1601 1599 l 1
 1601 1398 l 1
 1400 1398 l 1
1601 -198 m 1
 1601 -396 l 1
 1400 -396 l 1
 1400 -198 l 1
 1601 -198 l 1
1400 -198 m 1
 1400 -2 l 1
 1601 -2 l 1
 1601 -198 l 1
 1400 -198 l 1
1200 1398 m 1
 1200 1599 l 1
 1400 1599 l 1
 1400 1398 l 1
 1200 1398 l 1
1400 -198 m 1
 1400 -396 l 1
 1200 -396 l 1
 1200 -198 l 1
 1400 -198 l 1
1200 -198 m 1
 1200 -2 l 1
 1400 -2 l 1
 1400 -198 l 1
 1200 -198 l 1
999 1398 m 1
 999 1599 l 1
 1200 1599 l 1
 1200 1398 l 1
 999 1398 l 1
999 -198 m 1
 999 -2 l 1
 1200 -2 l 1
 1200 -198 l 1
 999 -198 l 1
999 -2 m 1
 999 199 l 1
 1200 199 l 1
 1200 -2 l 1
 999 -2 l 1
999 199 m 1
 999 399 l 1
 1200 399 l 1
 1200 199 l 1
 999 199 l 1
999 800 m 1
 999 1001 l 1
 1200 1001 l 1
 1200 800 l 1
 999 800 l 1
999 1001 m 1
 999 1202 l 1
 1200 1202 l 1
 1200 1001 l 1
 999 1001 l 1
999 1202 m 1
 999 1398 l 1
 1200 1398 l 1
 1200 1202 l 1
 999 1202 l 1
999 -198 m 1
 999 -396 l 1
 798 -396 l 1
 798 -198 l 1
 999 -198 l 1
798 -198 m 1
 798 -2 l 1
 999 -2 l 1
 999 -198 l 1
 798 -198 l 1
798 -2 m 1
 798 199 l 1
 999 199 l 1
 999 -2 l 1
 798 -2 l 1
798 199 m 1
 798 399 l 1
 999 399 l 1
 999 199 l 1
 798 199 l 1
798 399 m 1
 798 600 l 1
 999 600 l 1
 999 399 l 1
 798 399 l 1
798 1001 m 1
 798 1202 l 1
 999 1202 l 1
 999 1001 l 1
 798 1001 l 1
798 1202 m 1
 798 1398 l 1
 999 1398 l 1
 999 1202 l 1
 798 1202 l 1
602 1398 m 1
 602 1599 l 1
 798 1599 l 1
 798 1398 l 1
 602 1398 l 1
798 -198 m 1
 798 -396 l 1
 602 -396 l 1
 602 -198 l 1
 798 -198 l 1
602 -198 m 1
 602 -2 l 1
 798 -2 l 1
 798 -198 l 1
 602 -198 l 1
602 -2 m 1
 602 199 l 1
 798 199 l 1
 798 -2 l 1
 602 -2 l 1
602 199 m 1
 602 399 l 1
 798 399 l 1
 798 199 l 1
 602 199 l 1
602 399 m 1
 602 600 l 1
 798 600 l 1
 798 399 l 1
 602 399 l 1
602 600 m 1
 602 800 l 1
 798 800 l 1
 798 600 l 1
 602 600 l 1
602 1202 m 1
 602 1398 l 1
 798 1398 l 1
 798 1202 l 1
 602 1202 l 1
401 1398 m 1
 401 1599 l 1
 602 1599 l 1
 602 1398 l 1
 401 1398 l 1
602 -198 m 1
 602 -396 l 1
 401 -396 l 1
 401 -198 l 1
 602 -198 l 1
401 -198 m 1
 401 -2 l 1
 602 -2 l 1
 602 -198 l 1
 401 -198 l 1
201 1398 m 1
 201 1599 l 1
 401 1599 l 1
 401 1398 l 1
 201 1398 l 1
401 -198 m 1
 401 -396 l 1
 201 -396 l 1
 201 -198 l 1
 401 -198 l 1
201 -198 m 1
 201 -2 l 1
 401 -2 l 1
 401 -198 l 1
 201 -198 l 1
0 1398 m 1
 0 1599 l 1
 201 1599 l 1
 201 1398 l 1
 0 1398 l 1
0 -198 m 1
 0 -2 l 1
 201 -2 l 1
 201 -198 l 1
 0 -198 l 1
0 -2 m 1
 0 199 l 1
 201 199 l 1
 201 -2 l 1
 0 -2 l 1
0 199 m 1
 0 399 l 1
 201 399 l 1
 201 199 l 1
 0 199 l 1
0 399 m 1
 0 600 l 1
 201 600 l 1
 201 399 l 1
 0 399 l 1
0 600 m 1
 0 800 l 1
 201 800 l 1
 201 600 l 1
 0 600 l 1
0 800 m 1
 0 1001 l 1
 201 1001 l 1
 201 800 l 1
 0 800 l 1
0 1001 m 1
 0 1202 l 1
 201 1202 l 1
 201 1001 l 1
 0 1001 l 1
0 1202 m 1
 0 1398 l 1
 201 1398 l 1
 201 1202 l 1
 0 1202 l 1
EndSplineSet
Validated: 5
EndChar

StartChar: O
Encoding: 54 79 52
Width: 1801
Flags: W
LayerCount: 2
Fore
SplineSet
1801 -198 m 1
 1801 -2 l 1
 1998 -2 l 1
 1998 -198 l 1
 1801 -198 l 1
1801 -2 m 1
 1801 199 l 1
 1998 199 l 1
 1998 -2 l 1
 1801 -2 l 1
1801 199 m 1
 1801 399 l 1
 1998 399 l 1
 1998 199 l 1
 1801 199 l 1
1801 399 m 1
 1801 600 l 1
 1998 600 l 1
 1998 399 l 1
 1801 399 l 1
1801 600 m 1
 1801 800 l 1
 1998 800 l 1
 1998 600 l 1
 1801 600 l 1
1801 800 m 1
 1801 1001 l 1
 1998 1001 l 1
 1998 800 l 1
 1801 800 l 1
1801 1001 m 1
 1801 1202 l 1
 1998 1202 l 1
 1998 1001 l 1
 1801 1001 l 1
1801 -198 m 1
 1801 -396 l 1
 1601 -396 l 1
 1601 -198 l 1
 1801 -198 l 1
1601 -198 m 1
 1601 -2 l 1
 1801 -2 l 1
 1801 -198 l 1
 1601 -198 l 1
1601 -2 m 1
 1601 199 l 1
 1801 199 l 1
 1801 -2 l 1
 1601 -2 l 1
1601 199 m 1
 1601 399 l 1
 1801 399 l 1
 1801 199 l 1
 1601 199 l 1
1601 399 m 1
 1601 600 l 1
 1801 600 l 1
 1801 399 l 1
 1601 399 l 1
1601 600 m 1
 1601 800 l 1
 1801 800 l 1
 1801 600 l 1
 1601 600 l 1
1601 800 m 1
 1601 1001 l 1
 1801 1001 l 1
 1801 800 l 1
 1601 800 l 1
1601 1001 m 1
 1601 1202 l 1
 1801 1202 l 1
 1801 1001 l 1
 1601 1001 l 1
1601 1202 m 1
 1601 1398 l 1
 1801 1398 l 1
 1801 1202 l 1
 1601 1202 l 1
1400 1398 m 1
 1400 1599 l 1
 1601 1599 l 1
 1601 1398 l 1
 1400 1398 l 1
1601 -198 m 1
 1601 -396 l 1
 1400 -396 l 1
 1400 -198 l 1
 1601 -198 l 1
1400 -198 m 1
 1400 -2 l 1
 1601 -2 l 1
 1601 -198 l 1
 1400 -198 l 1
1400 -2 m 1
 1400 199 l 1
 1601 199 l 1
 1601 -2 l 1
 1400 -2 l 1
1400 1202 m 1
 1400 1398 l 1
 1601 1398 l 1
 1601 1202 l 1
 1400 1202 l 1
1200 1398 m 1
 1200 1599 l 1
 1400 1599 l 1
 1400 1398 l 1
 1200 1398 l 1
1400 -198 m 1
 1400 -396 l 1
 1200 -396 l 1
 1200 -198 l 1
 1400 -198 l 1
1200 -198 m 1
 1200 -2 l 1
 1400 -2 l 1
 1400 -198 l 1
 1200 -198 l 1
999 1398 m 1
 999 1599 l 1
 1200 1599 l 1
 1200 1398 l 1
 999 1398 l 1
1200 -198 m 1
 1200 -396 l 1
 999 -396 l 1
 999 -198 l 1
 1200 -198 l 1
999 -198 m 1
 999 -2 l 1
 1200 -2 l 1
 1200 -198 l 1
 999 -198 l 1
999 199 m 1
 999 399 l 1
 1200 399 l 1
 1200 199 l 1
 999 199 l 1
999 399 m 1
 999 600 l 1
 1200 600 l 1
 1200 399 l 1
 999 399 l 1
999 600 m 1
 999 800 l 1
 1200 800 l 1
 1200 600 l 1
 999 600 l 1
999 800 m 1
 999 1001 l 1
 1200 1001 l 1
 1200 800 l 1
 999 800 l 1
999 1001 m 1
 999 1202 l 1
 1200 1202 l 1
 1200 1001 l 1
 999 1001 l 1
798 1398 m 1
 798 1599 l 1
 999 1599 l 1
 999 1398 l 1
 798 1398 l 1
999 -198 m 1
 999 -396 l 1
 798 -396 l 1
 798 -198 l 1
 999 -198 l 1
798 -198 m 1
 798 -2 l 1
 999 -2 l 1
 999 -198 l 1
 798 -198 l 1
798 199 m 1
 798 399 l 1
 999 399 l 1
 999 199 l 1
 798 199 l 1
798 399 m 1
 798 600 l 1
 999 600 l 1
 999 399 l 1
 798 399 l 1
798 600 m 1
 798 800 l 1
 999 800 l 1
 999 600 l 1
 798 600 l 1
798 800 m 1
 798 1001 l 1
 999 1001 l 1
 999 800 l 1
 798 800 l 1
798 1001 m 1
 798 1202 l 1
 999 1202 l 1
 999 1001 l 1
 798 1001 l 1
602 1398 m 1
 602 1599 l 1
 798 1599 l 1
 798 1398 l 1
 602 1398 l 1
798 -198 m 1
 798 -396 l 1
 602 -396 l 1
 602 -198 l 1
 798 -198 l 1
602 -198 m 1
 602 -2 l 1
 798 -2 l 1
 798 -198 l 1
 602 -198 l 1
602 199 m 1
 602 399 l 1
 798 399 l 1
 798 199 l 1
 602 199 l 1
602 399 m 1
 602 600 l 1
 798 600 l 1
 798 399 l 1
 602 399 l 1
602 600 m 1
 602 800 l 1
 798 800 l 1
 798 600 l 1
 602 600 l 1
602 800 m 1
 602 1001 l 1
 798 1001 l 1
 798 800 l 1
 602 800 l 1
602 1001 m 1
 602 1202 l 1
 798 1202 l 1
 798 1001 l 1
 602 1001 l 1
401 1398 m 1
 401 1599 l 1
 602 1599 l 1
 602 1398 l 1
 401 1398 l 1
602 -198 m 1
 602 -396 l 1
 401 -396 l 1
 401 -198 l 1
 602 -198 l 1
401 -198 m 1
 401 -2 l 1
 602 -2 l 1
 602 -198 l 1
 401 -198 l 1
201 1398 m 1
 201 1599 l 1
 401 1599 l 1
 401 1398 l 1
 201 1398 l 1
201 -198 m 1
 201 -2 l 1
 401 -2 l 1
 401 -198 l 1
 201 -198 l 1
201 -2 m 1
 201 199 l 1
 401 199 l 1
 401 -2 l 1
 201 -2 l 1
201 1202 m 1
 201 1398 l 1
 401 1398 l 1
 401 1202 l 1
 201 1202 l 1
0 -2 m 1
 0 199 l 1
 201 199 l 1
 201 -2 l 1
 0 -2 l 1
0 199 m 1
 0 399 l 1
 201 399 l 1
 201 199 l 1
 0 199 l 1
0 399 m 1
 0 600 l 1
 201 600 l 1
 201 399 l 1
 0 399 l 1
0 600 m 1
 0 800 l 1
 201 800 l 1
 201 600 l 1
 0 600 l 1
0 800 m 1
 0 1001 l 1
 201 1001 l 1
 201 800 l 1
 0 800 l 1
0 1001 m 1
 0 1202 l 1
 201 1202 l 1
 201 1001 l 1
 0 1001 l 1
0 1202 m 1
 0 1398 l 1
 201 1398 l 1
 201 1202 l 1
 0 1202 l 1
EndSplineSet
Validated: 5
EndChar

StartChar: P
Encoding: 55 80 53
Width: 1801
Flags: W
LayerCount: 2
Fore
SplineSet
1801 199 m 1
 1801 399 l 1
 1998 399 l 1
 1998 199 l 1
 1801 199 l 1
1801 399 m 1
 1801 600 l 1
 1998 600 l 1
 1998 399 l 1
 1801 399 l 1
1801 600 m 1
 1801 800 l 1
 1998 800 l 1
 1998 600 l 1
 1801 600 l 1
1801 800 m 1
 1801 1001 l 1
 1998 1001 l 1
 1998 800 l 1
 1801 800 l 1
1801 1001 m 1
 1801 1202 l 1
 1998 1202 l 1
 1998 1001 l 1
 1801 1001 l 1
1601 -2 m 1
 1601 199 l 1
 1801 199 l 1
 1801 -2 l 1
 1601 -2 l 1
1601 199 m 1
 1601 399 l 1
 1801 399 l 1
 1801 199 l 1
 1601 199 l 1
1601 399 m 1
 1601 600 l 1
 1801 600 l 1
 1801 399 l 1
 1601 399 l 1
1601 600 m 1
 1601 800 l 1
 1801 800 l 1
 1801 600 l 1
 1601 600 l 1
1601 800 m 1
 1601 1001 l 1
 1801 1001 l 1
 1801 800 l 1
 1601 800 l 1
1601 1001 m 1
 1601 1202 l 1
 1801 1202 l 1
 1801 1001 l 1
 1601 1001 l 1
1601 1202 m 1
 1601 1398 l 1
 1801 1398 l 1
 1801 1202 l 1
 1601 1202 l 1
1400 1398 m 1
 1400 1599 l 1
 1601 1599 l 1
 1601 1398 l 1
 1400 1398 l 1
1400 -2 m 1
 1400 199 l 1
 1601 199 l 1
 1601 -2 l 1
 1400 -2 l 1
1400 199 m 1
 1400 399 l 1
 1601 399 l 1
 1601 199 l 1
 1400 199 l 1
1400 399 m 1
 1400 600 l 1
 1601 600 l 1
 1601 399 l 1
 1400 399 l 1
1400 1202 m 1
 1400 1398 l 1
 1601 1398 l 1
 1601 1202 l 1
 1400 1202 l 1
1200 1398 m 1
 1200 1599 l 1
 1400 1599 l 1
 1400 1398 l 1
 1200 1398 l 1
1200 -2 m 1
 1200 199 l 1
 1400 199 l 1
 1400 -2 l 1
 1200 -2 l 1
1200 199 m 1
 1200 399 l 1
 1400 399 l 1
 1400 199 l 1
 1200 199 l 1
999 1398 m 1
 999 1599 l 1
 1200 1599 l 1
 1200 1398 l 1
 999 1398 l 1
999 -2 m 1
 999 199 l 1
 1200 199 l 1
 1200 -2 l 1
 999 -2 l 1
999 199 m 1
 999 399 l 1
 1200 399 l 1
 1200 199 l 1
 999 199 l 1
999 600 m 1
 999 800 l 1
 1200 800 l 1
 1200 600 l 1
 999 600 l 1
999 800 m 1
 999 1001 l 1
 1200 1001 l 1
 1200 800 l 1
 999 800 l 1
999 1001 m 1
 999 1202 l 1
 1200 1202 l 1
 1200 1001 l 1
 999 1001 l 1
798 1398 m 1
 798 1599 l 1
 999 1599 l 1
 999 1398 l 1
 798 1398 l 1
999 -198 m 1
 999 -396 l 1
 798 -396 l 1
 798 -198 l 1
 999 -198 l 1
798 -198 m 1
 798 -2 l 1
 999 -2 l 1
 999 -198 l 1
 798 -198 l 1
798 -2 m 1
 798 199 l 1
 999 199 l 1
 999 -2 l 1
 798 -2 l 1
798 199 m 1
 798 399 l 1
 999 399 l 1
 999 199 l 1
 798 199 l 1
798 600 m 1
 798 800 l 1
 999 800 l 1
 999 600 l 1
 798 600 l 1
798 800 m 1
 798 1001 l 1
 999 1001 l 1
 999 800 l 1
 798 800 l 1
798 1001 m 1
 798 1202 l 1
 999 1202 l 1
 999 1001 l 1
 798 1001 l 1
602 1398 m 1
 602 1599 l 1
 798 1599 l 1
 798 1398 l 1
 602 1398 l 1
798 -198 m 1
 798 -396 l 1
 602 -396 l 1
 602 -198 l 1
 798 -198 l 1
602 -198 m 1
 602 -2 l 1
 798 -2 l 1
 798 -198 l 1
 602 -198 l 1
602 -2 m 1
 602 199 l 1
 798 199 l 1
 798 -2 l 1
 602 -2 l 1
602 199 m 1
 602 399 l 1
 798 399 l 1
 798 199 l 1
 602 199 l 1
602 600 m 1
 602 800 l 1
 798 800 l 1
 798 600 l 1
 602 600 l 1
602 800 m 1
 602 1001 l 1
 798 1001 l 1
 798 800 l 1
 602 800 l 1
602 1001 m 1
 602 1202 l 1
 798 1202 l 1
 798 1001 l 1
 602 1001 l 1
401 1398 m 1
 401 1599 l 1
 602 1599 l 1
 602 1398 l 1
 401 1398 l 1
602 -198 m 1
 602 -396 l 1
 401 -396 l 1
 401 -198 l 1
 602 -198 l 1
401 -198 m 1
 401 -2 l 1
 602 -2 l 1
 602 -198 l 1
 401 -198 l 1
201 1398 m 1
 201 1599 l 1
 401 1599 l 1
 401 1398 l 1
 201 1398 l 1
401 -198 m 1
 401 -396 l 1
 201 -396 l 1
 201 -198 l 1
 401 -198 l 1
201 -198 m 1
 201 -2 l 1
 401 -2 l 1
 401 -198 l 1
 201 -198 l 1
0 1398 m 1
 0 1599 l 1
 201 1599 l 1
 201 1398 l 1
 0 1398 l 1
0 -198 m 1
 0 -2 l 1
 201 -2 l 1
 201 -198 l 1
 0 -198 l 1
0 -2 m 1
 0 199 l 1
 201 199 l 1
 201 -2 l 1
 0 -2 l 1
0 199 m 1
 0 399 l 1
 201 399 l 1
 201 199 l 1
 0 199 l 1
0 399 m 1
 0 600 l 1
 201 600 l 1
 201 399 l 1
 0 399 l 1
0 600 m 1
 0 800 l 1
 201 800 l 1
 201 600 l 1
 0 600 l 1
0 800 m 1
 0 1001 l 1
 201 1001 l 1
 201 800 l 1
 0 800 l 1
0 1001 m 1
 0 1202 l 1
 201 1202 l 1
 201 1001 l 1
 0 1001 l 1
0 1202 m 1
 0 1398 l 1
 201 1398 l 1
 201 1202 l 1
 0 1202 l 1
EndSplineSet
Validated: 5
EndChar

StartChar: Q
Encoding: 56 81 54
Width: 1801
Flags: W
LayerCount: 2
Fore
SplineSet
1998 -198 m 1
 1998 -396 l 1
 1801 -396 l 1
 1801 -198 l 1
 1998 -198 l 1
1801 -198 m 1
 1801 -2 l 1
 1998 -2 l 1
 1998 -198 l 1
 1801 -198 l 1
1801 -2 m 1
 1801 199 l 1
 1998 199 l 1
 1998 -2 l 1
 1801 -2 l 1
1801 199 m 1
 1801 399 l 1
 1998 399 l 1
 1998 199 l 1
 1801 199 l 1
1801 399 m 1
 1801 600 l 1
 1998 600 l 1
 1998 399 l 1
 1801 399 l 1
1801 600 m 1
 1801 800 l 1
 1998 800 l 1
 1998 600 l 1
 1801 600 l 1
1801 800 m 1
 1801 1001 l 1
 1998 1001 l 1
 1998 800 l 1
 1801 800 l 1
1801 1001 m 1
 1801 1202 l 1
 1998 1202 l 1
 1998 1001 l 1
 1801 1001 l 1
1801 -198 m 1
 1801 -396 l 1
 1601 -396 l 1
 1601 -198 l 1
 1801 -198 l 1
1601 -198 m 1
 1601 -2 l 1
 1801 -2 l 1
 1801 -198 l 1
 1601 -198 l 1
1601 -2 m 1
 1601 199 l 1
 1801 199 l 1
 1801 -2 l 1
 1601 -2 l 1
1601 199 m 1
 1601 399 l 1
 1801 399 l 1
 1801 199 l 1
 1601 199 l 1
1601 399 m 1
 1601 600 l 1
 1801 600 l 1
 1801 399 l 1
 1601 399 l 1
1601 600 m 1
 1601 800 l 1
 1801 800 l 1
 1801 600 l 1
 1601 600 l 1
1601 800 m 1
 1601 1001 l 1
 1801 1001 l 1
 1801 800 l 1
 1601 800 l 1
1601 1001 m 1
 1601 1202 l 1
 1801 1202 l 1
 1801 1001 l 1
 1601 1001 l 1
1601 1202 m 1
 1601 1398 l 1
 1801 1398 l 1
 1801 1202 l 1
 1601 1202 l 1
1400 1398 m 1
 1400 1599 l 1
 1601 1599 l 1
 1601 1398 l 1
 1400 1398 l 1
1601 -198 m 1
 1601 -396 l 1
 1400 -396 l 1
 1400 -198 l 1
 1601 -198 l 1
1400 -198 m 1
 1400 -2 l 1
 1601 -2 l 1
 1601 -198 l 1
 1400 -198 l 1
1400 199 m 1
 1400 399 l 1
 1601 399 l 1
 1601 199 l 1
 1400 199 l 1
1400 1202 m 1
 1400 1398 l 1
 1601 1398 l 1
 1601 1202 l 1
 1400 1202 l 1
1200 1398 m 1
 1200 1599 l 1
 1400 1599 l 1
 1400 1398 l 1
 1200 1398 l 1
1400 -198 m 1
 1400 -396 l 1
 1200 -396 l 1
 1200 -198 l 1
 1400 -198 l 1
1200 -198 m 1
 1200 -2 l 1
 1400 -2 l 1
 1400 -198 l 1
 1200 -198 l 1
999 1398 m 1
 999 1599 l 1
 1200 1599 l 1
 1200 1398 l 1
 999 1398 l 1
1200 -198 m 1
 1200 -396 l 1
 999 -396 l 1
 999 -198 l 1
 1200 -198 l 1
999 -198 m 1
 999 -2 l 1
 1200 -2 l 1
 1200 -198 l 1
 999 -198 l 1
999 399 m 1
 999 600 l 1
 1200 600 l 1
 1200 399 l 1
 999 399 l 1
999 600 m 1
 999 800 l 1
 1200 800 l 1
 1200 600 l 1
 999 600 l 1
999 800 m 1
 999 1001 l 1
 1200 1001 l 1
 1200 800 l 1
 999 800 l 1
999 1001 m 1
 999 1202 l 1
 1200 1202 l 1
 1200 1001 l 1
 999 1001 l 1
798 1398 m 1
 798 1599 l 1
 999 1599 l 1
 999 1398 l 1
 798 1398 l 1
999 -198 m 1
 999 -396 l 1
 798 -396 l 1
 798 -198 l 1
 999 -198 l 1
798 -198 m 1
 798 -2 l 1
 999 -2 l 1
 999 -198 l 1
 798 -198 l 1
798 199 m 1
 798 399 l 1
 999 399 l 1
 999 199 l 1
 798 199 l 1
798 399 m 1
 798 600 l 1
 999 600 l 1
 999 399 l 1
 798 399 l 1
798 600 m 1
 798 800 l 1
 999 800 l 1
 999 600 l 1
 798 600 l 1
798 800 m 1
 798 1001 l 1
 999 1001 l 1
 999 800 l 1
 798 800 l 1
798 1001 m 1
 798 1202 l 1
 999 1202 l 1
 999 1001 l 1
 798 1001 l 1
602 1398 m 1
 602 1599 l 1
 798 1599 l 1
 798 1398 l 1
 602 1398 l 1
798 -198 m 1
 798 -396 l 1
 602 -396 l 1
 602 -198 l 1
 798 -198 l 1
602 -198 m 1
 602 -2 l 1
 798 -2 l 1
 798 -198 l 1
 602 -198 l 1
602 199 m 1
 602 399 l 1
 798 399 l 1
 798 199 l 1
 602 199 l 1
602 399 m 1
 602 600 l 1
 798 600 l 1
 798 399 l 1
 602 399 l 1
602 600 m 1
 602 800 l 1
 798 800 l 1
 798 600 l 1
 602 600 l 1
602 800 m 1
 602 1001 l 1
 798 1001 l 1
 798 800 l 1
 602 800 l 1
602 1001 m 1
 602 1202 l 1
 798 1202 l 1
 798 1001 l 1
 602 1001 l 1
401 1398 m 1
 401 1599 l 1
 602 1599 l 1
 602 1398 l 1
 401 1398 l 1
602 -198 m 1
 602 -396 l 1
 401 -396 l 1
 401 -198 l 1
 602 -198 l 1
401 -198 m 1
 401 -2 l 1
 602 -2 l 1
 602 -198 l 1
 401 -198 l 1
201 1398 m 1
 201 1599 l 1
 401 1599 l 1
 401 1398 l 1
 201 1398 l 1
201 -198 m 1
 201 -2 l 1
 401 -2 l 1
 401 -198 l 1
 201 -198 l 1
201 -2 m 1
 201 199 l 1
 401 199 l 1
 401 -2 l 1
 201 -2 l 1
201 1202 m 1
 201 1398 l 1
 401 1398 l 1
 401 1202 l 1
 201 1202 l 1
0 -2 m 1
 0 199 l 1
 201 199 l 1
 201 -2 l 1
 0 -2 l 1
0 199 m 1
 0 399 l 1
 201 399 l 1
 201 199 l 1
 0 199 l 1
0 399 m 1
 0 600 l 1
 201 600 l 1
 201 399 l 1
 0 399 l 1
0 600 m 1
 0 800 l 1
 201 800 l 1
 201 600 l 1
 0 600 l 1
0 800 m 1
 0 1001 l 1
 201 1001 l 1
 201 800 l 1
 0 800 l 1
0 1001 m 1
 0 1202 l 1
 201 1202 l 1
 201 1001 l 1
 0 1001 l 1
0 1202 m 1
 0 1398 l 1
 201 1398 l 1
 201 1202 l 1
 0 1202 l 1
EndSplineSet
Validated: 5
EndChar

StartChar: R
Encoding: 57 82 55
Width: 1801
Flags: W
LayerCount: 2
Fore
SplineSet
1998 -198 m 1
 1998 -396 l 1
 1801 -396 l 1
 1801 -198 l 1
 1998 -198 l 1
1801 -198 m 1
 1801 -2 l 1
 1998 -2 l 1
 1998 -198 l 1
 1801 -198 l 1
1801 -2 m 1
 1801 199 l 1
 1998 199 l 1
 1998 -2 l 1
 1801 -2 l 1
1801 199 m 1
 1801 399 l 1
 1998 399 l 1
 1998 199 l 1
 1801 199 l 1
1801 399 m 1
 1801 600 l 1
 1998 600 l 1
 1998 399 l 1
 1801 399 l 1
1801 600 m 1
 1801 800 l 1
 1998 800 l 1
 1998 600 l 1
 1801 600 l 1
1801 800 m 1
 1801 1001 l 1
 1998 1001 l 1
 1998 800 l 1
 1801 800 l 1
1801 1001 m 1
 1801 1202 l 1
 1998 1202 l 1
 1998 1001 l 1
 1801 1001 l 1
1801 -198 m 1
 1801 -396 l 1
 1601 -396 l 1
 1601 -198 l 1
 1801 -198 l 1
1601 -198 m 1
 1601 -2 l 1
 1801 -2 l 1
 1801 -198 l 1
 1601 -198 l 1
1601 -2 m 1
 1601 199 l 1
 1801 199 l 1
 1801 -2 l 1
 1601 -2 l 1
1601 199 m 1
 1601 399 l 1
 1801 399 l 1
 1801 199 l 1
 1601 199 l 1
1601 399 m 1
 1601 600 l 1
 1801 600 l 1
 1801 399 l 1
 1601 399 l 1
1601 600 m 1
 1601 800 l 1
 1801 800 l 1
 1801 600 l 1
 1601 600 l 1
1601 800 m 1
 1601 1001 l 1
 1801 1001 l 1
 1801 800 l 1
 1601 800 l 1
1601 1001 m 1
 1601 1202 l 1
 1801 1202 l 1
 1801 1001 l 1
 1601 1001 l 1
1601 1202 m 1
 1601 1398 l 1
 1801 1398 l 1
 1801 1202 l 1
 1601 1202 l 1
1400 1398 m 1
 1400 1599 l 1
 1601 1599 l 1
 1601 1398 l 1
 1400 1398 l 1
1601 -198 m 1
 1601 -396 l 1
 1400 -396 l 1
 1400 -198 l 1
 1601 -198 l 1
1400 -198 m 1
 1400 -2 l 1
 1601 -2 l 1
 1601 -198 l 1
 1400 -198 l 1
1400 600 m 1
 1400 800 l 1
 1601 800 l 1
 1601 600 l 1
 1400 600 l 1
1400 1202 m 1
 1400 1398 l 1
 1601 1398 l 1
 1601 1202 l 1
 1400 1202 l 1
1200 1398 m 1
 1200 1599 l 1
 1400 1599 l 1
 1400 1398 l 1
 1200 1398 l 1
1400 -198 m 1
 1400 -396 l 1
 1200 -396 l 1
 1200 -198 l 1
 1400 -198 l 1
1200 -198 m 1
 1200 -2 l 1
 1400 -2 l 1
 1400 -198 l 1
 1200 -198 l 1
999 1398 m 1
 999 1599 l 1
 1200 1599 l 1
 1200 1398 l 1
 999 1398 l 1
999 -198 m 1
 999 -2 l 1
 1200 -2 l 1
 1200 -198 l 1
 999 -198 l 1
999 -2 m 1
 999 199 l 1
 1200 199 l 1
 1200 -2 l 1
 999 -2 l 1
999 199 m 1
 999 399 l 1
 1200 399 l 1
 1200 199 l 1
 999 199 l 1
999 399 m 1
 999 600 l 1
 1200 600 l 1
 1200 399 l 1
 999 399 l 1
999 800 m 1
 999 1001 l 1
 1200 1001 l 1
 1200 800 l 1
 999 800 l 1
999 1001 m 1
 999 1202 l 1
 1200 1202 l 1
 1200 1001 l 1
 999 1001 l 1
798 1398 m 1
 798 1599 l 1
 999 1599 l 1
 999 1398 l 1
 798 1398 l 1
999 -198 m 1
 999 -396 l 1
 798 -396 l 1
 798 -198 l 1
 999 -198 l 1
798 -198 m 1
 798 -2 l 1
 999 -2 l 1
 999 -198 l 1
 798 -198 l 1
798 -2 m 1
 798 199 l 1
 999 199 l 1
 999 -2 l 1
 798 -2 l 1
798 199 m 1
 798 399 l 1
 999 399 l 1
 999 199 l 1
 798 199 l 1
798 399 m 1
 798 600 l 1
 999 600 l 1
 999 399 l 1
 798 399 l 1
798 800 m 1
 798 1001 l 1
 999 1001 l 1
 999 800 l 1
 798 800 l 1
798 1001 m 1
 798 1202 l 1
 999 1202 l 1
 999 1001 l 1
 798 1001 l 1
602 1398 m 1
 602 1599 l 1
 798 1599 l 1
 798 1398 l 1
 602 1398 l 1
798 -198 m 1
 798 -396 l 1
 602 -396 l 1
 602 -198 l 1
 798 -198 l 1
602 -198 m 1
 602 -2 l 1
 798 -2 l 1
 798 -198 l 1
 602 -198 l 1
602 -2 m 1
 602 199 l 1
 798 199 l 1
 798 -2 l 1
 602 -2 l 1
602 199 m 1
 602 399 l 1
 798 399 l 1
 798 199 l 1
 602 199 l 1
602 399 m 1
 602 600 l 1
 798 600 l 1
 798 399 l 1
 602 399 l 1
602 800 m 1
 602 1001 l 1
 798 1001 l 1
 798 800 l 1
 602 800 l 1
602 1001 m 1
 602 1202 l 1
 798 1202 l 1
 798 1001 l 1
 602 1001 l 1
401 1398 m 1
 401 1599 l 1
 602 1599 l 1
 602 1398 l 1
 401 1398 l 1
602 -198 m 1
 602 -396 l 1
 401 -396 l 1
 401 -198 l 1
 602 -198 l 1
401 -198 m 1
 401 -2 l 1
 602 -2 l 1
 602 -198 l 1
 401 -198 l 1
201 1398 m 1
 201 1599 l 1
 401 1599 l 1
 401 1398 l 1
 201 1398 l 1
401 -198 m 1
 401 -396 l 1
 201 -396 l 1
 201 -198 l 1
 401 -198 l 1
201 -198 m 1
 201 -2 l 1
 401 -2 l 1
 401 -198 l 1
 201 -198 l 1
0 1398 m 1
 0 1599 l 1
 201 1599 l 1
 201 1398 l 1
 0 1398 l 1
0 -198 m 1
 0 -2 l 1
 201 -2 l 1
 201 -198 l 1
 0 -198 l 1
0 -2 m 1
 0 199 l 1
 201 199 l 1
 201 -2 l 1
 0 -2 l 1
0 199 m 1
 0 399 l 1
 201 399 l 1
 201 199 l 1
 0 199 l 1
0 399 m 1
 0 600 l 1
 201 600 l 1
 201 399 l 1
 0 399 l 1
0 600 m 1
 0 800 l 1
 201 800 l 1
 201 600 l 1
 0 600 l 1
0 800 m 1
 0 1001 l 1
 201 1001 l 1
 201 800 l 1
 0 800 l 1
0 1001 m 1
 0 1202 l 1
 201 1202 l 1
 201 1001 l 1
 0 1001 l 1
0 1202 m 1
 0 1398 l 1
 201 1398 l 1
 201 1202 l 1
 0 1202 l 1
EndSplineSet
Validated: 5
EndChar

StartChar: S
Encoding: 58 83 56
Width: 1801
Flags: W
LayerCount: 2
Fore
SplineSet
1801 -198 m 1
 1801 -2 l 1
 1998 -2 l 1
 1998 -198 l 1
 1801 -198 l 1
1801 -2 m 1
 1801 199 l 1
 1998 199 l 1
 1998 -2 l 1
 1801 -2 l 1
1801 199 m 1
 1801 399 l 1
 1998 399 l 1
 1998 199 l 1
 1801 199 l 1
1801 399 m 1
 1801 600 l 1
 1998 600 l 1
 1998 399 l 1
 1801 399 l 1
1801 600 m 1
 1801 800 l 1
 1998 800 l 1
 1998 600 l 1
 1801 600 l 1
1801 800 m 1
 1801 1001 l 1
 1998 1001 l 1
 1998 800 l 1
 1801 800 l 1
1801 1001 m 1
 1801 1202 l 1
 1998 1202 l 1
 1998 1001 l 1
 1801 1001 l 1
1801 -198 m 1
 1801 -396 l 1
 1601 -396 l 1
 1601 -198 l 1
 1801 -198 l 1
1601 -198 m 1
 1601 -2 l 1
 1801 -2 l 1
 1801 -198 l 1
 1601 -198 l 1
1601 -2 m 1
 1601 199 l 1
 1801 199 l 1
 1801 -2 l 1
 1601 -2 l 1
1601 199 m 1
 1601 399 l 1
 1801 399 l 1
 1801 199 l 1
 1601 199 l 1
1601 399 m 1
 1601 600 l 1
 1801 600 l 1
 1801 399 l 1
 1601 399 l 1
1601 600 m 1
 1601 800 l 1
 1801 800 l 1
 1801 600 l 1
 1601 600 l 1
1601 800 m 1
 1601 1001 l 1
 1801 1001 l 1
 1801 800 l 1
 1601 800 l 1
1601 1001 m 1
 1601 1202 l 1
 1801 1202 l 1
 1801 1001 l 1
 1601 1001 l 1
1601 1202 m 1
 1601 1398 l 1
 1801 1398 l 1
 1801 1202 l 1
 1601 1202 l 1
1400 1398 m 1
 1400 1599 l 1
 1601 1599 l 1
 1601 1398 l 1
 1400 1398 l 1
1601 -198 m 1
 1601 -396 l 1
 1400 -396 l 1
 1400 -198 l 1
 1601 -198 l 1
1400 -198 m 1
 1400 -2 l 1
 1601 -2 l 1
 1601 -198 l 1
 1400 -198 l 1
1400 -2 m 1
 1400 199 l 1
 1601 199 l 1
 1601 -2 l 1
 1400 -2 l 1
1400 600 m 1
 1400 800 l 1
 1601 800 l 1
 1601 600 l 1
 1400 600 l 1
1400 800 m 1
 1400 1001 l 1
 1601 1001 l 1
 1601 800 l 1
 1400 800 l 1
1400 1202 m 1
 1400 1398 l 1
 1601 1398 l 1
 1601 1202 l 1
 1400 1202 l 1
1200 1398 m 1
 1200 1599 l 1
 1400 1599 l 1
 1400 1398 l 1
 1200 1398 l 1
1400 -198 m 1
 1400 -396 l 1
 1200 -396 l 1
 1200 -198 l 1
 1400 -198 l 1
1200 -198 m 1
 1200 -2 l 1
 1400 -2 l 1
 1400 -198 l 1
 1200 -198 l 1
1200 800 m 1
 1200 1001 l 1
 1400 1001 l 1
 1400 800 l 1
 1200 800 l 1
999 1398 m 1
 999 1599 l 1
 1200 1599 l 1
 1200 1398 l 1
 999 1398 l 1
1200 -198 m 1
 1200 -396 l 1
 999 -396 l 1
 999 -198 l 1
 1200 -198 l 1
999 -198 m 1
 999 -2 l 1
 1200 -2 l 1
 1200 -198 l 1
 999 -198 l 1
999 199 m 1
 999 399 l 1
 1200 399 l 1
 1200 199 l 1
 999 199 l 1
999 399 m 1
 999 600 l 1
 1200 600 l 1
 1200 399 l 1
 999 399 l 1
999 800 m 1
 999 1001 l 1
 1200 1001 l 1
 1200 800 l 1
 999 800 l 1
999 1001 m 1
 999 1202 l 1
 1200 1202 l 1
 1200 1001 l 1
 999 1001 l 1
798 1398 m 1
 798 1599 l 1
 999 1599 l 1
 999 1398 l 1
 798 1398 l 1
999 -198 m 1
 999 -396 l 1
 798 -396 l 1
 798 -198 l 1
 999 -198 l 1
798 -198 m 1
 798 -2 l 1
 999 -2 l 1
 999 -198 l 1
 798 -198 l 1
798 199 m 1
 798 399 l 1
 999 399 l 1
 999 199 l 1
 798 199 l 1
798 399 m 1
 798 600 l 1
 999 600 l 1
 999 399 l 1
 798 399 l 1
798 800 m 1
 798 1001 l 1
 999 1001 l 1
 999 800 l 1
 798 800 l 1
798 1001 m 1
 798 1202 l 1
 999 1202 l 1
 999 1001 l 1
 798 1001 l 1
602 1398 m 1
 602 1599 l 1
 798 1599 l 1
 798 1398 l 1
 602 1398 l 1
798 -198 m 1
 798 -396 l 1
 602 -396 l 1
 602 -198 l 1
 798 -198 l 1
602 -198 m 1
 602 -2 l 1
 798 -2 l 1
 798 -198 l 1
 602 -198 l 1
602 199 m 1
 602 399 l 1
 798 399 l 1
 798 199 l 1
 602 199 l 1
602 399 m 1
 602 600 l 1
 798 600 l 1
 798 399 l 1
 602 399 l 1
602 800 m 1
 602 1001 l 1
 798 1001 l 1
 798 800 l 1
 602 800 l 1
602 1001 m 1
 602 1202 l 1
 798 1202 l 1
 798 1001 l 1
 602 1001 l 1
401 1398 m 1
 401 1599 l 1
 602 1599 l 1
 602 1398 l 1
 401 1398 l 1
602 -198 m 1
 602 -396 l 1
 401 -396 l 1
 401 -198 l 1
 602 -198 l 1
401 -198 m 1
 401 -2 l 1
 602 -2 l 1
 602 -198 l 1
 401 -198 l 1
401 399 m 1
 401 600 l 1
 602 600 l 1
 602 399 l 1
 401 399 l 1
201 1398 m 1
 201 1599 l 1
 401 1599 l 1
 401 1398 l 1
 201 1398 l 1
201 -198 m 1
 201 -2 l 1
 401 -2 l 1
 401 -198 l 1
 201 -198 l 1
201 -2 m 1
 201 199 l 1
 401 199 l 1
 401 -2 l 1
 201 -2 l 1
201 399 m 1
 201 600 l 1
 401 600 l 1
 401 399 l 1
 201 399 l 1
201 600 m 1
 201 800 l 1
 401 800 l 1
 401 600 l 1
 201 600 l 1
201 1202 m 1
 201 1398 l 1
 401 1398 l 1
 401 1202 l 1
 201 1202 l 1
0 -2 m 1
 0 199 l 1
 201 199 l 1
 201 -2 l 1
 0 -2 l 1
0 199 m 1
 0 399 l 1
 201 399 l 1
 201 199 l 1
 0 199 l 1
0 399 m 1
 0 600 l 1
 201 600 l 1
 201 399 l 1
 0 399 l 1
0 600 m 1
 0 800 l 1
 201 800 l 1
 201 600 l 1
 0 600 l 1
0 800 m 1
 0 1001 l 1
 201 1001 l 1
 201 800 l 1
 0 800 l 1
0 1001 m 1
 0 1202 l 1
 201 1202 l 1
 201 1001 l 1
 0 1001 l 1
0 1202 m 1
 0 1398 l 1
 201 1398 l 1
 201 1202 l 1
 0 1202 l 1
EndSplineSet
Validated: 5
EndChar

StartChar: T
Encoding: 59 84 57
Width: 1601
Flags: W
LayerCount: 2
Fore
SplineSet
1601 800 m 1
 1601 1001 l 1
 1801 1001 l 1
 1801 800 l 1
 1601 800 l 1
1601 1001 m 1
 1601 1202 l 1
 1801 1202 l 1
 1801 1001 l 1
 1601 1001 l 1
1601 1202 m 1
 1601 1398 l 1
 1801 1398 l 1
 1801 1202 l 1
 1601 1202 l 1
1400 1398 m 1
 1400 1599 l 1
 1601 1599 l 1
 1601 1398 l 1
 1400 1398 l 1
1400 800 m 1
 1400 1001 l 1
 1601 1001 l 1
 1601 800 l 1
 1400 800 l 1
1400 1001 m 1
 1400 1202 l 1
 1601 1202 l 1
 1601 1001 l 1
 1400 1001 l 1
1400 1202 m 1
 1400 1398 l 1
 1601 1398 l 1
 1601 1202 l 1
 1400 1202 l 1
1200 1398 m 1
 1200 1599 l 1
 1400 1599 l 1
 1400 1398 l 1
 1200 1398 l 1
1400 -198 m 1
 1400 -396 l 1
 1200 -396 l 1
 1200 -198 l 1
 1400 -198 l 1
1200 -198 m 1
 1200 -2 l 1
 1400 -2 l 1
 1400 -198 l 1
 1200 -198 l 1
1200 -2 m 1
 1200 199 l 1
 1400 199 l 1
 1400 -2 l 1
 1200 -2 l 1
1200 199 m 1
 1200 399 l 1
 1400 399 l 1
 1400 199 l 1
 1200 199 l 1
1200 399 m 1
 1200 600 l 1
 1400 600 l 1
 1400 399 l 1
 1200 399 l 1
1200 600 m 1
 1200 800 l 1
 1400 800 l 1
 1400 600 l 1
 1200 600 l 1
1200 800 m 1
 1200 1001 l 1
 1400 1001 l 1
 1400 800 l 1
 1200 800 l 1
1200 1001 m 1
 1200 1202 l 1
 1400 1202 l 1
 1400 1001 l 1
 1200 1001 l 1
999 1398 m 1
 999 1599 l 1
 1200 1599 l 1
 1200 1398 l 1
 999 1398 l 1
1200 -198 m 1
 1200 -396 l 1
 999 -396 l 1
 999 -198 l 1
 1200 -198 l 1
999 -198 m 1
 999 -2 l 1
 1200 -2 l 1
 1200 -198 l 1
 999 -198 l 1
999 -2 m 1
 999 199 l 1
 1200 199 l 1
 1200 -2 l 1
 999 -2 l 1
999 199 m 1
 999 399 l 1
 1200 399 l 1
 1200 199 l 1
 999 199 l 1
999 399 m 1
 999 600 l 1
 1200 600 l 1
 1200 399 l 1
 999 399 l 1
999 600 m 1
 999 800 l 1
 1200 800 l 1
 1200 600 l 1
 999 600 l 1
999 800 m 1
 999 1001 l 1
 1200 1001 l 1
 1200 800 l 1
 999 800 l 1
999 1001 m 1
 999 1202 l 1
 1200 1202 l 1
 1200 1001 l 1
 999 1001 l 1
798 1398 m 1
 798 1599 l 1
 999 1599 l 1
 999 1398 l 1
 798 1398 l 1
999 -198 m 1
 999 -396 l 1
 798 -396 l 1
 798 -198 l 1
 999 -198 l 1
798 -198 m 1
 798 -2 l 1
 999 -2 l 1
 999 -198 l 1
 798 -198 l 1
602 1398 m 1
 602 1599 l 1
 798 1599 l 1
 798 1398 l 1
 602 1398 l 1
798 -198 m 1
 798 -396 l 1
 602 -396 l 1
 602 -198 l 1
 798 -198 l 1
602 -198 m 1
 602 -2 l 1
 798 -2 l 1
 798 -198 l 1
 602 -198 l 1
401 1398 m 1
 401 1599 l 1
 602 1599 l 1
 602 1398 l 1
 401 1398 l 1
401 -198 m 1
 401 -2 l 1
 602 -2 l 1
 602 -198 l 1
 401 -198 l 1
401 -2 m 1
 401 199 l 1
 602 199 l 1
 602 -2 l 1
 401 -2 l 1
401 199 m 1
 401 399 l 1
 602 399 l 1
 602 199 l 1
 401 199 l 1
401 399 m 1
 401 600 l 1
 602 600 l 1
 602 399 l 1
 401 399 l 1
401 600 m 1
 401 800 l 1
 602 800 l 1
 602 600 l 1
 401 600 l 1
401 800 m 1
 401 1001 l 1
 602 1001 l 1
 602 800 l 1
 401 800 l 1
401 1001 m 1
 401 1202 l 1
 602 1202 l 1
 602 1001 l 1
 401 1001 l 1
201 1398 m 1
 201 1599 l 1
 401 1599 l 1
 401 1398 l 1
 201 1398 l 1
201 1001 m 1
 201 1202 l 1
 401 1202 l 1
 401 1001 l 1
 201 1001 l 1
0 1398 m 1
 0 1599 l 1
 201 1599 l 1
 201 1398 l 1
 0 1398 l 1
0 1001 m 1
 0 1202 l 1
 201 1202 l 1
 201 1001 l 1
 0 1001 l 1
0 1202 m 1
 0 1398 l 1
 201 1398 l 1
 201 1202 l 1
 0 1202 l 1
EndSplineSet
Validated: 5
EndChar

StartChar: U
Encoding: 60 85 58
Width: 1801
Flags: W
LayerCount: 2
Fore
SplineSet
1801 -198 m 1
 1801 -2 l 1
 1998 -2 l 1
 1998 -198 l 1
 1801 -198 l 1
1801 -2 m 1
 1801 199 l 1
 1998 199 l 1
 1998 -2 l 1
 1801 -2 l 1
1801 199 m 1
 1801 399 l 1
 1998 399 l 1
 1998 199 l 1
 1801 199 l 1
1801 399 m 1
 1801 600 l 1
 1998 600 l 1
 1998 399 l 1
 1801 399 l 1
1801 600 m 1
 1801 800 l 1
 1998 800 l 1
 1998 600 l 1
 1801 600 l 1
1801 800 m 1
 1801 1001 l 1
 1998 1001 l 1
 1998 800 l 1
 1801 800 l 1
1801 1001 m 1
 1801 1202 l 1
 1998 1202 l 1
 1998 1001 l 1
 1801 1001 l 1
1801 1202 m 1
 1801 1398 l 1
 1998 1398 l 1
 1998 1202 l 1
 1801 1202 l 1
1601 1398 m 1
 1601 1599 l 1
 1801 1599 l 1
 1801 1398 l 1
 1601 1398 l 1
1801 -198 m 1
 1801 -396 l 1
 1601 -396 l 1
 1601 -198 l 1
 1801 -198 l 1
1601 -198 m 1
 1601 -2 l 1
 1801 -2 l 1
 1801 -198 l 1
 1601 -198 l 1
1601 -2 m 1
 1601 199 l 1
 1801 199 l 1
 1801 -2 l 1
 1601 -2 l 1
1601 199 m 1
 1601 399 l 1
 1801 399 l 1
 1801 199 l 1
 1601 199 l 1
1601 399 m 1
 1601 600 l 1
 1801 600 l 1
 1801 399 l 1
 1601 399 l 1
1601 600 m 1
 1601 800 l 1
 1801 800 l 1
 1801 600 l 1
 1601 600 l 1
1601 800 m 1
 1601 1001 l 1
 1801 1001 l 1
 1801 800 l 1
 1601 800 l 1
1601 1001 m 1
 1601 1202 l 1
 1801 1202 l 1
 1801 1001 l 1
 1601 1001 l 1
1601 1202 m 1
 1601 1398 l 1
 1801 1398 l 1
 1801 1202 l 1
 1601 1202 l 1
1400 1398 m 1
 1400 1599 l 1
 1601 1599 l 1
 1601 1398 l 1
 1400 1398 l 1
1601 -198 m 1
 1601 -396 l 1
 1400 -396 l 1
 1400 -198 l 1
 1601 -198 l 1
1400 -198 m 1
 1400 -2 l 1
 1601 -2 l 1
 1601 -198 l 1
 1400 -198 l 1
1400 -2 m 1
 1400 199 l 1
 1601 199 l 1
 1601 -2 l 1
 1400 -2 l 1
1200 1398 m 1
 1200 1599 l 1
 1400 1599 l 1
 1400 1398 l 1
 1200 1398 l 1
1400 -198 m 1
 1400 -396 l 1
 1200 -396 l 1
 1200 -198 l 1
 1400 -198 l 1
1200 -198 m 1
 1200 -2 l 1
 1400 -2 l 1
 1400 -198 l 1
 1200 -198 l 1
999 1398 m 1
 999 1599 l 1
 1200 1599 l 1
 1200 1398 l 1
 999 1398 l 1
1200 -198 m 1
 1200 -396 l 1
 999 -396 l 1
 999 -198 l 1
 1200 -198 l 1
999 -198 m 1
 999 -2 l 1
 1200 -2 l 1
 1200 -198 l 1
 999 -198 l 1
999 199 m 1
 999 399 l 1
 1200 399 l 1
 1200 199 l 1
 999 199 l 1
999 399 m 1
 999 600 l 1
 1200 600 l 1
 1200 399 l 1
 999 399 l 1
999 600 m 1
 999 800 l 1
 1200 800 l 1
 1200 600 l 1
 999 600 l 1
999 800 m 1
 999 1001 l 1
 1200 1001 l 1
 1200 800 l 1
 999 800 l 1
999 1001 m 1
 999 1202 l 1
 1200 1202 l 1
 1200 1001 l 1
 999 1001 l 1
999 1202 m 1
 999 1398 l 1
 1200 1398 l 1
 1200 1202 l 1
 999 1202 l 1
999 -198 m 1
 999 -396 l 1
 798 -396 l 1
 798 -198 l 1
 999 -198 l 1
798 -198 m 1
 798 -2 l 1
 999 -2 l 1
 999 -198 l 1
 798 -198 l 1
798 199 m 1
 798 399 l 1
 999 399 l 1
 999 199 l 1
 798 199 l 1
798 399 m 1
 798 600 l 1
 999 600 l 1
 999 399 l 1
 798 399 l 1
798 600 m 1
 798 800 l 1
 999 800 l 1
 999 600 l 1
 798 600 l 1
798 800 m 1
 798 1001 l 1
 999 1001 l 1
 999 800 l 1
 798 800 l 1
798 1001 m 1
 798 1202 l 1
 999 1202 l 1
 999 1001 l 1
 798 1001 l 1
798 1202 m 1
 798 1398 l 1
 999 1398 l 1
 999 1202 l 1
 798 1202 l 1
602 1398 m 1
 602 1599 l 1
 798 1599 l 1
 798 1398 l 1
 602 1398 l 1
798 -198 m 1
 798 -396 l 1
 602 -396 l 1
 602 -198 l 1
 798 -198 l 1
602 -198 m 1
 602 -2 l 1
 798 -2 l 1
 798 -198 l 1
 602 -198 l 1
602 199 m 1
 602 399 l 1
 798 399 l 1
 798 199 l 1
 602 199 l 1
602 399 m 1
 602 600 l 1
 798 600 l 1
 798 399 l 1
 602 399 l 1
602 600 m 1
 602 800 l 1
 798 800 l 1
 798 600 l 1
 602 600 l 1
602 800 m 1
 602 1001 l 1
 798 1001 l 1
 798 800 l 1
 602 800 l 1
602 1001 m 1
 602 1202 l 1
 798 1202 l 1
 798 1001 l 1
 602 1001 l 1
602 1202 m 1
 602 1398 l 1
 798 1398 l 1
 798 1202 l 1
 602 1202 l 1
401 1398 m 1
 401 1599 l 1
 602 1599 l 1
 602 1398 l 1
 401 1398 l 1
602 -198 m 1
 602 -396 l 1
 401 -396 l 1
 401 -198 l 1
 602 -198 l 1
401 -198 m 1
 401 -2 l 1
 602 -2 l 1
 602 -198 l 1
 401 -198 l 1
201 1398 m 1
 201 1599 l 1
 401 1599 l 1
 401 1398 l 1
 201 1398 l 1
201 -198 m 1
 201 -2 l 1
 401 -2 l 1
 401 -198 l 1
 201 -198 l 1
201 -2 m 1
 201 199 l 1
 401 199 l 1
 401 -2 l 1
 201 -2 l 1
0 1398 m 1
 0 1599 l 1
 201 1599 l 1
 201 1398 l 1
 0 1398 l 1
0 -2 m 1
 0 199 l 1
 201 199 l 1
 201 -2 l 1
 0 -2 l 1
0 199 m 1
 0 399 l 1
 201 399 l 1
 201 199 l 1
 0 199 l 1
0 399 m 1
 0 600 l 1
 201 600 l 1
 201 399 l 1
 0 399 l 1
0 600 m 1
 0 800 l 1
 201 800 l 1
 201 600 l 1
 0 600 l 1
0 800 m 1
 0 1001 l 1
 201 1001 l 1
 201 800 l 1
 0 800 l 1
0 1001 m 1
 0 1202 l 1
 201 1202 l 1
 201 1001 l 1
 0 1001 l 1
0 1202 m 1
 0 1398 l 1
 201 1398 l 1
 201 1202 l 1
 0 1202 l 1
EndSplineSet
Validated: 5
EndChar

StartChar: V
Encoding: 61 86 59
Width: 1801
Flags: W
LayerCount: 2
Fore
SplineSet
1801 199 m 1
 1801 399 l 1
 1998 399 l 1
 1998 199 l 1
 1801 199 l 1
1801 399 m 1
 1801 600 l 1
 1998 600 l 1
 1998 399 l 1
 1801 399 l 1
1801 600 m 1
 1801 800 l 1
 1998 800 l 1
 1998 600 l 1
 1801 600 l 1
1801 800 m 1
 1801 1001 l 1
 1998 1001 l 1
 1998 800 l 1
 1801 800 l 1
1801 1001 m 1
 1801 1202 l 1
 1998 1202 l 1
 1998 1001 l 1
 1801 1001 l 1
1801 1202 m 1
 1801 1398 l 1
 1998 1398 l 1
 1998 1202 l 1
 1801 1202 l 1
1601 1398 m 1
 1601 1599 l 1
 1801 1599 l 1
 1801 1398 l 1
 1601 1398 l 1
1601 -2 m 1
 1601 199 l 1
 1801 199 l 1
 1801 -2 l 1
 1601 -2 l 1
1601 199 m 1
 1601 399 l 1
 1801 399 l 1
 1801 199 l 1
 1601 199 l 1
1601 399 m 1
 1601 600 l 1
 1801 600 l 1
 1801 399 l 1
 1601 399 l 1
1601 600 m 1
 1601 800 l 1
 1801 800 l 1
 1801 600 l 1
 1601 600 l 1
1601 800 m 1
 1601 1001 l 1
 1801 1001 l 1
 1801 800 l 1
 1601 800 l 1
1601 1001 m 1
 1601 1202 l 1
 1801 1202 l 1
 1801 1001 l 1
 1601 1001 l 1
1601 1202 m 1
 1601 1398 l 1
 1801 1398 l 1
 1801 1202 l 1
 1601 1202 l 1
1400 1398 m 1
 1400 1599 l 1
 1601 1599 l 1
 1601 1398 l 1
 1400 1398 l 1
1400 -198 m 1
 1400 -2 l 1
 1601 -2 l 1
 1601 -198 l 1
 1400 -198 l 1
1400 -2 m 1
 1400 199 l 1
 1601 199 l 1
 1601 -2 l 1
 1400 -2 l 1
1400 199 m 1
 1400 399 l 1
 1601 399 l 1
 1601 199 l 1
 1400 199 l 1
1400 399 m 1
 1400 600 l 1
 1601 600 l 1
 1601 399 l 1
 1400 399 l 1
1200 1398 m 1
 1200 1599 l 1
 1400 1599 l 1
 1400 1398 l 1
 1200 1398 l 1
1400 -198 m 1
 1400 -396 l 1
 1200 -396 l 1
 1200 -198 l 1
 1400 -198 l 1
1200 -198 m 1
 1200 -2 l 1
 1400 -2 l 1
 1400 -198 l 1
 1200 -198 l 1
1200 -2 m 1
 1200 199 l 1
 1400 199 l 1
 1400 -2 l 1
 1200 -2 l 1
1200 199 m 1
 1200 399 l 1
 1400 399 l 1
 1400 199 l 1
 1200 199 l 1
999 1398 m 1
 999 1599 l 1
 1200 1599 l 1
 1200 1398 l 1
 999 1398 l 1
1200 -198 m 1
 1200 -396 l 1
 999 -396 l 1
 999 -198 l 1
 1200 -198 l 1
999 -198 m 1
 999 -2 l 1
 1200 -2 l 1
 1200 -198 l 1
 999 -198 l 1
999 -2 m 1
 999 199 l 1
 1200 199 l 1
 1200 -2 l 1
 999 -2 l 1
999 600 m 1
 999 800 l 1
 1200 800 l 1
 1200 600 l 1
 999 600 l 1
999 800 m 1
 999 1001 l 1
 1200 1001 l 1
 1200 800 l 1
 999 800 l 1
999 1001 m 1
 999 1202 l 1
 1200 1202 l 1
 1200 1001 l 1
 999 1001 l 1
999 1202 m 1
 999 1398 l 1
 1200 1398 l 1
 1200 1202 l 1
 999 1202 l 1
999 -198 m 1
 999 -396 l 1
 798 -396 l 1
 798 -198 l 1
 999 -198 l 1
798 -198 m 1
 798 -2 l 1
 999 -2 l 1
 999 -198 l 1
 798 -198 l 1
798 399 m 1
 798 600 l 1
 999 600 l 1
 999 399 l 1
 798 399 l 1
798 600 m 1
 798 800 l 1
 999 800 l 1
 999 600 l 1
 798 600 l 1
798 800 m 1
 798 1001 l 1
 999 1001 l 1
 999 800 l 1
 798 800 l 1
798 1001 m 1
 798 1202 l 1
 999 1202 l 1
 999 1001 l 1
 798 1001 l 1
798 1202 m 1
 798 1398 l 1
 999 1398 l 1
 999 1202 l 1
 798 1202 l 1
602 1398 m 1
 602 1599 l 1
 798 1599 l 1
 798 1398 l 1
 602 1398 l 1
602 -198 m 1
 602 -2 l 1
 798 -2 l 1
 798 -198 l 1
 602 -198 l 1
602 -2 m 1
 602 199 l 1
 798 199 l 1
 798 -2 l 1
 602 -2 l 1
602 600 m 1
 602 800 l 1
 798 800 l 1
 798 600 l 1
 602 600 l 1
602 800 m 1
 602 1001 l 1
 798 1001 l 1
 798 800 l 1
 602 800 l 1
602 1001 m 1
 602 1202 l 1
 798 1202 l 1
 798 1001 l 1
 602 1001 l 1
602 1202 m 1
 602 1398 l 1
 798 1398 l 1
 798 1202 l 1
 602 1202 l 1
401 1398 m 1
 401 1599 l 1
 602 1599 l 1
 602 1398 l 1
 401 1398 l 1
401 -2 m 1
 401 199 l 1
 602 199 l 1
 602 -2 l 1
 401 -2 l 1
401 199 m 1
 401 399 l 1
 602 399 l 1
 602 199 l 1
 401 199 l 1
201 1398 m 1
 201 1599 l 1
 401 1599 l 1
 401 1398 l 1
 201 1398 l 1
201 199 m 1
 201 399 l 1
 401 399 l 1
 401 199 l 1
 201 199 l 1
201 399 m 1
 201 600 l 1
 401 600 l 1
 401 399 l 1
 201 399 l 1
0 1398 m 1
 0 1599 l 1
 201 1599 l 1
 201 1398 l 1
 0 1398 l 1
0 399 m 1
 0 600 l 1
 201 600 l 1
 201 399 l 1
 0 399 l 1
0 600 m 1
 0 800 l 1
 201 800 l 1
 201 600 l 1
 0 600 l 1
0 800 m 1
 0 1001 l 1
 201 1001 l 1
 201 800 l 1
 0 800 l 1
0 1001 m 1
 0 1202 l 1
 201 1202 l 1
 201 1001 l 1
 0 1001 l 1
0 1202 m 1
 0 1398 l 1
 201 1398 l 1
 201 1202 l 1
 0 1202 l 1
EndSplineSet
Validated: 5
EndChar

StartChar: W
Encoding: 62 87 60
Width: 1801
Flags: W
LayerCount: 2
Fore
SplineSet
1998 -198 m 1
 1998 -396 l 1
 1801 -396 l 1
 1801 -198 l 1
 1998 -198 l 1
1801 -198 m 1
 1801 -2 l 1
 1998 -2 l 1
 1998 -198 l 1
 1801 -198 l 1
1801 -2 m 1
 1801 199 l 1
 1998 199 l 1
 1998 -2 l 1
 1801 -2 l 1
1801 199 m 1
 1801 399 l 1
 1998 399 l 1
 1998 199 l 1
 1801 199 l 1
1801 399 m 1
 1801 600 l 1
 1998 600 l 1
 1998 399 l 1
 1801 399 l 1
1801 600 m 1
 1801 800 l 1
 1998 800 l 1
 1998 600 l 1
 1801 600 l 1
1801 800 m 1
 1801 1001 l 1
 1998 1001 l 1
 1998 800 l 1
 1801 800 l 1
1801 1001 m 1
 1801 1202 l 1
 1998 1202 l 1
 1998 1001 l 1
 1801 1001 l 1
1801 1202 m 1
 1801 1398 l 1
 1998 1398 l 1
 1998 1202 l 1
 1801 1202 l 1
1601 1398 m 1
 1601 1599 l 1
 1801 1599 l 1
 1801 1398 l 1
 1601 1398 l 1
1801 -198 m 1
 1801 -396 l 1
 1601 -396 l 1
 1601 -198 l 1
 1801 -198 l 1
1601 -198 m 1
 1601 -2 l 1
 1801 -2 l 1
 1801 -198 l 1
 1601 -198 l 1
1601 -2 m 1
 1601 199 l 1
 1801 199 l 1
 1801 -2 l 1
 1601 -2 l 1
1601 199 m 1
 1601 399 l 1
 1801 399 l 1
 1801 199 l 1
 1601 199 l 1
1601 399 m 1
 1601 600 l 1
 1801 600 l 1
 1801 399 l 1
 1601 399 l 1
1601 600 m 1
 1601 800 l 1
 1801 800 l 1
 1801 600 l 1
 1601 600 l 1
1601 800 m 1
 1601 1001 l 1
 1801 1001 l 1
 1801 800 l 1
 1601 800 l 1
1601 1001 m 1
 1601 1202 l 1
 1801 1202 l 1
 1801 1001 l 1
 1601 1001 l 1
1601 1202 m 1
 1601 1398 l 1
 1801 1398 l 1
 1801 1202 l 1
 1601 1202 l 1
1400 1398 m 1
 1400 1599 l 1
 1601 1599 l 1
 1601 1398 l 1
 1400 1398 l 1
1601 -198 m 1
 1601 -396 l 1
 1400 -396 l 1
 1400 -198 l 1
 1601 -198 l 1
1400 -198 m 1
 1400 -2 l 1
 1601 -2 l 1
 1601 -198 l 1
 1400 -198 l 1
1200 1398 m 1
 1200 1599 l 1
 1400 1599 l 1
 1400 1398 l 1
 1200 1398 l 1
1400 -198 m 1
 1400 -396 l 1
 1200 -396 l 1
 1200 -198 l 1
 1400 -198 l 1
1200 -198 m 1
 1200 -2 l 1
 1400 -2 l 1
 1400 -198 l 1
 1200 -198 l 1
999 1398 m 1
 999 1599 l 1
 1200 1599 l 1
 1200 1398 l 1
 999 1398 l 1
999 -198 m 1
 999 -2 l 1
 1200 -2 l 1
 1200 -198 l 1
 999 -198 l 1
999 -2 m 1
 999 199 l 1
 1200 199 l 1
 1200 -2 l 1
 999 -2 l 1
999 600 m 1
 999 800 l 1
 1200 800 l 1
 1200 600 l 1
 999 600 l 1
999 800 m 1
 999 1001 l 1
 1200 1001 l 1
 1200 800 l 1
 999 800 l 1
999 1001 m 1
 999 1202 l 1
 1200 1202 l 1
 1200 1001 l 1
 999 1001 l 1
999 1202 m 1
 999 1398 l 1
 1200 1398 l 1
 1200 1202 l 1
 999 1202 l 1
999 -198 m 1
 999 -396 l 1
 798 -396 l 1
 798 -198 l 1
 999 -198 l 1
798 -198 m 1
 798 -2 l 1
 999 -2 l 1
 999 -198 l 1
 798 -198 l 1
798 -2 m 1
 798 199 l 1
 999 199 l 1
 999 -2 l 1
 798 -2 l 1
798 199 m 1
 798 399 l 1
 999 399 l 1
 999 199 l 1
 798 199 l 1
798 800 m 1
 798 1001 l 1
 999 1001 l 1
 999 800 l 1
 798 800 l 1
798 1001 m 1
 798 1202 l 1
 999 1202 l 1
 999 1001 l 1
 798 1001 l 1
798 1202 m 1
 798 1398 l 1
 999 1398 l 1
 999 1202 l 1
 798 1202 l 1
602 1398 m 1
 602 1599 l 1
 798 1599 l 1
 798 1398 l 1
 602 1398 l 1
798 -198 m 1
 798 -396 l 1
 602 -396 l 1
 602 -198 l 1
 798 -198 l 1
602 -198 m 1
 602 -2 l 1
 798 -2 l 1
 798 -198 l 1
 602 -198 l 1
602 -2 m 1
 602 199 l 1
 798 199 l 1
 798 -2 l 1
 602 -2 l 1
602 600 m 1
 602 800 l 1
 798 800 l 1
 798 600 l 1
 602 600 l 1
602 800 m 1
 602 1001 l 1
 798 1001 l 1
 798 800 l 1
 602 800 l 1
602 1001 m 1
 602 1202 l 1
 798 1202 l 1
 798 1001 l 1
 602 1001 l 1
602 1202 m 1
 602 1398 l 1
 798 1398 l 1
 798 1202 l 1
 602 1202 l 1
401 1398 m 1
 401 1599 l 1
 602 1599 l 1
 602 1398 l 1
 401 1398 l 1
602 -198 m 1
 602 -396 l 1
 401 -396 l 1
 401 -198 l 1
 602 -198 l 1
401 -198 m 1
 401 -2 l 1
 602 -2 l 1
 602 -198 l 1
 401 -198 l 1
201 1398 m 1
 201 1599 l 1
 401 1599 l 1
 401 1398 l 1
 201 1398 l 1
401 -198 m 1
 401 -396 l 1
 201 -396 l 1
 201 -198 l 1
 401 -198 l 1
201 -198 m 1
 201 -2 l 1
 401 -2 l 1
 401 -198 l 1
 201 -198 l 1
0 1398 m 1
 0 1599 l 1
 201 1599 l 1
 201 1398 l 1
 0 1398 l 1
0 -198 m 1
 0 -2 l 1
 201 -2 l 1
 201 -198 l 1
 0 -198 l 1
0 -2 m 1
 0 199 l 1
 201 199 l 1
 201 -2 l 1
 0 -2 l 1
0 199 m 1
 0 399 l 1
 201 399 l 1
 201 199 l 1
 0 199 l 1
0 399 m 1
 0 600 l 1
 201 600 l 1
 201 399 l 1
 0 399 l 1
0 600 m 1
 0 800 l 1
 201 800 l 1
 201 600 l 1
 0 600 l 1
0 800 m 1
 0 1001 l 1
 201 1001 l 1
 201 800 l 1
 0 800 l 1
0 1001 m 1
 0 1202 l 1
 201 1202 l 1
 201 1001 l 1
 0 1001 l 1
0 1202 m 1
 0 1398 l 1
 201 1398 l 1
 201 1202 l 1
 0 1202 l 1
EndSplineSet
Validated: 5
EndChar

StartChar: X
Encoding: 63 88 61
Width: 1801
Flags: W
LayerCount: 2
Fore
SplineSet
1998 -198 m 1
 1998 -396 l 1
 1801 -396 l 1
 1801 -198 l 1
 1998 -198 l 1
1801 -198 m 1
 1801 -2 l 1
 1998 -2 l 1
 1998 -198 l 1
 1801 -198 l 1
1801 -2 m 1
 1801 199 l 1
 1998 199 l 1
 1998 -2 l 1
 1801 -2 l 1
1801 199 m 1
 1801 399 l 1
 1998 399 l 1
 1998 199 l 1
 1801 199 l 1
1801 600 m 1
 1801 800 l 1
 1998 800 l 1
 1998 600 l 1
 1801 600 l 1
1801 800 m 1
 1801 1001 l 1
 1998 1001 l 1
 1998 800 l 1
 1801 800 l 1
1801 1001 m 1
 1801 1202 l 1
 1998 1202 l 1
 1998 1001 l 1
 1801 1001 l 1
1801 1202 m 1
 1801 1398 l 1
 1998 1398 l 1
 1998 1202 l 1
 1801 1202 l 1
1601 1398 m 1
 1601 1599 l 1
 1801 1599 l 1
 1801 1398 l 1
 1601 1398 l 1
1801 -198 m 1
 1801 -396 l 1
 1601 -396 l 1
 1601 -198 l 1
 1801 -198 l 1
1601 -198 m 1
 1601 -2 l 1
 1801 -2 l 1
 1801 -198 l 1
 1601 -198 l 1
1601 -2 m 1
 1601 199 l 1
 1801 199 l 1
 1801 -2 l 1
 1601 -2 l 1
1601 199 m 1
 1601 399 l 1
 1801 399 l 1
 1801 199 l 1
 1601 199 l 1
1601 399 m 1
 1601 600 l 1
 1801 600 l 1
 1801 399 l 1
 1601 399 l 1
1601 600 m 1
 1601 800 l 1
 1801 800 l 1
 1801 600 l 1
 1601 600 l 1
1601 800 m 1
 1601 1001 l 1
 1801 1001 l 1
 1801 800 l 1
 1601 800 l 1
1601 1001 m 1
 1601 1202 l 1
 1801 1202 l 1
 1801 1001 l 1
 1601 1001 l 1
1601 1202 m 1
 1601 1398 l 1
 1801 1398 l 1
 1801 1202 l 1
 1601 1202 l 1
1400 1398 m 1
 1400 1599 l 1
 1601 1599 l 1
 1601 1398 l 1
 1400 1398 l 1
1601 -198 m 1
 1601 -396 l 1
 1400 -396 l 1
 1400 -198 l 1
 1601 -198 l 1
1400 -198 m 1
 1400 -2 l 1
 1601 -2 l 1
 1601 -198 l 1
 1400 -198 l 1
1400 399 m 1
 1400 600 l 1
 1601 600 l 1
 1601 399 l 1
 1400 399 l 1
1400 600 m 1
 1400 800 l 1
 1601 800 l 1
 1601 600 l 1
 1400 600 l 1
1400 800 m 1
 1400 1001 l 1
 1601 1001 l 1
 1601 800 l 1
 1400 800 l 1
1200 1398 m 1
 1200 1599 l 1
 1400 1599 l 1
 1400 1398 l 1
 1200 1398 l 1
1400 -198 m 1
 1400 -396 l 1
 1200 -396 l 1
 1200 -198 l 1
 1400 -198 l 1
1200 -198 m 1
 1200 -2 l 1
 1400 -2 l 1
 1400 -198 l 1
 1200 -198 l 1
1200 600 m 1
 1200 800 l 1
 1400 800 l 1
 1400 600 l 1
 1200 600 l 1
999 1398 m 1
 999 1599 l 1
 1200 1599 l 1
 1200 1398 l 1
 999 1398 l 1
999 -198 m 1
 999 -2 l 1
 1200 -2 l 1
 1200 -198 l 1
 999 -198 l 1
999 -2 m 1
 999 199 l 1
 1200 199 l 1
 1200 -2 l 1
 999 -2 l 1
999 1202 m 1
 999 1398 l 1
 1200 1398 l 1
 1200 1202 l 1
 999 1202 l 1
999 -198 m 1
 999 -396 l 1
 798 -396 l 1
 798 -198 l 1
 999 -198 l 1
798 -198 m 1
 798 -2 l 1
 999 -2 l 1
 999 -198 l 1
 798 -198 l 1
798 -2 m 1
 798 199 l 1
 999 199 l 1
 999 -2 l 1
 798 -2 l 1
798 199 m 1
 798 399 l 1
 999 399 l 1
 999 199 l 1
 798 199 l 1
798 1001 m 1
 798 1202 l 1
 999 1202 l 1
 999 1001 l 1
 798 1001 l 1
798 1202 m 1
 798 1398 l 1
 999 1398 l 1
 999 1202 l 1
 798 1202 l 1
602 1398 m 1
 602 1599 l 1
 798 1599 l 1
 798 1398 l 1
 602 1398 l 1
798 -198 m 1
 798 -396 l 1
 602 -396 l 1
 602 -198 l 1
 798 -198 l 1
602 -198 m 1
 602 -2 l 1
 798 -2 l 1
 798 -198 l 1
 602 -198 l 1
602 -2 m 1
 602 199 l 1
 798 199 l 1
 798 -2 l 1
 602 -2 l 1
602 1202 m 1
 602 1398 l 1
 798 1398 l 1
 798 1202 l 1
 602 1202 l 1
401 1398 m 1
 401 1599 l 1
 602 1599 l 1
 602 1398 l 1
 401 1398 l 1
602 -198 m 1
 602 -396 l 1
 401 -396 l 1
 401 -198 l 1
 602 -198 l 1
401 -198 m 1
 401 -2 l 1
 602 -2 l 1
 602 -198 l 1
 401 -198 l 1
401 600 m 1
 401 800 l 1
 602 800 l 1
 602 600 l 1
 401 600 l 1
201 1398 m 1
 201 1599 l 1
 401 1599 l 1
 401 1398 l 1
 201 1398 l 1
401 -198 m 1
 401 -396 l 1
 201 -396 l 1
 201 -198 l 1
 401 -198 l 1
201 -198 m 1
 201 -2 l 1
 401 -2 l 1
 401 -198 l 1
 201 -198 l 1
201 399 m 1
 201 600 l 1
 401 600 l 1
 401 399 l 1
 201 399 l 1
201 600 m 1
 201 800 l 1
 401 800 l 1
 401 600 l 1
 201 600 l 1
201 800 m 1
 201 1001 l 1
 401 1001 l 1
 401 800 l 1
 201 800 l 1
0 1398 m 1
 0 1599 l 1
 201 1599 l 1
 201 1398 l 1
 0 1398 l 1
0 -198 m 1
 0 -2 l 1
 201 -2 l 1
 201 -198 l 1
 0 -198 l 1
0 -2 m 1
 0 199 l 1
 201 199 l 1
 201 -2 l 1
 0 -2 l 1
0 199 m 1
 0 399 l 1
 201 399 l 1
 201 199 l 1
 0 199 l 1
0 399 m 1
 0 600 l 1
 201 600 l 1
 201 399 l 1
 0 399 l 1
0 800 m 1
 0 1001 l 1
 201 1001 l 1
 201 800 l 1
 0 800 l 1
0 1001 m 1
 0 1202 l 1
 201 1202 l 1
 201 1001 l 1
 0 1001 l 1
0 1202 m 1
 0 1398 l 1
 201 1398 l 1
 201 1202 l 1
 0 1202 l 1
EndSplineSet
Validated: 5
EndChar

StartChar: Y
Encoding: 64 89 62
Width: 1601
Flags: W
LayerCount: 2
Fore
SplineSet
1601 399 m 1
 1601 600 l 1
 1801 600 l 1
 1801 399 l 1
 1601 399 l 1
1601 600 m 1
 1601 800 l 1
 1801 800 l 1
 1801 600 l 1
 1601 600 l 1
1601 800 m 1
 1601 1001 l 1
 1801 1001 l 1
 1801 800 l 1
 1601 800 l 1
1601 1001 m 1
 1601 1202 l 1
 1801 1202 l 1
 1801 1001 l 1
 1601 1001 l 1
1601 1202 m 1
 1601 1398 l 1
 1801 1398 l 1
 1801 1202 l 1
 1601 1202 l 1
1400 1398 m 1
 1400 1599 l 1
 1601 1599 l 1
 1601 1398 l 1
 1400 1398 l 1
1400 199 m 1
 1400 399 l 1
 1601 399 l 1
 1601 199 l 1
 1400 199 l 1
1400 399 m 1
 1400 600 l 1
 1601 600 l 1
 1601 399 l 1
 1400 399 l 1
1400 600 m 1
 1400 800 l 1
 1601 800 l 1
 1601 600 l 1
 1400 600 l 1
1400 800 m 1
 1400 1001 l 1
 1601 1001 l 1
 1601 800 l 1
 1400 800 l 1
1400 1001 m 1
 1400 1202 l 1
 1601 1202 l 1
 1601 1001 l 1
 1400 1001 l 1
1400 1202 m 1
 1400 1398 l 1
 1601 1398 l 1
 1601 1202 l 1
 1400 1202 l 1
1200 1398 m 1
 1200 1599 l 1
 1400 1599 l 1
 1400 1398 l 1
 1200 1398 l 1
1400 -198 m 1
 1400 -396 l 1
 1200 -396 l 1
 1200 -198 l 1
 1400 -198 l 1
1200 -198 m 1
 1200 -2 l 1
 1400 -2 l 1
 1400 -198 l 1
 1200 -198 l 1
1200 -2 m 1
 1200 199 l 1
 1400 199 l 1
 1400 -2 l 1
 1200 -2 l 1
1200 199 m 1
 1200 399 l 1
 1400 399 l 1
 1400 199 l 1
 1200 199 l 1
1200 399 m 1
 1200 600 l 1
 1400 600 l 1
 1400 399 l 1
 1200 399 l 1
1200 600 m 1
 1200 800 l 1
 1400 800 l 1
 1400 600 l 1
 1200 600 l 1
999 1398 m 1
 999 1599 l 1
 1200 1599 l 1
 1200 1398 l 1
 999 1398 l 1
1200 -198 m 1
 1200 -396 l 1
 999 -396 l 1
 999 -198 l 1
 1200 -198 l 1
999 -198 m 1
 999 -2 l 1
 1200 -2 l 1
 1200 -198 l 1
 999 -198 l 1
999 -2 m 1
 999 199 l 1
 1200 199 l 1
 1200 -2 l 1
 999 -2 l 1
999 199 m 1
 999 399 l 1
 1200 399 l 1
 1200 199 l 1
 999 199 l 1
999 399 m 1
 999 600 l 1
 1200 600 l 1
 1200 399 l 1
 999 399 l 1
798 1398 m 1
 798 1599 l 1
 999 1599 l 1
 999 1398 l 1
 798 1398 l 1
999 -198 m 1
 999 -396 l 1
 798 -396 l 1
 798 -198 l 1
 999 -198 l 1
798 -198 m 1
 798 -2 l 1
 999 -2 l 1
 999 -198 l 1
 798 -198 l 1
798 800 m 1
 798 1001 l 1
 999 1001 l 1
 999 800 l 1
 798 800 l 1
798 1001 m 1
 798 1202 l 1
 999 1202 l 1
 999 1001 l 1
 798 1001 l 1
798 1202 m 1
 798 1398 l 1
 999 1398 l 1
 999 1202 l 1
 798 1202 l 1
602 1398 m 1
 602 1599 l 1
 798 1599 l 1
 798 1398 l 1
 602 1398 l 1
798 -198 m 1
 798 -396 l 1
 602 -396 l 1
 602 -198 l 1
 798 -198 l 1
602 -198 m 1
 602 -2 l 1
 798 -2 l 1
 798 -198 l 1
 602 -198 l 1
602 800 m 1
 602 1001 l 1
 798 1001 l 1
 798 800 l 1
 602 800 l 1
602 1001 m 1
 602 1202 l 1
 798 1202 l 1
 798 1001 l 1
 602 1001 l 1
602 1202 m 1
 602 1398 l 1
 798 1398 l 1
 798 1202 l 1
 602 1202 l 1
401 1398 m 1
 401 1599 l 1
 602 1599 l 1
 602 1398 l 1
 401 1398 l 1
401 -198 m 1
 401 -2 l 1
 602 -2 l 1
 602 -198 l 1
 401 -198 l 1
401 -2 m 1
 401 199 l 1
 602 199 l 1
 602 -2 l 1
 401 -2 l 1
401 199 m 1
 401 399 l 1
 602 399 l 1
 602 199 l 1
 401 199 l 1
401 399 m 1
 401 600 l 1
 602 600 l 1
 602 399 l 1
 401 399 l 1
201 1398 m 1
 201 1599 l 1
 401 1599 l 1
 401 1398 l 1
 201 1398 l 1
201 399 m 1
 201 600 l 1
 401 600 l 1
 401 399 l 1
 201 399 l 1
201 600 m 1
 201 800 l 1
 401 800 l 1
 401 600 l 1
 201 600 l 1
0 1398 m 1
 0 1599 l 1
 201 1599 l 1
 201 1398 l 1
 0 1398 l 1
0 600 m 1
 0 800 l 1
 201 800 l 1
 201 600 l 1
 0 600 l 1
0 800 m 1
 0 1001 l 1
 201 1001 l 1
 201 800 l 1
 0 800 l 1
0 1001 m 1
 0 1202 l 1
 201 1202 l 1
 201 1001 l 1
 0 1001 l 1
0 1202 m 1
 0 1398 l 1
 201 1398 l 1
 201 1202 l 1
 0 1202 l 1
EndSplineSet
Validated: 5
EndChar

StartChar: Z
Encoding: 65 90 63
Width: 1801
Flags: W
LayerCount: 2
Fore
SplineSet
1998 -198 m 1
 1998 -396 l 1
 1801 -396 l 1
 1801 -198 l 1
 1998 -198 l 1
1801 -198 m 1
 1801 -2 l 1
 1998 -2 l 1
 1998 -198 l 1
 1801 -198 l 1
1801 -2 m 1
 1801 199 l 1
 1998 199 l 1
 1998 -2 l 1
 1801 -2 l 1
1801 600 m 1
 1801 800 l 1
 1998 800 l 1
 1998 600 l 1
 1801 600 l 1
1801 800 m 1
 1801 1001 l 1
 1998 1001 l 1
 1998 800 l 1
 1801 800 l 1
1801 1001 m 1
 1801 1202 l 1
 1998 1202 l 1
 1998 1001 l 1
 1801 1001 l 1
1801 1202 m 1
 1801 1398 l 1
 1998 1398 l 1
 1998 1202 l 1
 1801 1202 l 1
1601 1398 m 1
 1601 1599 l 1
 1801 1599 l 1
 1801 1398 l 1
 1601 1398 l 1
1801 -198 m 1
 1801 -396 l 1
 1601 -396 l 1
 1601 -198 l 1
 1801 -198 l 1
1601 -198 m 1
 1601 -2 l 1
 1801 -2 l 1
 1801 -198 l 1
 1601 -198 l 1
1601 -2 m 1
 1601 199 l 1
 1801 199 l 1
 1801 -2 l 1
 1601 -2 l 1
1601 199 m 1
 1601 399 l 1
 1801 399 l 1
 1801 199 l 1
 1601 199 l 1
1601 399 m 1
 1601 600 l 1
 1801 600 l 1
 1801 399 l 1
 1601 399 l 1
1601 600 m 1
 1601 800 l 1
 1801 800 l 1
 1801 600 l 1
 1601 600 l 1
1601 800 m 1
 1601 1001 l 1
 1801 1001 l 1
 1801 800 l 1
 1601 800 l 1
1601 1001 m 1
 1601 1202 l 1
 1801 1202 l 1
 1801 1001 l 1
 1601 1001 l 1
1601 1202 m 1
 1601 1398 l 1
 1801 1398 l 1
 1801 1202 l 1
 1601 1202 l 1
1400 1398 m 1
 1400 1599 l 1
 1601 1599 l 1
 1601 1398 l 1
 1400 1398 l 1
1601 -198 m 1
 1601 -396 l 1
 1400 -396 l 1
 1400 -198 l 1
 1601 -198 l 1
1400 -198 m 1
 1400 -2 l 1
 1601 -2 l 1
 1601 -198 l 1
 1400 -198 l 1
1400 199 m 1
 1400 399 l 1
 1601 399 l 1
 1601 199 l 1
 1400 199 l 1
1400 399 m 1
 1400 600 l 1
 1601 600 l 1
 1601 399 l 1
 1400 399 l 1
1400 600 m 1
 1400 800 l 1
 1601 800 l 1
 1601 600 l 1
 1400 600 l 1
1400 800 m 1
 1400 1001 l 1
 1601 1001 l 1
 1601 800 l 1
 1400 800 l 1
1200 1398 m 1
 1200 1599 l 1
 1400 1599 l 1
 1400 1398 l 1
 1200 1398 l 1
1400 -198 m 1
 1400 -396 l 1
 1200 -396 l 1
 1200 -198 l 1
 1400 -198 l 1
1200 -198 m 1
 1200 -2 l 1
 1400 -2 l 1
 1400 -198 l 1
 1200 -198 l 1
1200 199 m 1
 1200 399 l 1
 1400 399 l 1
 1400 199 l 1
 1200 199 l 1
1200 399 m 1
 1200 600 l 1
 1400 600 l 1
 1400 399 l 1
 1200 399 l 1
1200 600 m 1
 1200 800 l 1
 1400 800 l 1
 1400 600 l 1
 1200 600 l 1
999 1398 m 1
 999 1599 l 1
 1200 1599 l 1
 1200 1398 l 1
 999 1398 l 1
1200 -198 m 1
 1200 -396 l 1
 999 -396 l 1
 999 -198 l 1
 1200 -198 l 1
999 -198 m 1
 999 -2 l 1
 1200 -2 l 1
 1200 -198 l 1
 999 -198 l 1
999 199 m 1
 999 399 l 1
 1200 399 l 1
 1200 199 l 1
 999 199 l 1
999 399 m 1
 999 600 l 1
 1200 600 l 1
 1200 399 l 1
 999 399 l 1
798 1398 m 1
 798 1599 l 1
 999 1599 l 1
 999 1398 l 1
 798 1398 l 1
999 -198 m 1
 999 -396 l 1
 798 -396 l 1
 798 -198 l 1
 999 -198 l 1
798 -198 m 1
 798 -2 l 1
 999 -2 l 1
 999 -198 l 1
 798 -198 l 1
798 199 m 1
 798 399 l 1
 999 399 l 1
 999 199 l 1
 798 199 l 1
798 1001 m 1
 798 1202 l 1
 999 1202 l 1
 999 1001 l 1
 798 1001 l 1
602 1398 m 1
 602 1599 l 1
 798 1599 l 1
 798 1398 l 1
 602 1398 l 1
798 -198 m 1
 798 -396 l 1
 602 -396 l 1
 602 -198 l 1
 798 -198 l 1
602 -198 m 1
 602 -2 l 1
 798 -2 l 1
 798 -198 l 1
 602 -198 l 1
602 800 m 1
 602 1001 l 1
 798 1001 l 1
 798 800 l 1
 602 800 l 1
602 1001 m 1
 602 1202 l 1
 798 1202 l 1
 798 1001 l 1
 602 1001 l 1
401 1398 m 1
 401 1599 l 1
 602 1599 l 1
 602 1398 l 1
 401 1398 l 1
602 -198 m 1
 602 -396 l 1
 401 -396 l 1
 401 -198 l 1
 602 -198 l 1
401 -198 m 1
 401 -2 l 1
 602 -2 l 1
 602 -198 l 1
 401 -198 l 1
401 600 m 1
 401 800 l 1
 602 800 l 1
 602 600 l 1
 401 600 l 1
401 800 m 1
 401 1001 l 1
 602 1001 l 1
 602 800 l 1
 401 800 l 1
401 1001 m 1
 401 1202 l 1
 602 1202 l 1
 602 1001 l 1
 401 1001 l 1
201 1398 m 1
 201 1599 l 1
 401 1599 l 1
 401 1398 l 1
 201 1398 l 1
401 -198 m 1
 401 -396 l 1
 201 -396 l 1
 201 -198 l 1
 401 -198 l 1
201 -198 m 1
 201 -2 l 1
 401 -2 l 1
 401 -198 l 1
 201 -198 l 1
201 399 m 1
 201 600 l 1
 401 600 l 1
 401 399 l 1
 201 399 l 1
201 600 m 1
 201 800 l 1
 401 800 l 1
 401 600 l 1
 201 600 l 1
201 1001 m 1
 201 1202 l 1
 401 1202 l 1
 401 1001 l 1
 201 1001 l 1
0 1398 m 1
 0 1599 l 1
 201 1599 l 1
 201 1398 l 1
 0 1398 l 1
0 -198 m 1
 0 -2 l 1
 201 -2 l 1
 201 -198 l 1
 0 -198 l 1
0 -2 m 1
 0 199 l 1
 201 199 l 1
 201 -2 l 1
 0 -2 l 1
0 199 m 1
 0 399 l 1
 201 399 l 1
 201 199 l 1
 0 199 l 1
0 399 m 1
 0 600 l 1
 201 600 l 1
 201 399 l 1
 0 399 l 1
0 1001 m 1
 0 1202 l 1
 201 1202 l 1
 201 1001 l 1
 0 1001 l 1
0 1202 m 1
 0 1398 l 1
 201 1398 l 1
 201 1202 l 1
 0 1202 l 1
EndSplineSet
Validated: 5
EndChar

StartChar: asciicircum
Encoding: 69 94 67
Width: 1400
Flags: W
LayerCount: 2
Fore
SplineSet
1400 199 m 1
 1400 399 l 1
 1601 399 l 1
 1601 199 l 1
 1400 199 l 1
1400 399 m 1
 1400 600 l 1
 1601 600 l 1
 1601 399 l 1
 1400 399 l 1
1400 600 m 1
 1400 800 l 1
 1601 800 l 1
 1601 600 l 1
 1400 600 l 1
1400 800 m 1
 1400 1001 l 1
 1601 1001 l 1
 1601 800 l 1
 1400 800 l 1
1200 199 m 1
 1200 399 l 1
 1400 399 l 1
 1400 199 l 1
 1200 199 l 1
1200 399 m 1
 1200 600 l 1
 1400 600 l 1
 1400 399 l 1
 1200 399 l 1
1200 600 m 1
 1200 800 l 1
 1400 800 l 1
 1400 600 l 1
 1200 600 l 1
1200 800 m 1
 1200 1001 l 1
 1400 1001 l 1
 1400 800 l 1
 1200 800 l 1
1200 1001 m 1
 1200 1202 l 1
 1400 1202 l 1
 1400 1001 l 1
 1200 1001 l 1
999 199 m 1
 999 399 l 1
 1200 399 l 1
 1200 199 l 1
 999 199 l 1
999 399 m 1
 999 600 l 1
 1200 600 l 1
 1200 399 l 1
 999 399 l 1
999 1001 m 1
 999 1202 l 1
 1200 1202 l 1
 1200 1001 l 1
 999 1001 l 1
999 1202 m 1
 999 1398 l 1
 1200 1398 l 1
 1200 1202 l 1
 999 1202 l 1
798 1398 m 1
 798 1599 l 1
 999 1599 l 1
 999 1398 l 1
 798 1398 l 1
798 399 m 1
 798 600 l 1
 999 600 l 1
 999 399 l 1
 798 399 l 1
798 600 m 1
 798 800 l 1
 999 800 l 1
 999 600 l 1
 798 600 l 1
798 1202 m 1
 798 1398 l 1
 999 1398 l 1
 999 1202 l 1
 798 1202 l 1
602 1398 m 1
 602 1599 l 1
 798 1599 l 1
 798 1398 l 1
 602 1398 l 1
602 199 m 1
 602 399 l 1
 798 399 l 1
 798 199 l 1
 602 199 l 1
602 399 m 1
 602 600 l 1
 798 600 l 1
 798 399 l 1
 602 399 l 1
602 600 m 1
 602 800 l 1
 798 800 l 1
 798 600 l 1
 602 600 l 1
602 800 m 1
 602 1001 l 1
 798 1001 l 1
 798 800 l 1
 602 800 l 1
401 1398 m 1
 401 1599 l 1
 602 1599 l 1
 602 1398 l 1
 401 1398 l 1
401 199 m 1
 401 399 l 1
 602 399 l 1
 602 199 l 1
 401 199 l 1
401 399 m 1
 401 600 l 1
 602 600 l 1
 602 399 l 1
 401 399 l 1
401 600 m 1
 401 800 l 1
 602 800 l 1
 602 600 l 1
 401 600 l 1
401 1202 m 1
 401 1398 l 1
 602 1398 l 1
 602 1202 l 1
 401 1202 l 1
201 199 m 1
 201 399 l 1
 401 399 l 1
 401 199 l 1
 201 199 l 1
201 399 m 1
 201 600 l 1
 401 600 l 1
 401 399 l 1
 201 399 l 1
201 1001 m 1
 201 1202 l 1
 401 1202 l 1
 401 1001 l 1
 201 1001 l 1
201 1202 m 1
 201 1398 l 1
 401 1398 l 1
 401 1202 l 1
 201 1202 l 1
0 399 m 1
 0 600 l 1
 201 600 l 1
 201 399 l 1
 0 399 l 1
0 600 m 1
 0 800 l 1
 201 800 l 1
 201 600 l 1
 0 600 l 1
0 800 m 1
 0 1001 l 1
 201 1001 l 1
 201 800 l 1
 0 800 l 1
0 1001 m 1
 0 1202 l 1
 201 1202 l 1
 201 1001 l 1
 0 1001 l 1
EndSplineSet
Validated: 5
EndChar

StartChar: underscore
Encoding: 70 95 68
Width: 1801
Flags: W
LayerCount: 2
Fore
SplineSet
1998 -198 m 1
 1998 -396 l 1
 1801 -396 l 1
 1801 -198 l 1
 1998 -198 l 1
1801 -198 m 1
 1801 -2 l 1
 1998 -2 l 1
 1998 -198 l 1
 1801 -198 l 1
1801 -2 m 1
 1801 199 l 1
 1998 199 l 1
 1998 -2 l 1
 1801 -2 l 1
1801 -198 m 1
 1801 -396 l 1
 1601 -396 l 1
 1601 -198 l 1
 1801 -198 l 1
1601 -198 m 1
 1601 -2 l 1
 1801 -2 l 1
 1801 -198 l 1
 1601 -198 l 1
1601 -2 m 1
 1601 199 l 1
 1801 199 l 1
 1801 -2 l 1
 1601 -2 l 1
1601 199 m 1
 1601 399 l 1
 1801 399 l 1
 1801 199 l 1
 1601 199 l 1
1601 -198 m 1
 1601 -396 l 1
 1400 -396 l 1
 1400 -198 l 1
 1601 -198 l 1
1400 -198 m 1
 1400 -2 l 1
 1601 -2 l 1
 1601 -198 l 1
 1400 -198 l 1
1400 199 m 1
 1400 399 l 1
 1601 399 l 1
 1601 199 l 1
 1400 199 l 1
1400 -198 m 1
 1400 -396 l 1
 1200 -396 l 1
 1200 -198 l 1
 1400 -198 l 1
1200 -198 m 1
 1200 -2 l 1
 1400 -2 l 1
 1400 -198 l 1
 1200 -198 l 1
1200 199 m 1
 1200 399 l 1
 1400 399 l 1
 1400 199 l 1
 1200 199 l 1
1200 -198 m 1
 1200 -396 l 1
 999 -396 l 1
 999 -198 l 1
 1200 -198 l 1
999 -198 m 1
 999 -2 l 1
 1200 -2 l 1
 1200 -198 l 1
 999 -198 l 1
999 199 m 1
 999 399 l 1
 1200 399 l 1
 1200 199 l 1
 999 199 l 1
999 -198 m 1
 999 -396 l 1
 798 -396 l 1
 798 -198 l 1
 999 -198 l 1
798 -198 m 1
 798 -2 l 1
 999 -2 l 1
 999 -198 l 1
 798 -198 l 1
798 199 m 1
 798 399 l 1
 999 399 l 1
 999 199 l 1
 798 199 l 1
798 -198 m 1
 798 -396 l 1
 602 -396 l 1
 602 -198 l 1
 798 -198 l 1
602 -198 m 1
 602 -2 l 1
 798 -2 l 1
 798 -198 l 1
 602 -198 l 1
602 199 m 1
 602 399 l 1
 798 399 l 1
 798 199 l 1
 602 199 l 1
602 -198 m 1
 602 -396 l 1
 401 -396 l 1
 401 -198 l 1
 602 -198 l 1
401 -198 m 1
 401 -2 l 1
 602 -2 l 1
 602 -198 l 1
 401 -198 l 1
401 199 m 1
 401 399 l 1
 602 399 l 1
 602 199 l 1
 401 199 l 1
401 -198 m 1
 401 -396 l 1
 201 -396 l 1
 201 -198 l 1
 401 -198 l 1
201 -198 m 1
 201 -2 l 1
 401 -2 l 1
 401 -198 l 1
 201 -198 l 1
201 199 m 1
 201 399 l 1
 401 399 l 1
 401 199 l 1
 201 199 l 1
0 -198 m 1
 0 -2 l 1
 201 -2 l 1
 201 -198 l 1
 0 -198 l 1
0 -2 m 1
 0 199 l 1
 201 199 l 1
 201 -2 l 1
 0 -2 l 1
0 199 m 1
 0 399 l 1
 201 399 l 1
 201 199 l 1
 0 199 l 1
EndSplineSet
Validated: 5
EndChar

StartChar: a
Encoding: 72 97 70
Width: 1801
Flags: W
LayerCount: 2
Fore
SplineSet
1998 -198 m 1
 1998 -396 l 1
 1801 -396 l 1
 1801 -198 l 1
 1998 -198 l 1
1801 -198 m 1
 1801 -2 l 1
 1998 -2 l 1
 1998 -198 l 1
 1801 -198 l 1
1801 -2 m 1
 1801 199 l 1
 1998 199 l 1
 1998 -2 l 1
 1801 -2 l 1
1801 199 m 1
 1801 399 l 1
 1998 399 l 1
 1998 199 l 1
 1801 199 l 1
1801 399 m 1
 1801 600 l 1
 1998 600 l 1
 1998 399 l 1
 1801 399 l 1
1801 600 m 1
 1801 800 l 1
 1998 800 l 1
 1998 600 l 1
 1801 600 l 1
1801 800 m 1
 1801 1001 l 1
 1998 1001 l 1
 1998 800 l 1
 1801 800 l 1
1801 1001 m 1
 1801 1202 l 1
 1998 1202 l 1
 1998 1001 l 1
 1801 1001 l 1
1801 -198 m 1
 1801 -396 l 1
 1601 -396 l 1
 1601 -198 l 1
 1801 -198 l 1
1601 -198 m 1
 1601 -2 l 1
 1801 -2 l 1
 1801 -198 l 1
 1601 -198 l 1
1601 -2 m 1
 1601 199 l 1
 1801 199 l 1
 1801 -2 l 1
 1601 -2 l 1
1601 199 m 1
 1601 399 l 1
 1801 399 l 1
 1801 199 l 1
 1601 199 l 1
1601 399 m 1
 1601 600 l 1
 1801 600 l 1
 1801 399 l 1
 1601 399 l 1
1601 600 m 1
 1601 800 l 1
 1801 800 l 1
 1801 600 l 1
 1601 600 l 1
1601 800 m 1
 1601 1001 l 1
 1801 1001 l 1
 1801 800 l 1
 1601 800 l 1
1601 1001 m 1
 1601 1202 l 1
 1801 1202 l 1
 1801 1001 l 1
 1601 1001 l 1
1601 1202 m 1
 1601 1398 l 1
 1801 1398 l 1
 1801 1202 l 1
 1601 1202 l 1
1400 1398 m 1
 1400 1599 l 1
 1601 1599 l 1
 1601 1398 l 1
 1400 1398 l 1
1601 -198 m 1
 1601 -396 l 1
 1400 -396 l 1
 1400 -198 l 1
 1601 -198 l 1
1400 -198 m 1
 1400 -2 l 1
 1601 -2 l 1
 1601 -198 l 1
 1400 -198 l 1
1400 1202 m 1
 1400 1398 l 1
 1601 1398 l 1
 1601 1202 l 1
 1400 1202 l 1
1200 1398 m 1
 1200 1599 l 1
 1400 1599 l 1
 1400 1398 l 1
 1200 1398 l 1
1400 -198 m 1
 1400 -396 l 1
 1200 -396 l 1
 1200 -198 l 1
 1400 -198 l 1
1200 -198 m 1
 1200 -2 l 1
 1400 -2 l 1
 1400 -198 l 1
 1200 -198 l 1
999 1398 m 1
 999 1599 l 1
 1200 1599 l 1
 1200 1398 l 1
 999 1398 l 1
999 -198 m 1
 999 -2 l 1
 1200 -2 l 1
 1200 -198 l 1
 999 -198 l 1
999 -2 m 1
 999 199 l 1
 1200 199 l 1
 1200 -2 l 1
 999 -2 l 1
999 199 m 1
 999 399 l 1
 1200 399 l 1
 1200 199 l 1
 999 199 l 1
999 600 m 1
 999 800 l 1
 1200 800 l 1
 1200 600 l 1
 999 600 l 1
999 800 m 1
 999 1001 l 1
 1200 1001 l 1
 1200 800 l 1
 999 800 l 1
999 1001 m 1
 999 1202 l 1
 1200 1202 l 1
 1200 1001 l 1
 999 1001 l 1
798 1398 m 1
 798 1599 l 1
 999 1599 l 1
 999 1398 l 1
 798 1398 l 1
999 -198 m 1
 999 -396 l 1
 798 -396 l 1
 798 -198 l 1
 999 -198 l 1
798 -198 m 1
 798 -2 l 1
 999 -2 l 1
 999 -198 l 1
 798 -198 l 1
798 -2 m 1
 798 199 l 1
 999 199 l 1
 999 -2 l 1
 798 -2 l 1
798 199 m 1
 798 399 l 1
 999 399 l 1
 999 199 l 1
 798 199 l 1
798 600 m 1
 798 800 l 1
 999 800 l 1
 999 600 l 1
 798 600 l 1
798 800 m 1
 798 1001 l 1
 999 1001 l 1
 999 800 l 1
 798 800 l 1
798 1001 m 1
 798 1202 l 1
 999 1202 l 1
 999 1001 l 1
 798 1001 l 1
602 1398 m 1
 602 1599 l 1
 798 1599 l 1
 798 1398 l 1
 602 1398 l 1
798 -198 m 1
 798 -396 l 1
 602 -396 l 1
 602 -198 l 1
 798 -198 l 1
602 -198 m 1
 602 -2 l 1
 798 -2 l 1
 798 -198 l 1
 602 -198 l 1
602 -2 m 1
 602 199 l 1
 798 199 l 1
 798 -2 l 1
 602 -2 l 1
602 199 m 1
 602 399 l 1
 798 399 l 1
 798 199 l 1
 602 199 l 1
602 600 m 1
 602 800 l 1
 798 800 l 1
 798 600 l 1
 602 600 l 1
602 800 m 1
 602 1001 l 1
 798 1001 l 1
 798 800 l 1
 602 800 l 1
602 1001 m 1
 602 1202 l 1
 798 1202 l 1
 798 1001 l 1
 602 1001 l 1
401 1398 m 1
 401 1599 l 1
 602 1599 l 1
 602 1398 l 1
 401 1398 l 1
602 -198 m 1
 602 -396 l 1
 401 -396 l 1
 401 -198 l 1
 602 -198 l 1
401 -198 m 1
 401 -2 l 1
 602 -2 l 1
 602 -198 l 1
 401 -198 l 1
201 1398 m 1
 201 1599 l 1
 401 1599 l 1
 401 1398 l 1
 201 1398 l 1
401 -198 m 1
 401 -396 l 1
 201 -396 l 1
 201 -198 l 1
 401 -198 l 1
201 -198 m 1
 201 -2 l 1
 401 -2 l 1
 401 -198 l 1
 201 -198 l 1
201 1202 m 1
 201 1398 l 1
 401 1398 l 1
 401 1202 l 1
 201 1202 l 1
0 -198 m 1
 0 -2 l 1
 201 -2 l 1
 201 -198 l 1
 0 -198 l 1
0 -2 m 1
 0 199 l 1
 201 199 l 1
 201 -2 l 1
 0 -2 l 1
0 199 m 1
 0 399 l 1
 201 399 l 1
 201 199 l 1
 0 199 l 1
0 399 m 1
 0 600 l 1
 201 600 l 1
 201 399 l 1
 0 399 l 1
0 600 m 1
 0 800 l 1
 201 800 l 1
 201 600 l 1
 0 600 l 1
0 800 m 1
 0 1001 l 1
 201 1001 l 1
 201 800 l 1
 0 800 l 1
0 1001 m 1
 0 1202 l 1
 201 1202 l 1
 201 1001 l 1
 0 1001 l 1
0 1202 m 1
 0 1398 l 1
 201 1398 l 1
 201 1202 l 1
 0 1202 l 1
EndSplineSet
Validated: 5
EndChar

StartChar: b
Encoding: 73 98 71
Width: 1801
Flags: W
LayerCount: 2
Fore
SplineSet
1801 -198 m 1
 1801 -2 l 1
 1998 -2 l 1
 1998 -198 l 1
 1801 -198 l 1
1801 -2 m 1
 1801 199 l 1
 1998 199 l 1
 1998 -2 l 1
 1801 -2 l 1
1801 199 m 1
 1801 399 l 1
 1998 399 l 1
 1998 199 l 1
 1801 199 l 1
1801 399 m 1
 1801 600 l 1
 1998 600 l 1
 1998 399 l 1
 1801 399 l 1
1801 600 m 1
 1801 800 l 1
 1998 800 l 1
 1998 600 l 1
 1801 600 l 1
1801 800 m 1
 1801 1001 l 1
 1998 1001 l 1
 1998 800 l 1
 1801 800 l 1
1801 1001 m 1
 1801 1202 l 1
 1998 1202 l 1
 1998 1001 l 1
 1801 1001 l 1
1801 -198 m 1
 1801 -396 l 1
 1601 -396 l 1
 1601 -198 l 1
 1801 -198 l 1
1601 -198 m 1
 1601 -2 l 1
 1801 -2 l 1
 1801 -198 l 1
 1601 -198 l 1
1601 -2 m 1
 1601 199 l 1
 1801 199 l 1
 1801 -2 l 1
 1601 -2 l 1
1601 199 m 1
 1601 399 l 1
 1801 399 l 1
 1801 199 l 1
 1601 199 l 1
1601 399 m 1
 1601 600 l 1
 1801 600 l 1
 1801 399 l 1
 1601 399 l 1
1601 600 m 1
 1601 800 l 1
 1801 800 l 1
 1801 600 l 1
 1601 600 l 1
1601 800 m 1
 1601 1001 l 1
 1801 1001 l 1
 1801 800 l 1
 1601 800 l 1
1601 1001 m 1
 1601 1202 l 1
 1801 1202 l 1
 1801 1001 l 1
 1601 1001 l 1
1601 1202 m 1
 1601 1398 l 1
 1801 1398 l 1
 1801 1202 l 1
 1601 1202 l 1
1400 1398 m 1
 1400 1599 l 1
 1601 1599 l 1
 1601 1398 l 1
 1400 1398 l 1
1601 -198 m 1
 1601 -396 l 1
 1400 -396 l 1
 1400 -198 l 1
 1601 -198 l 1
1400 -198 m 1
 1400 -2 l 1
 1601 -2 l 1
 1601 -198 l 1
 1400 -198 l 1
1400 -2 m 1
 1400 199 l 1
 1601 199 l 1
 1601 -2 l 1
 1400 -2 l 1
1400 600 m 1
 1400 800 l 1
 1601 800 l 1
 1601 600 l 1
 1400 600 l 1
1400 1202 m 1
 1400 1398 l 1
 1601 1398 l 1
 1601 1202 l 1
 1400 1202 l 1
1200 1398 m 1
 1200 1599 l 1
 1400 1599 l 1
 1400 1398 l 1
 1200 1398 l 1
1400 -198 m 1
 1400 -396 l 1
 1200 -396 l 1
 1200 -198 l 1
 1400 -198 l 1
1200 -198 m 1
 1200 -2 l 1
 1400 -2 l 1
 1400 -198 l 1
 1200 -198 l 1
999 1398 m 1
 999 1599 l 1
 1200 1599 l 1
 1200 1398 l 1
 999 1398 l 1
1200 -198 m 1
 1200 -396 l 1
 999 -396 l 1
 999 -198 l 1
 1200 -198 l 1
999 -198 m 1
 999 -2 l 1
 1200 -2 l 1
 1200 -198 l 1
 999 -198 l 1
999 199 m 1
 999 399 l 1
 1200 399 l 1
 1200 199 l 1
 999 199 l 1
999 399 m 1
 999 600 l 1
 1200 600 l 1
 1200 399 l 1
 999 399 l 1
999 800 m 1
 999 1001 l 1
 1200 1001 l 1
 1200 800 l 1
 999 800 l 1
999 1001 m 1
 999 1202 l 1
 1200 1202 l 1
 1200 1001 l 1
 999 1001 l 1
798 1398 m 1
 798 1599 l 1
 999 1599 l 1
 999 1398 l 1
 798 1398 l 1
999 -198 m 1
 999 -396 l 1
 798 -396 l 1
 798 -198 l 1
 999 -198 l 1
798 -198 m 1
 798 -2 l 1
 999 -2 l 1
 999 -198 l 1
 798 -198 l 1
798 199 m 1
 798 399 l 1
 999 399 l 1
 999 199 l 1
 798 199 l 1
798 399 m 1
 798 600 l 1
 999 600 l 1
 999 399 l 1
 798 399 l 1
798 800 m 1
 798 1001 l 1
 999 1001 l 1
 999 800 l 1
 798 800 l 1
798 1001 m 1
 798 1202 l 1
 999 1202 l 1
 999 1001 l 1
 798 1001 l 1
602 1398 m 1
 602 1599 l 1
 798 1599 l 1
 798 1398 l 1
 602 1398 l 1
798 -198 m 1
 798 -396 l 1
 602 -396 l 1
 602 -198 l 1
 798 -198 l 1
602 -198 m 1
 602 -2 l 1
 798 -2 l 1
 798 -198 l 1
 602 -198 l 1
602 199 m 1
 602 399 l 1
 798 399 l 1
 798 199 l 1
 602 199 l 1
602 399 m 1
 602 600 l 1
 798 600 l 1
 798 399 l 1
 602 399 l 1
602 800 m 1
 602 1001 l 1
 798 1001 l 1
 798 800 l 1
 602 800 l 1
602 1001 m 1
 602 1202 l 1
 798 1202 l 1
 798 1001 l 1
 602 1001 l 1
401 1398 m 1
 401 1599 l 1
 602 1599 l 1
 602 1398 l 1
 401 1398 l 1
602 -198 m 1
 602 -396 l 1
 401 -396 l 1
 401 -198 l 1
 602 -198 l 1
401 -198 m 1
 401 -2 l 1
 602 -2 l 1
 602 -198 l 1
 401 -198 l 1
201 1398 m 1
 201 1599 l 1
 401 1599 l 1
 401 1398 l 1
 201 1398 l 1
401 -198 m 1
 401 -396 l 1
 201 -396 l 1
 201 -198 l 1
 401 -198 l 1
201 -198 m 1
 201 -2 l 1
 401 -2 l 1
 401 -198 l 1
 201 -198 l 1
0 1398 m 1
 0 1599 l 1
 201 1599 l 1
 201 1398 l 1
 0 1398 l 1
0 -198 m 1
 0 -2 l 1
 201 -2 l 1
 201 -198 l 1
 0 -198 l 1
0 -2 m 1
 0 199 l 1
 201 199 l 1
 201 -2 l 1
 0 -2 l 1
0 199 m 1
 0 399 l 1
 201 399 l 1
 201 199 l 1
 0 199 l 1
0 399 m 1
 0 600 l 1
 201 600 l 1
 201 399 l 1
 0 399 l 1
0 600 m 1
 0 800 l 1
 201 800 l 1
 201 600 l 1
 0 600 l 1
0 800 m 1
 0 1001 l 1
 201 1001 l 1
 201 800 l 1
 0 800 l 1
0 1001 m 1
 0 1202 l 1
 201 1202 l 1
 201 1001 l 1
 0 1001 l 1
0 1202 m 1
 0 1398 l 1
 201 1398 l 1
 201 1202 l 1
 0 1202 l 1
EndSplineSet
Validated: 5
EndChar

